<?xml version="1.0" encoding="UTF-8"?>
<!DOCTYPE svg PUBLIC "-//W3C//DTD SVG 1.1//EN" "http://www.w3.org/Graphics/SVG/1.1/DTD/svg11.dtd">
<!-- Creator: CorelDRAW X7 -->
<svg xmlns="http://www.w3.org/2000/svg" xml:space="preserve" width="200mm" height="200mm" version="1.1" style="shape-rendering:geometricPrecision; text-rendering:geometricPrecision; image-rendering:optimizeQuality; fill-rule:evenodd; clip-rule:evenodd"
viewBox="0 0 20000 20000"
 xmlns:xlink="http://www.w3.org/1999/xlink">
 <defs>
  <style type="text/css">
   <![CDATA[
    .str3 {stroke:#FEFEFE;stroke-width:20}
    .str1 {stroke:#E1BF9D;stroke-width:20}
    .str0 {stroke:#009846;stroke-width:20}
    .str2 {stroke:#999694;stroke-width:20}
    .str5 {stroke:#2B2A29;stroke-width:10}
    .str6 {stroke:#FEFEFE;stroke-width:20;stroke-linejoin:round}
    .str4 {stroke:#2B2A29;stroke-width:20;stroke-linejoin:round}
    .fil3 {fill:#FEFEFE}
    .fil4 {fill:#FEFEFE}
    .fil5 {fill:#2B2A29}
    .fil7 {fill:#E32124}
    .fil1 {fill:#E1BF9D}
    .fil6 {fill:#252422}
    .fil0 {fill:#009846}
    .fil2 {fill:#999694}
    .fil10 {fill:#FFED00;fill-rule:nonzero}
    .fil9 {fill:#E5097F;fill-rule:nonzero}
    .fil8 {fill:#1F1B20;fill-rule:nonzero}
   ]]>
  </style>
 </defs>
 <g id="Vrstva_x0020_1">
  <metadata id="CorelCorpID_0Corel-Layer"/>
  <rect class="fil0 str0" x="-15" y="34" width="19972" height="19976"/>
  <rect class="fil1 str1" x="-15" y="11782" width="19994" height="2368"/>
  <rect class="fil1 str1" transform="matrix(5.41226E-015 -0.39281 0.763148 3.88505E-014 13374.9 20033.9)" width="21007" height="3781"/>
  <rect class="fil1 str1" transform="matrix(5.41226E-015 -0.392681 0.763148 3.88378E-014 3406.07 20013.9)" width="21007" height="3781"/>
  <rect class="fil1 str1" x="-15" y="2261" width="19992" height="2772"/>
  <rect class="fil2 str2" x="-15" y="5000" width="20000" height="6765"/>
  <rect class="fil3 str3" x="11" y="5324" width="19972" height="176"/>
  <rect class="fil4 str3" x="4808" y="8852" width="339" height="2502"/>
  <rect class="fil4 str3" transform="matrix(-3.64249E-013 -1.48054 1.53889 -4.45831E-014 -15.6596 8852.01)" width="116" height="3355"/>
  <rect class="fil4 str3" transform="matrix(-2.14063E-013 -1.48054 0.905155 -4.44854E-014 16865.7 8410.19)" width="116" height="3355"/>
  <g id="_1691365932384">
   <path class="fil5 str4" d="M15952 4666c0,-520 0,-1040 0,-1560 0,-520 0,-1040 0,-1560l180 0 0 3120 -180 0z"/>
   <polygon class="fil3 str5" points="15552,2150 16603,1849 16537,2805 15486,3106 "/>
   <polygon class="fil4 str6" points="16085,210 16588,975 16898,1444 16085,1739 15075,1998 15581,975 "/>
   <g>
    <path class="fil6" d="M16160 2567c-7,-119 -25,-171 -203,-158l-323 16 6 137 269 -13c89,-13 99,19 97,95l13 222 158 -10 -17 -289z"/>
    <polygon class="fil6" points="16113,2361 16094,2039 16034,2042 16053,2364 "/>
   </g>
   <g>
    <path class="fil7" d="M15124 2111l856 -261 6 -129 -911 277 979 -1686 7 -129c-27,8 -54,21 -74,37l0 0c-31,25 -68,77 -87,110l-926 1590c-45,76 -64,190 20,209 31,6 93,-7 130,-18z"/>
    <path class="fil7" d="M15980 1850l856 -260c40,-12 96,-33 132,-63 44,-35 67,-86 69,-129 3,-35 -6,-70 -27,-98l-799 -1065c-17,-22 -49,-52 -79,-59l0 0c-19,-4 -45,-1 -71,7l-7 129 844 1132 -912 277 -6 129z"/>
   </g>
   <polygon class="fil6" points="15947,1211 15969,1520 15970,1536 15988,1519 16077,1432 16180,1508 16200,1522 16199,1506 16177,1197 16406,1183 16398,1078 16169,1092 16153,860 16031,766 15923,874 15939,1105 15710,1119 15718,1224 "/>
  </g>
  <rect class="fil2 str2" transform="matrix(3.46283E-014 -0.524622 1.31353 1.39586E-014 6000 20011.4)" width="21096" height="5786"/>
  <rect class="fil4 str3" transform="matrix(-1.07032E-013 -1.48054 0.452579 -4.44854E-014 13035.6 8444.55)" width="116" height="3355"/>
  <g id="_1691365943712">
   <path class="fil5 str4" d="M14772 16770c0,-566 0,-1132 0,-1699 0,-566 0,-1132 0,-1699l176 0 0 3398 -176 0z"/>
   <g>
    <polygon class="fil4 str6" points="14895,12080 15387,12913 15800,13703 14895,13747 13956,13671 14403,12913 "/>
    <path class="fil7" d="M14886 13776l793 0c38,0 89,-4 122,-23 40,-23 59,-70 59,-114 1,-37 -9,-76 -30,-113l-800 -1380c-17,-28 -48,-70 -77,-87l0 0c-18,-10 -43,-16 -67,-16l0 135 845 1464 -845 0 0 134zm-794 0l794 0 0 -134 -846 0 846 -1464 0 -135c-25,0 -50,5 -68,15l0 0c-28,17 -60,60 -76,89l-801 1379c-38,67 -51,181 29,227 29,18 88,23 122,23z"/>
    <polygon class="fil6" points="14773,13136 14773,13474 14773,13491 14792,13474 14885,13385 14980,13474 14998,13491 14998,13474 14998,13136 15222,13136 15222,13021 14998,13021 14998,12768 14887,12658 14773,12768 14773,13021 14549,13021 14549,13136 "/>
   </g>
   <g>
    <rect class="fil3 str3" x="14402" y="14035" width="994" height="998"/>
    <g>
     <path class="fil6" d="M14893 14019l511 0 0 1022 -511 0 0 -8 503 0 0 -1006 -503 0 0 -8zm-511 0l511 0 0 8 -502 0 0 1006 502 0 0 8 -511 0 0 -1022z"/>
     <path class="fil6" d="M15025 14484c-131,0 -189,14 -184,191l0 318 150 2 0 -265c-9,-89 27,-97 110,-91l243 0 -2 -155 -317 0z"/>
     <polygon class="fil6" points="14797,14518 14442,14518 14442,14577 14797,14577 "/>
    </g>
   </g>
  </g>
  <rect class="fil4 str3" x="9767" y="16068" width="172" height="3038"/>
  <rect class="fil4 str3" x="9767" y="11958" width="172" height="1660"/>
  <rect class="fil3 str6" x="-15" y="11333" width="6446" height="176"/>
  <rect class="fil3 str6" x="13082" y="11333" width="6903" height="176"/>
  <rect class="fil3 str6" transform="matrix(1.02194E-014 -0.413115 0.997423 2.82819E-014 6254.7 20010.1)" width="20999" height="176"/>
  <rect class="fil3 str6" transform="matrix(1.02194E-014 -0.413172 0.997423 2.82858E-014 13081.7 20011.4)" width="20999" height="176"/>
  <polygon class="fil8" points="10317,7897 10602,7601 10602,7749 11817,7749 11824,10611 11526,10611 11532,8046 10602,8046 10602,8194 "/>
  <polygon class="fil9" points="8659,8132 8362,7847 8510,7847 8510,6632 11372,6626 11372,6924 8807,6917 8807,7847 8955,7847 "/>
  <polygon class="fil10" points="8315,10176 8030,10476 8030,10326 5451,10333 5457,10041 8030,10026 8030,9876 "/>
 </g>
</svg>
