<?xml version="1.0" encoding="UTF-8"?>
<!DOCTYPE svg PUBLIC "-//W3C//DTD SVG 1.1//EN" "http://www.w3.org/Graphics/SVG/1.1/DTD/svg11.dtd">
<!-- Creator: CorelDRAW X7 -->
<svg xmlns="http://www.w3.org/2000/svg" xml:space="preserve" width="200mm" height="200mm" version="1.1" style="shape-rendering:geometricPrecision; text-rendering:geometricPrecision; image-rendering:optimizeQuality; fill-rule:evenodd; clip-rule:evenodd"
viewBox="0 0 20000 20000"
 xmlns:xlink="http://www.w3.org/1999/xlink">
 <defs>
  <style type="text/css">
   <![CDATA[
    .str7 {stroke:#EF7F1A;stroke-width:20}
    .str6 {stroke:#E31E24;stroke-width:20}
    .str1 {stroke:#E1BF9D;stroke-width:20}
    .str5 {stroke:#575757;stroke-width:20}
    .str8 {stroke:#1F1B20;stroke-width:20}
    .str0 {stroke:#009846;stroke-width:20}
    .str2 {stroke:#999694;stroke-width:20}
    .str3 {stroke:#FEFEFE;stroke-width:20;stroke-linejoin:round}
    .str4 {stroke:#2B2A29;stroke-width:20;stroke-linejoin:round}
    .fil10 {fill:none}
    .fil3 {fill:#FEFEFE}
    .fil4 {fill:#2B2A29}
    .fil15 {fill:#FDC619}
    .fil24 {fill:#F6A30A}
    .fil13 {fill:#F18A69}
    .fil7 {fill:#EF7F1A}
    .fil14 {fill:#EC647A}
    .fil21 {fill:#EA5453}
    .fil6 {fill:#E31E24}
    .fil16 {fill:#F5E6DA}
    .fil17 {fill:#DF5068}
    .fil1 {fill:#E1BF9D}
    .fil25 {fill:#D4745A}
    .fil22 {fill:#BF4642}
    .fil19 {fill:#78BDE9}
    .fil5 {fill:#575757}
    .fil23 {fill:#489ED7}
    .fil18 {fill:#4D5882}
    .fil20 {fill:#464E7A}
    .fil11 {fill:#423B64}
    .fil8 {fill:#1F1B20}
    .fil12 {fill:#1F1B20}
    .fil0 {fill:#009846}
    .fil2 {fill:#999694}
    .fil28 {fill:#2B2A29;fill-rule:nonzero}
    .fil27 {fill:#EF7F1A;fill-rule:nonzero}
    .fil26 {fill:#E5097F;fill-rule:nonzero}
    .fil9 {fill:#009846;fill-rule:nonzero}
   ]]>
  </style>
 </defs>
 <g id="Vrstva_x0020_1">
  <metadata id="CorelCorpID_0Corel-Layer"/>
  <rect class="fil0 str0" x="12" y="-6" width="20000" height="19980"/>
  <rect class="fil1 str1" x="12" y="4302" width="19993" height="2721"/>
  <rect class="fil1 str1" transform="matrix(6.33249E-015 -0.95113 0.892905 9.40708E-014 14501.2 19974.1)" width="21007" height="3781"/>
  <rect class="fil1 str1" x="12" y="13030" width="20000" height="3090"/>
  <rect class="fil1 str1" transform="matrix(5.42624E-015 -0.292059 0.76512 2.88859E-014 4249.99 19994.1)" width="21007" height="3781"/>
  <rect class="fil1 str1" transform="matrix(5.42624E-015 -0.288142 0.76512 2.84985E-014 4149.99 6050.14)" width="21007" height="3781"/>
  <rect class="fil2 str2" x="12" y="7034" width="20000" height="5984"/>
  <rect class="fil2 str2" transform="matrix(-2.90524E-014 0.948042 -1.4222 -2.95837E-013 15251.2 -5.88256)" width="21096" height="5786"/>
  <rect class="fil3 str3" x="17" y="12489" width="7438" height="236"/>
  <rect class="fil3 str3" transform="matrix(-2.08861E-014 0.357928 -1.34058 -1.46483E-013 7374.42 -2.74433)" width="20999" height="176"/>
  <rect class="fil3 str3" transform="matrix(-2.08861E-014 0.356425 -1.34058 -1.45868E-013 7454.42 12489.5)" width="20999" height="176"/>
  <rect class="fil3 str3" x="14867" y="12489" width="5145" height="236"/>
  <rect class="fil3 str3" transform="matrix(-2.08861E-014 0.356425 -1.34058 -1.45868E-013 15103.8 12489.5)" width="20999" height="176"/>
  <rect class="fil3 str3" x="17" y="7277" width="7358" height="236"/>
  <rect class="fil3 str3" x="14863" y="7277" width="5150" height="236"/>
  <g id="_1637546319216">
   <rect class="fil3 str3" x="14883" y="11411" width="3000" height="837"/>
   <rect class="fil3 str3" x="14883" y="10190" width="3000" height="837"/>
   <rect class="fil3 str3" x="14883" y="8950" width="3000" height="837"/>
   <rect class="fil3 str3" x="14883" y="7690" width="3000" height="837"/>
  </g>
  <g id="_1637546316048">
   <rect class="fil3 str3" x="4361" y="11401" width="3000" height="837"/>
   <rect class="fil3 str3" x="4361" y="10190" width="3000" height="837"/>
   <rect class="fil3 str3" x="4361" y="8950" width="3000" height="837"/>
   <rect class="fil3 str3" x="4361" y="7690" width="3000" height="837"/>
  </g>
  <g id="_1637551240768">
   <path class="fil4 str4" d="M16387 13517c86,0 173,0 259,0 87,0 173,0 259,0l0 89 -518 0 0 -89z"/>
   <path class="fil4 str4" d="M16219 16120c0,-354 0,-708 0,-1062 0,-354 0,-708 0,-1061l176 0 0 2123 -176 0z"/>
   <g>
    <polygon class="fil5 str5" points="15984,13205 16619,13205 16619,15110 15984,15110 "/>
    <circle class="fil6 str6" cx="16301" cy="13590" r="203"/>
    <circle class="fil7 str7" cx="16301" cy="14190" r="203"/>
    <circle class="fil0 str0" cx="16301" cy="14750" r="203"/>
   </g>
   <g>
    <polygon class="fil5 str5" points="16703,13201 17338,13201 17338,13906 16703,13906 "/>
    <circle class="fil8 str8" cx="17020" cy="13546" r="203"/>
    <path class="fil9 str0" d="M16868 13594l157 0 0 45 157 -91 -157 -92 0 46 -157 0 0 92zm78 0m79 23m78 -23m0 -92m-78 -23m-79 23m-78 46"/>
   </g>
   <g>
    <path class="fil10 str0" d="M17366 13269c167,0 303,131 303,292 0,162 -136,293 -303,293"/>
    <path class="fil10 str0" d="M17358 13166c212,0 384,175 384,392 0,217 -172,393 -384,393"/>
    <path class="fil10 str0" d="M17366 13349c119,0 215,94 215,211 0,117 -96,212 -215,212"/>
   </g>
   <g>
    <ellipse class="fil10 str6" transform="matrix(-7.25545E-014 -0.891819 0.912315 -7.09245E-014 16297.8 13591.1)" rx="392" ry="384"/>
    <ellipse class="fil10 str6" transform="matrix(-9.32846E-014 -1.14661 1.17298 -9.11878E-014 16289 13587.5)" rx="392" ry="384"/>
    <ellipse class="fil10 str6" transform="matrix(-5.18249E-014 -0.636998 0.651658 -5.06591E-014 16297.8 13590)" rx="392" ry="384"/>
   </g>
  </g>
  <path class="fil4 str4" d="M16468 6309c0,-404 0,-808 0,-1213 0,-404 0,-808 0,-1213l177 0 0 2426 -177 0z"/>
  <g id="_1637551252704">
   <g>
    <polygon class="fil5 str5" points="16271,3233 16867,2917 16887,4936 16292,5252 "/>
    <circle class="fil6 str6" transform="matrix(1.30778 -0.693685 0.0152882 1.47773 16572 3484.11)" r="146"/>
    <circle class="fil7 str7" transform="matrix(1.30778 -0.693685 0.0152882 1.47773 16578.6 4120.17)" r="146"/>
    <circle class="fil0 str0" transform="matrix(1.30778 -0.693685 0.0152882 1.47773 16584.8 4713.81)" r="146"/>
   </g>
   <g>
    <ellipse class="fil10 str0" transform="matrix(-0.00978096 -0.945405 0.855907 -0.453999 16586.2 4712.87)" rx="392" ry="384"/>
    <ellipse class="fil10 str0" transform="matrix(-0.0125754 -1.21551 1.10046 -0.583714 16577.9 4713.44)" rx="392" ry="384"/>
    <ellipse class="fil10 str0" transform="matrix(-0.00698623 -0.675273 0.611366 -0.324287 16586.2 4711.64)" rx="392" ry="384"/>
   </g>
  </g>
  <g id="_1637551250176">
   <g>
    <ellipse class="fil10 str0" transform="matrix(-8.06161E-014 -0.99091 1.01368 -7.8805E-014 5224.81 14045.8)" rx="392" ry="384"/>
    <ellipse class="fil10 str0" transform="matrix(-1.0365E-013 -1.27402 1.30331 -1.0132E-013 5214.95 14041.8)" rx="392" ry="384"/>
    <ellipse class="fil10 str0" transform="matrix(-5.75833E-014 -0.707775 0.724064 -5.62879E-014 5224.81 14044.5)" rx="392" ry="384"/>
   </g>
   <polygon class="fil5 str5" points="4978,12724 5574,12366 5534,14419 4938,14777 "/>
   <path class="fil4 str4" d="M5135 15818c8,-567 17,-1135 25,-1702 9,-567 17,-1135 26,-1702l176 0 -51 3404 -176 0z"/>
  </g>
  <rect class="fil3 str3" transform="matrix(-2.08861E-014 0.355972 -1.34058 -1.45683E-013 15099 -5.879)" width="20999" height="176"/>
  <rect class="fil3 str3" transform="matrix(1.592E-014 -0.142863 4.74336 2.98572E-014 7611.29 7498.2)" width="20999" height="176"/>
  <rect class="fil3 str3" transform="matrix(1.592E-014 -0.142863 4.74336 2.98572E-014 8872.41 7498.2)" width="20999" height="176"/>
  <rect class="fil3 str3" transform="matrix(1.592E-014 -0.142863 4.74336 2.98572E-014 10162.4 7498.2)" width="20999" height="176"/>
  <rect class="fil3 str3" transform="matrix(1.592E-014 -0.142863 4.74336 2.98572E-014 11452.4 7498.2)" width="20999" height="176"/>
  <rect class="fil3 str3" transform="matrix(1.592E-014 -0.142863 4.74336 2.98572E-014 12682.4 7498.2)" width="20999" height="176"/>
  <rect class="fil3 str3" transform="matrix(1.592E-014 -0.142863 4.74336 2.98572E-014 13862.4 7498.2)" width="20999" height="176"/>
  <g id="_1637551245632">
   <rect class="fil3 str3" transform="matrix(1.592E-014 -0.142863 4.74336 2.98572E-014 7611.29 15478.2)" width="20999" height="176"/>
   <rect class="fil3 str3" transform="matrix(1.592E-014 -0.142863 4.74336 2.98572E-014 8892.41 15478.2)" width="20999" height="176"/>
   <rect class="fil3 str3" transform="matrix(1.592E-014 -0.142863 4.74336 2.98572E-014 10192.4 15478.2)" width="20999" height="176"/>
   <rect class="fil3 str3" transform="matrix(1.592E-014 -0.142863 4.74336 2.98572E-014 11402.4 15478.2)" width="20999" height="176"/>
   <rect class="fil3 str3" transform="matrix(1.592E-014 -0.142863 4.74336 2.98572E-014 12642.4 15478.2)" width="20999" height="176"/>
   <rect class="fil3 str3" transform="matrix(1.592E-014 -0.142863 4.74336 2.98572E-014 13862.4 15478.2)" width="20999" height="176"/>
  </g>
  <g id="_1637458529232">
   <path class="fil11" d="M8640 12831c-38,113 -36,241 15,350 50,109 150,196 268,223 68,16 142,11 206,-19 64,-30 116,-86 135,-153 19,-67 3,-145 -45,-195 -37,-38 -89,-60 -120,-103 -54,-72 -32,-181 -85,-253 -49,-67 -151,-78 -225,-41 -74,37 -123,112 -149,191z"/>
   <path class="fil12" d="M9238 15003l0 0c0,0 107,41 108,50l-160 0 -11 -100 63 50z"/>
   <path class="fil12" d="M8518 14773l-39 32c0,0 6,105 -1,111l-82 -132 82 -58 40 47z"/>
   <path class="fil13" d="M8936 14198c0,0 -28,249 -33,259 -6,9 -424,348 -424,348l-31 -57 296 -419 -43 -496 235 365z"/>
   <path class="fil13" d="M8692 13569c105,10 212,19 305,66l-25 82c0,0 145,419 151,454 5,35 115,832 115,832l-58 -8 -244 -778c0,0 -305,-360 -291,-502 7,-64 27,-112 47,-146z"/>
   <path class="fil14" d="M9072 14011c-44,-131 -100,-294 -100,-294l25 -82c-93,-47 -200,-56 -305,-66 -20,34 -40,82 -47,146 -4,45 23,111 62,180l18 217c38,-5 74,-13 111,-22 0,0 0,0 0,0 4,-1 8,-2 12,-4 5,-1 9,-2 14,-3l0 0c35,-10 71,-21 106,-33 35,-12 69,-25 104,-39z"/>
   <path class="fil13" d="M8922 13067c0,0 -13,-114 8,-133 14,-12 59,7 72,-12 4,-6 -3,-49 -6,-77 -1,-8 22,1 21,-7 -2,-9 -40,-47 -38,-57 19,-154 -239,-159 -246,-38 -4,75 32,152 104,194l-42 80 127 50z"/>
   <path class="fil13" d="M8994 13346l113 182c0,0 242,120 256,125 14,5 86,66 95,80 9,14 -27,20 -34,20 -7,0 -29,-10 -29,-10 0,0 -43,26 -45,26 -2,-1 -30,-63 -30,-63 0,0 -282,-71 -305,-90 -22,-18 -109,-228 -109,-228l88 -42z"/>
   <path class="fil15" d="M8987 13303l113 240c0,0 110,-23 149,26 39,48 82,69 82,69l-11 68c0,0 -280,-25 -323,-71 -43,-46 -40,-297 -40,-297l30 -35z"/>
   <polygon class="fil16" points="8923,13070 8953,13018 8837,12937 8797,12997 "/>
   <path class="fil15" d="M8711 13061c0,0 72,-102 151,-66 20,8 174,207 177,240 3,34 -61,150 -61,150l66 392 -453 -125 100 -241c0,0 -32,-131 20,-350z"/>
   <path class="fil17" d="M8804 14045c-1,0 -3,0 -4,-1 -30,-43 -58,-81 -83,-122 -1,-2 0,-5 2,-6 2,-1 4,0 6,2 25,40 52,78 82,121 2,2 1,4 -1,6 0,0 -1,0 -2,0z"/>
   <path class="fil13" d="M10012 13008l25 -97c0,0 37,10 53,-6 7,-6 14,-35 16,-80 0,-5 18,5 19,0 0,-9 -33,-53 -30,-71 11,-65 5,-82 -14,-101 -42,-41 -190,-47 -210,24 -20,72 -14,106 23,208l-23 101 141 22z"/>
   <path class="fil12" d="M10376 14872l38 113c0,0 116,7 120,15l-168 46 -44 -159 54 -15z"/>
   <polygon class="fil12" points="9492,15056 9396,15056 9326,15002 9413,14861 9460,14890 9403,14995 9421,15037 "/>
   <path class="fil13" d="M9729 14323c-37,-7 -48,-6 -84,-16l-273 620 50 34 326 -498 50 -119c-25,-5 -44,-17 -69,-21z"/>
   <path class="fil13" d="M10209 14278c-56,21 -69,43 -127,60l9 41 253 588 60 -12 -195 -677z"/>
   <path class="fil18" d="M10247 14280l-117 -452 -434 0 -77 497c36,11 73,20 111,27 26,5 53,10 78,15l119 -303 125 290c60,-16 137,-52 195,-74z"/>
   <path class="fil19" d="M9869 12905c0,0 89,27 134,79 45,51 117,199 118,215 2,17 -22,200 -22,200l80 484c0,0 -343,53 -515,0l90 -400c0,0 -13,-141 -27,-157 -15,-17 11,-157 22,-222 11,-65 63,-139 80,-154 18,-15 40,-45 40,-45z"/>
   <path class="fil19" d="M9898 12916c-41,-28 -186,-33 -203,-22 -17,11 23,46 19,69 -5,23 -89,53 -60,104 28,50 113,110 113,110l131 -261z"/>
   <path class="fil20" d="M9940 14022c-1,0 -2,-1 -3,-1 -2,-1 -2,-4 -1,-6l48 -74c1,-2 4,-3 6,-2 2,2 3,4 1,6l-48 75c-1,1 -2,2 -3,2z"/>
   <path class="fil11" d="M10110 12564c1,8 -3,17 -10,23 5,-15 -11,-31 -27,-31 -16,-1 -27,9 -36,22 4,-7 16,-5 20,2 3,7 -1,16 -7,21 -7,4 -16,5 -24,5 -18,0 -37,-5 -55,-10 -18,-5 -37,-10 -55,-10 -19,0 -39,6 -52,19 -14,13 -18,38 -10,55 -47,19 -14,101 0,137 15,37 40,88 40,88l48 -47c0,0 -37,-43 -20,-62 16,-19 33,11 33,11 0,0 5,90 18,96 12,5 87,58 119,47 31,-12 14,-105 14,-105l-47 -5c-42,-5 -74,-42 -73,-85l0 0c0,0 51,17 60,-25 35,-5 78,-20 91,-52 14,-33 3,-76 -27,-94z"/>
   <path class="fil21" d="M10034 12606c0,0 -79,181 -167,221 0,0 -68,-114 -66,-165 1,-51 39,-84 97,-88 59,-5 136,32 136,32z"/>
   <path class="fil13" d="M9474 13700c-8,-12 9,-41 21,-56 -9,-16 -10,-53 -18,-70 -53,92 -90,130 -95,143 -9,27 -13,43 10,44 22,2 9,33 28,31 19,-2 10,34 29,24 19,-10 17,-54 17,-54 0,0 37,-15 8,-62z"/>
   <path class="fil19" d="M9804 12984c-58,30 -387,653 -387,653l85 54c0,0 74,-121 115,-151 41,-30 54,-43 58,-102 4,-59 190,-205 220,-271 29,-65 -50,-204 -91,-183z"/>
   <path class="fil22" d="M9886 12777c-1,0 -2,-1 -3,-2 -2,-1 -2,-4 0,-6 36,-39 67,-84 90,-132 1,-2 4,-3 6,-2 2,1 3,3 2,5 -24,50 -55,95 -92,135 -1,1 -2,2 -3,2z"/>
   <path class="fil23" d="M9727 13330c-3,0 -4,-2 -5,-4 -24,-124 -8,-293 109,-391 1,-1 4,-1 6,1 1,1 1,4 -1,6 -114,96 -129,260 -105,383 0,2 -1,4 -4,5 0,0 0,0 0,0z"/>
   <path class="fil19" d="M10155 13333l-50 0c0,0 -123,-282 -165,-317 -42,-35 -53,296 17,395 69,99 86,99 220,46 134,-52 -22,-124 -22,-124z"/>
   <path class="fil13" d="M10554 13221c6,-13 2,-52 -3,-48 -4,3 -9,25 -9,25l-2 11c0,0 -8,-3 -8,0 -1,2 -3,16 -3,16l-2 26 27 -30z"/>
   <polygon class="fil16" points="10492,13271 10522,13160 10547,13072 10579,13084 10520,13274 "/>
   <path class="fil13" d="M10175 13336l25 100c0,0 258,-100 272,-105 0,0 39,-31 47,-37 8,-6 33,-67 35,-73 2,-6 -46,-9 -46,-9 0,0 -1,-30 -4,-39 -1,-5 -12,-28 -17,-13l-10 46 -16 15c-8,11 -17,56 -17,56l-269 59z"/>
   <path class="fil19" d="M10155 13333c0,0 27,-76 78,-45 51,31 57,-7 57,-7l137 -38 45 88 -295 126 -22 -124z"/>
   <path class="fil23" d="M10039 13497c-18,0 -37,-6 -54,-19 -20,-14 -34,-34 -48,-53 -39,-57 -74,-118 -104,-181 -19,-41 -37,-85 -39,-132 -1,-44 11,-81 34,-101 16,-15 37,-21 62,-17 3,1 4,3 4,5 0,2 -2,4 -5,4 -22,-4 -41,1 -56,14 -20,18 -32,54 -30,94 1,46 19,90 38,130 29,62 64,122 103,179 13,18 28,38 46,52 21,14 44,20 64,15 2,-1 4,1 5,3 1,2 -1,5 -3,5 -6,2 -11,2 -17,2z"/>
   <path class="fil23" d="M10072 13309c0,0 0,0 0,0 -3,-1 -4,-3 -4,-5 3,-37 3,-78 -23,-102 -5,-5 -10,-8 -16,-12 -6,-4 -11,-7 -16,-11 -16,-14 -26,-34 -35,-53 -11,-22 -21,-43 -41,-55 -2,-1 -3,-4 -2,-6 2,-2 4,-2 6,-1 23,13 34,36 45,58 9,19 18,38 33,50 4,4 9,7 14,11 6,4 13,8 18,13 29,26 28,70 25,109 0,2 -2,4 -4,4z"/>
   <path class="fil16" d="M9004 13539l-423 -90 -79 307 431 103c28,-106 37,-216 71,-320z"/>
   <path class="fil13" d="M8733 13778c-10,-10 1,-42 10,-60 -13,-13 -20,-49 -32,-64 -33,101 -62,145 -64,158 -4,29 -5,45 18,42 22,-3 16,30 34,24 18,-6 17,32 33,18 16,-13 5,-56 5,-56 0,0 35,-22 -4,-62z"/>
   <path class="fil15" d="M8711 13061c-40,51 -54,691 -54,691l100 14c0,0 17,-141 42,-185 24,-45 30,-62 9,-117 -21,-56 62,-202 61,-274 0,-72 -130,-165 -158,-129z"/>
   <path class="fil24" d="M9015 13621c-2,0 -4,-2 -4,-4l-38 -232c0,-1 0,-1 1,-2l16 -39c1,-2 3,-3 5,-2 3,1 4,4 3,6l-16 37 38 231c0,2 -2,4 -4,4 0,0 0,1 -1,1z"/>
   <path class="fil24" d="M8809 13446c0,0 0,0 0,0 -2,-1 -4,-3 -4,-5l23 -231c2,-22 4,-45 0,-66 -6,-24 -20,-43 -38,-50 -2,-1 -3,-3 -2,-5 1,-3 3,-4 5,-3 21,9 37,29 43,56 5,23 3,46 1,69l-23 231c-1,2 -2,4 -5,4z"/>
   <path class="fil25" d="M8923 14206c-1,0 -3,-1 -3,-2l-72 -98c-1,-2 0,-5 1,-6 2,-1 5,-1 6,1l72 98c1,2 1,5 -1,6 -1,1 -2,1 -3,1z"/>
   <path class="fil11" d="M8837 12937c123,-73 178,-194 178,-194l-58 -85c0,0 -206,-60 -259,85 -53,146 139,194 139,194z"/>
  </g>
  <polygon class="fil26" points="8203,11565 7918,11865 7918,11715 5340,11722 5345,11430 7918,11415 7918,11265 "/>
  <polygon class="fil27" points="11840,10750 12140,11035 11990,11035 11996,13613 11705,13608 11690,11035 11540,11035 "/>
  <polygon class="fil28" points="15675,10935 15390,10640 15390,10787 14175,10787 14168,13640 14466,13640 14460,11083 15390,11083 15390,11230 "/>
 </g>
</svg>
