<?xml version="1.0" encoding="UTF-8"?>
<!DOCTYPE svg PUBLIC "-//W3C//DTD SVG 1.1//EN" "http://www.w3.org/Graphics/SVG/1.1/DTD/svg11.dtd">
<!-- Creator: CorelDRAW X7 -->
<svg xmlns="http://www.w3.org/2000/svg" xml:space="preserve" width="200mm" height="200mm" version="1.1" style="shape-rendering:geometricPrecision; text-rendering:geometricPrecision; image-rendering:optimizeQuality; fill-rule:evenodd; clip-rule:evenodd"
viewBox="0 0 20000 20000"
 xmlns:xlink="http://www.w3.org/1999/xlink">
 <defs>
  <style type="text/css">
   <![CDATA[
    .str4 {stroke:#E1BF9D;stroke-width:1000}
    .str5 {stroke:#FEFEFE;stroke-width:250}
    .str8 {stroke:#009846;stroke-width:250}
    .str1 {stroke:#E1BF9D;stroke-width:20}
    .str0 {stroke:#009846;stroke-width:20}
    .str2 {stroke:#999694;stroke-width:20}
    .str7 {stroke:#34302F;stroke-width:7.62}
    .str3 {stroke:#FEFEFE;stroke-width:20;stroke-linejoin:round}
    .str6 {stroke:#2B2A29;stroke-width:20;stroke-linejoin:round}
    .fil4 {fill:none}
    .fil6 {fill:none;fill-rule:nonzero}
    .fil3 {fill:#FEFEFE}
    .fil5 {fill:#2B2A29}
    .fil7 {fill:#E32124}
    .fil1 {fill:#E1BF9D}
    .fil0 {fill:#009846}
    .fil8 {fill:#323B86}
    .fil9 {fill:#009846}
    .fil2 {fill:#999694}
    .fil10 {fill:#E31E24;fill-rule:nonzero}
   ]]>
  </style>
 </defs>
 <g id="Vrstva_x0020_1">
  <metadata id="CorelCorpID_0Corel-Layer"/>
  <rect class="fil0 str0" x="3" y="-4" width="19990" height="20000"/>
  <rect class="fil1 str1" x="3" y="3675" width="19979" height="2721"/>
  <rect class="fil1 str1" transform="matrix(6.32924E-015 -0.253381 0.892445 2.50605E-014 13255.4 20002.3)" width="21007" height="3781"/>
  <rect class="fil1 str1" x="3" y="13572" width="20000" height="3090"/>
  <rect class="fil1 str1" transform="matrix(5.42345E-015 -0.255204 0.764726 2.52407E-014 3589.2 19996.7)" width="21007" height="3781"/>
  <rect class="fil1 str1" transform="matrix(5.42345E-015 -0.250846 0.764726 2.48098E-014 3639.18 5260.32)" width="21007" height="3781"/>
  <rect class="fil1 str1" transform="matrix(6.32924E-015 -0.250244 0.892445 2.47502E-014 13025.6 5247.69)" width="21007" height="3781"/>
  <rect class="fil2 str2" x="3" y="6396" width="19990" height="7176"/>
  <rect class="fil2 str2" transform="matrix(-2.66316E-014 0.948042 -1.3037 -2.95837E-013 13721.5 -3.69256)" width="21096" height="5786"/>
  <rect class="fil3 str3" x="3509" y="9793" width="3566" height="236"/>
  <rect class="fil3 str3" x="12914" y="9793" width="3566" height="236"/>
  <rect class="fil3 str3" transform="matrix(4.49702E-015 -0.169886 1.33989 3.55046E-014 9490.24 7104.11)" width="20999" height="176"/>
  <rect class="fil3 str3" transform="matrix(4.49702E-015 -0.169886 1.33989 3.55046E-014 9507.75 16829.4)" width="20999" height="176"/>
  <g id="_2922103230400">
   <ellipse class="fil2 str2" cx="10001" cy="10201" rx="7177" ry="7180"/>
   <ellipse class="fil0 str4" cx="10001" cy="10201" rx="2670" ry="2671"/>
  </g>
  <path class="fil4 str5" d="M13184 4607c950,549 1745,1331 2310,2271"/>
  <path class="fil4 str5" d="M4407 6878c545,-908 1305,-1668 2213,-2213"/>
  <path class="fil4 str5" d="M6717 15814c-1116,-644 -2014,-1608 -2579,-2767"/>
  <path class="fil4 str5" d="M15763 13047c-565,1159 -1463,2123 -2579,2767"/>
  <rect class="fil3 str3" transform="matrix(-2.08753E-014 0.204309 -1.33989 -8.36142E-014 13368 15706)" width="20999" height="176"/>
  <rect class="fil3 str3" x="15671" y="12992" width="4322" height="236"/>
  <rect class="fil3 str3" x="15393" y="6699" width="4600" height="236"/>
  <rect class="fil3 str3" transform="matrix(-2.08753E-014 0.224738 -1.33989 -9.1975E-014 13368 -3.69002)" width="20999" height="176"/>
  <rect class="fil3 str3" transform="matrix(-2.08753E-014 0.204942 -1.33989 -8.38735E-014 6771.99 15692.7)" width="20999" height="176"/>
  <rect class="fil3 str3" x="3" y="12992" width="4239" height="236"/>
  <rect class="fil3 str3" transform="matrix(-2.08753E-014 0.226963 -1.33989 -9.28857E-014 6682.04 -3.69007)" width="20999" height="176"/>
  <rect class="fil3 str3" x="3" y="6699" width="4506" height="236"/>
  <rect class="fil3 str3" transform="matrix(6.92251E-015 -0.198992 1.33989 2.70163E-014 9849.84 19996.3)" width="20999" height="176"/>
  <rect class="fil3 str3" x="9850" y="15708" width="3267" height="439"/>
  <g id="_2922103225088">
   <path class="fil5 str6" d="M15085 19213c0,-567 0,-1135 0,-1702 0,-568 0,-1135 0,-1703l176 0 0 3405 -176 0z"/>
   <g>
    <polygon class="fil3" points="14932,14758 15210,14760 15488,14763 15683,14961 15878,15159 15875,15437 15873,15715 15675,15910 15477,16105 15199,16103 14921,16100 14726,15902 14531,15704 14534,15426 14536,15148 14734,14953 "/>
    <polygon id="1" class="fil6 str7" points="14932,14758 15210,14760 15488,14763 15683,14961 15878,15159 15875,15437 15873,15715 15675,15910 15477,16105 15199,16103 14921,16100 14726,15902 14531,15704 14534,15426 14536,15148 14734,14953 "/>
   </g>
   <path class="fil7" d="M15585 15427c12,-4 22,-11 22,-22l0 -117c0,-11 -10,-19 -22,-23l0 162zm0 508l0 -421c32,-2 50,-11 62,-22 16,-13 26,-48 26,-80l0 -135c0,-35 -3,-58 -22,-70 -16,-9 -38,-14 -66,-16l0 -263 244 245 0 517 -244 245zm-23 -673l0 169c8,0 16,-2 23,-4l0 -162c-7,-2 -15,-3 -23,-3l0 0zm23 -334l0 263c-7,0 -15,-1 -22,-1l-71 0 0 487 63 0 0 -162c11,0 21,0 30,-1l0 421 -121 122 -136 0 0 -377c32,-3 60,-7 71,-22 16,-19 26,-36 26,-65l0 -313c0,-60 -32,-91 -97,-94l0 -380 136 0 121 122zm-257 686l0 0c10,0 24,-5 24,-15l0 -332c0,-9 -14,-14 -24,-14l0 0 0 361zm0 -808l0 380c-4,0 -7,0 -11,0 -72,0 -86,29 -86,93l0 313c5,56 52,93 86,89l11 -1 0 377 -254 0 0 -365 28 0 0 -451 62 0 0 -51 -90 0 0 -384 254 0zm0 447c-11,0 -25,5 -25,14l0 332c0,10 14,14 25,15l0 -361zm-254 -447l0 384 -90 0 0 49 53 0 0 453 37 0 0 365 -129 0 -84 -84 0 -274c71,-1 79,-46 79,-110l0 -62c0,-22 3,-41 -8,-58l-57 -58c-6,-7 -11,-14 -14,-21l0 -123c12,-16 34,1 34,17l0 51 59 0 0 -43c0,-59 -19,-106 -90,-106l-3 0 0 -296 84 -84 129 0zm-213 812c4,-6 7,-15 7,-28l0 -54 -7 -18 0 100zm0 -728l0 296c-70,1 -78,46 -78,110l0 62c0,22 -3,41 7,58 11,17 19,18 58,61l13 41 0 100c-11,16 -33,-1 -33,-18l0 -51 -59 0 0 44c0,59 19,106 90,106l2 0 0 274 -281 -283 0 -517 281 -283zm0 377c-3,6 -6,15 -6,28l0 54c0,12 0,26 6,41l0 -123z"/>
   <g>
    <path class="fil6 str7" d="M15562 15262l0 169c21,0 45,-9 45,-26l0 -117c0,-17 -24,-26 -45,-26l0 0zm-234 -9c-11,0 -25,5 -25,14l0 332c0,10 14,15 25,15 10,0 24,-5 24,-15l0 -332c0,-9 -14,-14 -24,-14l0 0zm136 -447l-519 0 -365 367 0 517 365 367 519 0 365 -367 0 -517 -365 -367zm-233 473c0,-64 14,-93 86,-93 72,0 108,31 108,94l0 313c0,29 -10,46 -26,65 -12,17 -46,20 -82,23 -34,4 -81,-33 -86,-89l0 -313zm261 398l0 -487 71 0c39,0 69,6 88,17 19,12 22,35 22,70l0 135c0,32 -10,67 -26,80 -16,14 -40,24 -92,23l0 162 -63 0zm-508 -487l180 0 0 51 -62 0 0 451 -65 0 0 -453 -53 0 0 -49zm-30 102l0 43 -59 0 0 -51c0,-22 -40,-44 -40,11l0 54c0,17 -1,38 20,62l57 58c11,17 8,36 8,58l0 62c0,64 -8,110 -81,110 -71,0 -90,-47 -90,-106l0 -44 59 0 0 51c0,22 40,45 40,-10l0 -54 -20 -59c-39,-43 -47,-44 -58,-61 -10,-17 -7,-36 -7,-58l0 -62c0,-65 8,-110 81,-110 71,0 90,47 90,106z"/>
   </g>
   <g>
    <path class="fil8" d="M15173 17353c270,0 491,-221 491,-492 0,-270 -221,-491 -491,-491 -271,0 -492,221 -492,491 0,271 221,492 492,492z"/>
    <path class="fil3" d="M15457 16674l-116 223 0 15c8,4 26,6 35,3 54,-21 37,-38 58,-19 11,69 -20,134 -93,188l0 86c127,-79 167,-149 186,-278 4,-32 79,-2 94,-5 10,-3 -2,-30 -2,-30l-162 -183zm-116 -42l0 -82c13,7 27,15 41,24l-38 60 -3 -2zm0 265l-5 9c-1,2 1,4 5,6l0 -15zm0 187c-13,10 -26,19 -41,28l36 61 5 -3 0 -86zm0 -534l0 82c-99,-64 -184,-69 -250,-23 -7,28 0,5 43,45 9,8 17,39 9,39l-261 -5 91 -227c0,0 19,-22 26,-14 10,12 16,92 47,81 111,-36 187,-36 295,22l0 0zm-284 431c-4,-6 -24,19 -26,31 -7,58 16,50 -10,61 -77,-27 -124,-100 -129,-220l-71 4c10,154 53,222 160,299 26,19 -35,71 -39,86 -2,10 27,12 27,12l237 -58 -149 -215z"/>
   </g>
  </g>
  <g>
   <path class="fil4 str8" d="M6835 13503c-495,-299 -1584,-1465 -1835,-2003"/>
   <polygon class="fil9" points="7190,13719 6852,13686 6514,13654 6658,13395 6802,13136 6996,13428 "/>
  </g>
  <path class="fil10" d="M13130 14050l-285 -300 0 150 -1215 0 0 1350 285 0 0 -1050 930 0 0 150 285 -300zm-142 -150m-143 -75m-607 75m-608 675m143 675m142 -525m465 -525m465 75m143 -75z"/>
 </g>
</svg>
