<?xml version="1.0" encoding="UTF-8"?>
<!DOCTYPE svg PUBLIC "-//W3C//DTD SVG 1.1//EN" "http://www.w3.org/Graphics/SVG/1.1/DTD/svg11.dtd">
<!-- Creator: CorelDRAW X7 -->
<svg xmlns="http://www.w3.org/2000/svg" xml:space="preserve" width="210mm" height="297mm" version="1.1" style="shape-rendering:geometricPrecision; text-rendering:geometricPrecision; image-rendering:optimizeQuality; fill-rule:evenodd; clip-rule:evenodd"
viewBox="0 0 21000 29700"
 xmlns:xlink="http://www.w3.org/1999/xlink">
 <defs>
  <style type="text/css">
   <![CDATA[
    .str6 {stroke:#FEFEFE;stroke-width:20}
    .str1 {stroke:#E1BF9D;stroke-width:20}
    .str0 {stroke:#009846;stroke-width:20}
    .str2 {stroke:#999694;stroke-width:20}
    .str5 {stroke:#2B2A29;stroke-width:10}
    .str3 {stroke:#FEFEFE;stroke-width:20;stroke-linejoin:round}
    .str4 {stroke:#2B2A29;stroke-width:20;stroke-linejoin:round}
    .fil3 {fill:#FEFEFE}
    .fil5 {fill:#FEFEFE}
    .fil4 {fill:#2B2A29}
    .fil7 {fill:#E32124}
    .fil1 {fill:#E1BF9D}
    .fil6 {fill:#252422}
    .fil0 {fill:#009846}
    .fil2 {fill:#999694}
   ]]>
  </style>
 </defs>
 <g id="Vrstva_x0020_1">
  <metadata id="CorelCorpID_0Corel-Layer"/>
  <rect class="fil0 str0" x="-1" y="3502" width="20994" height="22221"/>
  <rect class="fil1 str1" x="36" y="8291" width="20951" height="2721"/>
  <rect class="fil1 str1" transform="matrix(6.33249E-015 -0.305966 0.892905 3.02614E-014 13755.4 25723.3)" width="21007" height="3781"/>
  <rect class="fil1 str1" x="38" y="18189" width="20951" height="3090"/>
  <rect class="fil1 str1" transform="matrix(5.42624E-015 -0.308586 0.76512 3.05205E-014 4084.15 25744.5)" width="21007" height="3781"/>
  <rect class="fil2 str2" x="27" y="11012" width="20967" height="7176"/>
  <rect class="fil2 str2" transform="matrix(-2.66454E-014 0.697331 -1.30437 -2.17603E-013 14221.7 11012.3)" width="21096" height="5786"/>
  <rect class="fil3 str3" x="4" y="17788" width="7135" height="236"/>
  <rect class="fil3 str3" transform="matrix(-2.08861E-014 0.377885 -1.34058 -1.54651E-013 7168.58 17788.1)" width="20999" height="176"/>
  <rect class="fil3 str3" x="13850" y="17788" width="7144" height="236"/>
  <rect class="fil3 str3" transform="matrix(-2.08861E-014 0.377885 -1.34058 -1.54651E-013 13927.9 17788.1)" width="20999" height="176"/>
  <rect class="fil3 str3" x="4" y="11256" width="20990" height="236"/>
  <rect class="fil3 str3" x="17279" y="14492" width="3714" height="236"/>
  <rect class="fil3 str3" x="12519" y="14492" width="3714" height="236"/>
  <rect class="fil3 str3" transform="matrix(4.68453E-015 -0.176878 1.34058 3.55046E-014 10251 20881.8)" width="20999" height="176"/>
  <rect class="fil3 str3" transform="matrix(4.68453E-015 -0.176878 1.34058 3.55046E-014 10251 25641.8)" width="20999" height="176"/>
  <g id="_2566379861888">
   <path class="fil4 str4" d="M17482 10311c0,-568 0,-1135 0,-1703 0,-567 0,-1135 0,-1702l180 0 0 3405 -180 0z"/>
   <polygon class="fil3 str5" points="17080,7565 18134,7236 18068,8280 17014,8608 "/>
   <polygon class="fil5 str3" points="17615,5447 18119,6282 18430,6794 17615,7117 16602,7399 17110,6282 "/>
   <g>
    <path class="fil6" d="M17690 8020c-7,-130 -25,-186 -204,-172l-323 18 6 149 269 -14c89,-15 99,21 98,103l13 242 158 -10 -17 -316z"/>
    <polygon class="fil6" points="17642,7796 17623,7444 17564,7447 17583,7799 "/>
   </g>
   <g>
    <path class="fil7" d="M16652 7522l858 -284 6 -141 -914 302 982 -1840 6 -141c-26,9 -53,23 -73,40l0 0c-32,28 -68,85 -87,121l-930 1735c-45,83 -63,208 21,228 31,7 94,-8 131,-20z"/>
    <path class="fil7" d="M17510 7238l857 -284c41,-13 97,-36 134,-68 44,-39 66,-95 69,-142 2,-38 -7,-76 -28,-107l-801 -1162c-17,-24 -49,-57 -79,-64l0 0c-19,-5 -45,-2 -72,7l-6 141 846 1235 -914 303 -6 141z"/>
   </g>
   <polygon class="fil6" points="17476,6540 17498,6878 17499,6895 17517,6876 17607,6782 17710,6864 17730,6880 17729,6863 17707,6525 17936,6510 17929,6395 17699,6410 17683,6157 17561,6054 17452,6172 17469,6425 17239,6440 17247,6555 "/>
  </g>
  <g id="_2566379859840">
   <path class="fil4 str4" d="M15622 20016c0,-568 0,-1135 0,-1703 0,-567 0,-1135 0,-1702l177 0 0 3405 -177 0z"/>
   <g>
    <polygon class="fil5 str3" points="15745,15316 16239,16151 16653,16942 15745,16986 14804,16910 15252,16151 "/>
    <path class="fil7" d="M15736 17016l796 0c37,0 88,-5 122,-24 40,-23 59,-70 59,-115 1,-36 -9,-76 -31,-113l-802 -1382c-16,-28 -48,-71 -77,-87l0 0c-18,-11 -43,-16 -67,-16l0 134 847 1468 -847 0 0 135zm-796 0l796 0 0 -135 -847 0 847 -1468 0 -134c-25,-1 -50,5 -68,15l0 0c-28,17 -60,60 -77,89l-802 1382c-39,67 -51,181 29,227 29,18 88,24 122,24z"/>
    <polygon class="fil6" points="15623,16373 15623,16712 15623,16730 15642,16712 15735,16623 15830,16712 15849,16730 15849,16712 15849,16373 16073,16373 16073,16258 15849,16258 15849,16005 15737,15895 15623,16005 15623,16258 15398,16258 15398,16373 "/>
   </g>
   <g>
    <rect class="fil3 str6" x="15251" y="17274" width="996" height="1000"/>
    <g>
     <path class="fil6" d="M15744 17258l512 0 0 1025 -512 0 0 -9 503 0 0 -1007 -503 0 0 -9zm-513 0l513 0 0 9 -504 0 0 1007 504 0 0 9 -513 0 0 -1025z"/>
     <path class="fil6" d="M15876 17724c-132,0 -190,15 -185,191l0 320 151 1 0 -265c-10,-89 27,-97 110,-91l244 0 -2 -156 -318 0z"/>
     <polygon class="fil6" points="15647,17759 15291,17759 15291,17818 15647,17818 "/>
    </g>
   </g>
  </g>
  <rect class="fil5 str6" x="3178" y="15578" width="340" height="2199"/>
  <rect class="fil5 str6" transform="matrix(-2.22368E-013 -1.48359 0.939468 -4.46751E-014 26.24 15750.4)" width="116" height="3355"/>
 </g>
</svg>
