<?xml version="1.0" encoding="UTF-8"?>
<!DOCTYPE svg PUBLIC "-//W3C//DTD SVG 1.1//EN" "http://www.w3.org/Graphics/SVG/1.1/DTD/svg11.dtd">
<!-- Creator: CorelDRAW X7 -->
<svg xmlns="http://www.w3.org/2000/svg" xml:space="preserve" width="200mm" height="200mm" version="1.1" style="shape-rendering:geometricPrecision; text-rendering:geometricPrecision; image-rendering:optimizeQuality; fill-rule:evenodd; clip-rule:evenodd"
viewBox="0 0 20000 20000"
 xmlns:xlink="http://www.w3.org/1999/xlink"
 xmlns:dc="http://purl.org/dc/elements/1.1/"
 xmlns:cc="http://creativecommons.org/ns#"
 xmlns:rdf="http://www.w3.org/1999/02/22-rdf-syntax-ns#"
 xmlns:svg="http://www.w3.org/2000/svg"
 xmlns:sodipodi="http://sodipodi.sourceforge.net/DTD/sodipodi-0.dtd"
 xmlns:inkscape="http://www.inkscape.org/namespaces/inkscape"
 inkscape:version="0.92.4 (5da689c313, 2019-01-14)"
 sodipodi:docname="krizovatka2.svg">
 <defs>
  <style type="text/css">
   <![CDATA[
    .str2 {stroke:#2B2A29;stroke-width:25}
    .str1 {stroke:#2B2A29;stroke-width:20}
    .str0 {stroke:#34302F;stroke-width:7.62}
    .fil6 {fill:none}
    .fil1 {fill:black}
    .fil3 {fill:#009846}
    .fil5 {fill:#252422}
    .fil7 {fill:#34302F}
    .fil0 {fill:#999694}
    .fil4 {fill:#B3B3B3}
    .fil9 {fill:#E32124}
    .fil8 {fill:#F9E805}
    .fil2 {fill:#FEFEFE}
   ]]>
  </style>
 </defs>
 <g id="Vrstva_x0020_1">
  <metadata id="CorelCorpID_0Corel-Layer"/>
  <sodipodi:namedview id="base" pagecolor="#ffffff" bordercolor="#666666" borderopacity="1.0" inkscape:pageopacity="0.0" inkscape:pageshadow="2" inkscape:zoom="0.49497475" inkscape:cx="605.69473" inkscape:cy="618.26729" inkscape:document-units="mm" inkscape:current-layer="layer1" showgrid="false" inkscape:window-width="960" inkscape:window-height="1001" inkscape:window-x="-9" inkscape:window-y="-9" inkscape:window-maximized="0"/>
  <sodipodi:namedview id="base" pagecolor="#ffffff" bordercolor="#666666" borderopacity="1.0" inkscape:pageopacity="0.0" inkscape:pageshadow="2" inkscape:zoom="0.49497475" inkscape:cx="661.57023" inkscape:cy="368.01998" inkscape:document-units="mm" inkscape:current-layer="layer1" showgrid="false" inkscape:window-width="958" inkscape:window-height="991" inkscape:window-x="-8" inkscape:window-y="0" inkscape:window-maximized="0"/>
  <rect id="rect817" class="fil0" y="4638" width="19991" height="9508"/>
  <sodipodi:namedview id="base" pagecolor="#ffffff" bordercolor="#666666" borderopacity="1.0" inkscape:pageopacity="0.0" inkscape:pageshadow="2" inkscape:zoom="0.49497475" inkscape:cx="605.69473" inkscape:cy="618.26729" inkscape:document-units="mm" inkscape:current-layer="layer1" showgrid="false" inkscape:window-width="960" inkscape:window-height="1001" inkscape:window-x="-9" inkscape:window-y="-9" inkscape:window-maximized="0"/>
  <sodipodi:namedview id="base" pagecolor="#ffffff" bordercolor="#666666" borderopacity="1.0" inkscape:pageopacity="0.0" inkscape:pageshadow="2" inkscape:zoom="0.49497475" inkscape:cx="661.57023" inkscape:cy="368.01998" inkscape:document-units="mm" inkscape:current-layer="layer1" showgrid="false" inkscape:window-width="958" inkscape:window-height="991" inkscape:window-x="-8" inkscape:window-y="0" inkscape:window-maximized="0"/>
  <rect id="rect819" class="fil0" x="6841" y="-9" width="6613" height="19999"/>
  <rect id="rect821" class="fil1" y="4638" width="6850" height="229"/>
  <rect id="rect821-8" class="fil1" y="14113" width="6850" height="229"/>
  <rect id="rect821-8-1" class="fil1" x="13446" y="14138" width="6546" height="218"/>
  <rect id="rect821-8-1-0" class="fil1" x="13454" y="4642" width="6546" height="218"/>
  <rect id="rect821-83" class="fil1" transform="matrix(1.76028E-014 -1 1 3.98072E-014 6849.84 4866.56)" width="4869" height="152"/>
  <rect id="rect821-83-7" class="fil1" transform="matrix(1.76028E-014 -1 1 3.98072E-014 13302.2 4860.58)" width="4869" height="152"/>
  <rect id="rect821-83-2" class="fil1" transform="matrix(1.3828E-014 -1 1 5.06874E-014 6697.81 19976.7)" width="5864" height="152"/>
  <rect id="rect821-83-2-0" class="fil1" transform="matrix(1.405E-014 -1 1 4.97992E-014 13445.5 19990)" width="5772" height="152"/>
  <rect id="rect928" class="fil1" x="6" y="8194" width="19978" height="158"/>
  <rect id="rect928-4" class="fil1" x="2" y="11010" width="19982" height="158"/>
  <g id="_2406570216736">
   <rect id="rect945" class="fil2" x="9928" y="-10" width="469" height="737"/>
   <rect id="rect945-4" class="fil2" x="9932" y="1343" width="469" height="1409"/>
   <rect id="rect945-8" class="fil2" x="9939" y="3419" width="469" height="1409"/>
   <g id="g992">
    <rect id="rect945-1" class="fil2" x="9930" y="18522" width="469" height="737"/>
    <rect id="rect945-4-6" class="fil2" x="9925" y="16496" width="469" height="1409"/>
    <rect id="rect945-8-8" class="fil2" x="9919" y="14420" width="469" height="1409"/>
   </g>
  </g>
  <rect id="rect1796" class="fil3" x="25" y="-1" width="6824" height="4639"/>
  <rect id="rect1798" class="fil3" x="13454" y="-9" width="6537" height="4647"/>
  <rect id="rect1804" class="fil3" x="13598" y="14337" width="6368" height="5653"/>
  <rect id="rect1806" class="fil3" y="14311" width="6698" height="5666"/>
  <g id="_2406570212864">
   <rect id="rect4121-9-2-5-4-2" class="fil4" x="14944" y="1834" width="76.96" height="2221.7"/>
   <g>
    <polygon class="fil2" points="15006,504 15370,820 15733,1135 15364,1816 14995,2497 14631,2181 14268,1866 14637,1185 "/>
    <path class="fil5" d="M14996 552c6,-3 12,-3 16,1l694 569c9,7 9,26 0,42l-705 1267c-4,8 -10,13 -16,16l0 42c14,-7 28,-20 39,-40l705 -1267c21,-38 21,-84 0,-101l-694 -570c-10,-8 -24,-8 -38,-1l-1 42zm-721 1283l705 -1266c5,-8 11,-14 16,-17l1 -42c-14,7 -28,21 -39,40l-705 1267c-22,39 -22,84 -1,101l694 570c11,8 25,8 39,2l0 -43c-6,3 -11,3 -16,0l-694 -570c-8,-7 -8,-26 0,-42z"/>
    <g>
     <path class="fil6 str0" d="M14275 1835l705 -1266c9,-16 24,-23 32,-16l694 569c9,7 9,26 0,42l-705 1267c-9,16 -23,23 -32,16l-694 -570c-8,-7 -8,-26 0,-42l0 0zm-22 -18l705 -1267c21,-39 56,-56 77,-39l694 570c21,17 21,63 0,101l-705 1267c-22,39 -57,56 -78,39l-694 -570c-21,-17 -21,-62 1,-101z"/>
    </g>
    <path class="fil7" d="M14994 929l432 354 -439 787 1 -32 206 -372 207 -371 -204 -167 -203 -166 0 -33zm-7 1141l-431 -354 438 -787 0 33 -207 371 -206 371 203 167 204 167 -1 32z"/>
    <g>
     <path class="fil6 str0" d="M14994 929l432 354 -439 787 -431 -354 438 -787zm0 33l203 166 204 167 -207 371 -206 372 -204 -167 -203 -167 206 -371 207 -371z"/>
    </g>
    <g>
     <polygon class="fil8" points="15197,1128 14994,962 14787,1333 14581,1704 14784,1871 14988,2038 15194,1666 15401,1295 "/>
     <polygon id="_1" class="fil6 str0" points="15197,1128 14994,962 14787,1333 14581,1704 14784,1871 14988,2038 15194,1666 15401,1295 "/>
    </g>
   </g>
  </g>
  <g id="_1748639140288">
   <rect id="rect4121-4" class="fil4" x="14424" y="14795" width="67.61" height="2681.81"/>
   <g>
    <polygon class="fil2" points="14455,15236 14047,14451 13651,13701 14458,13701 15262,13701 14868,14451 "/>
    <path class="fil9" d="M14460 15251l10 0 807 -1535 -15 -30 -802 0 0 15 781 0 21 0 -11 20 -786 1495 -5 10 0 25zm0 -145l0 -373 402 -772 -402 0 0 -200 697 0 -697 1345zm-817 -1390l796 1535 21 0 0 -25 -5 10 -11 -20 -775 -1495 -11 -20 21 0 781 0 0 -15 -802 0 -15 30zm817 45l0 200 -402 0 400 776 2 -4 0 373 -4 7 -693 -1352 697 0z"/>
    <path class="fil9" d="M15160 13761l-698 0 0 200 402 0 -402 773 0 373 698 -1346zm-296 200l-402 0 400 0 2 0 -402 773 402 -773zm-402 -200l-697 0 694 1353 3 -7 0 -373 -1 3 -400 -776 401 0 0 -200zm0 200l-401 0 398 773 2 3 1 -3 -1 3 -400 -776 401 0z"/>
   </g>
  </g>
  <polygon class="fil2 str1" points="5780,2096 5373,1311 4976,560 5784,560 6587,560 6194,1311 "/>
  <rect id="rect4121-4_0" class="fil4" x="5750" y="997" width="67.61" height="3339.66"/>
  <g id="_1748639137888">
   <polygon class="fil2 str2" points="5223,13606 5599,13891 5975,14177 5613,14869 5252,15562 4876,15276 4500,14991 4861,14298 "/>
   <rect id="rect4121-9-2-5-4-2_1" class="fil4" x="5228" y="14405" width="76.96" height="2923.81"/>
  </g>
 </g>
</svg>
