<?xml version="1.0" encoding="UTF-8"?>
<!DOCTYPE svg PUBLIC "-//W3C//DTD SVG 1.1//EN" "http://www.w3.org/Graphics/SVG/1.1/DTD/svg11.dtd">
<!-- Creator: CorelDRAW X7 -->
<svg xmlns="http://www.w3.org/2000/svg" xml:space="preserve" width="200mm" height="200mm" version="1.1" style="shape-rendering:geometricPrecision; text-rendering:geometricPrecision; image-rendering:optimizeQuality; fill-rule:evenodd; clip-rule:evenodd"
viewBox="0 0 20000 20000"
 xmlns:xlink="http://www.w3.org/1999/xlink"
 xmlns:dc="http://purl.org/dc/elements/1.1/"
 xmlns:cc="http://creativecommons.org/ns#"
 xmlns:rdf="http://www.w3.org/1999/02/22-rdf-syntax-ns#"
 xmlns:svg="http://www.w3.org/2000/svg"
 xmlns:sodipodi="http://sodipodi.sourceforge.net/DTD/sodipodi-0.dtd"
 xmlns:inkscape="http://www.inkscape.org/namespaces/inkscape"
 inkscape:version="0.92.4 (5da689c313, 2019-01-14)"
 sodipodi:docname="krizovatka1.svg">
 <defs>
  <style type="text/css">
   <![CDATA[
    .str0 {stroke:#34302F;stroke-width:7.62}
    .fil3 {fill:none}
    .fil5 {fill:black}
    .fil0 {fill:#009846}
    .fil2 {fill:#252422}
    .fil8 {fill:#34302F}
    .fil4 {fill:#999694}
    .fil6 {fill:#B3B3B3}
    .fil7 {fill:#E32124}
    .fil9 {fill:#F9E805}
    .fil1 {fill:#FEFEFE}
   ]]>
  </style>
 </defs>
 <g id="Vrstva_x0020_1">
  <metadata id="CorelCorpID_0Corel-Layer"/>
  <sodipodi:namedview id="base" pagecolor="#ffffff" bordercolor="#666666" borderopacity="1.0" inkscape:pageopacity="0.0" inkscape:pageshadow="2" inkscape:zoom="0.49497475" inkscape:cx="605.69473" inkscape:cy="618.26729" inkscape:document-units="mm" inkscape:current-layer="layer1" showgrid="false" inkscape:window-width="960" inkscape:window-height="1001" inkscape:window-x="-9" inkscape:window-y="-9" inkscape:window-maximized="0"/>
  <sodipodi:namedview id="base" pagecolor="#ffffff" bordercolor="#666666" borderopacity="1.0" inkscape:pageopacity="0.0" inkscape:pageshadow="2" inkscape:zoom="0.49497475" inkscape:cx="605.69473" inkscape:cy="618.26729" inkscape:document-units="mm" inkscape:current-layer="layer1" showgrid="false" inkscape:window-width="960" inkscape:window-height="1001" inkscape:window-x="-9" inkscape:window-y="-9" inkscape:window-maximized="0"/>
  <g id="_2406562863312">
   <rect id="rect1834" class="fil0" x="10" y="13" width="3455" height="19931"/>
   <polygon class="fil1" points="2077,2884 2578,3452 3079,4020 2578,4588 2077,5156 1576,4588 1075,4020 1576,3452 "/>
   <path class="fil2" d="M2064 2933c8,0 16,3 22,10l957 1047c12,13 12,34 0,47l-957 1047c-6,7 -14,10 -22,10l0 48c19,0 38,-7 53,-23l957 -1048c29,-31 29,-83 0,-115l-957 -1047c-15,-16 -34,-24 -53,-24l0 48zm-979 1057l957 -1047c6,-7 14,-10 22,-10l0 -48c-19,0 -38,8 -53,24l-957 1047c-29,32 -29,84 0,116l957 1047c15,16 34,23 53,23l0 -48c-8,0 -16,-3 -22,-10l-957 -1047c-12,-13 -12,-34 0,-47z"/>
   <g>
    <path class="fil3 str0" d="M1085 3990l957 -1047c12,-13 32,-13 44,0l957 1047c12,13 12,34 0,47l-957 1047c-12,14 -32,14 -44,0l-957 -1047c-12,-13 -12,-34 0,-47l0 0zm-31 -34l957 -1047c29,-32 77,-32 106,0l957 1047c29,32 29,84 0,116l-957 1047c-29,31 -77,31 -106,0l-957 -1048c-29,-31 -29,-83 0,-115z"/>
   </g>
   <rect id="rect1840" class="fil0" x="12338" y="14914" width="7669" height="5026"/>
   <rect id="rect1836" class="fil0" x="12171" y="15" width="7839" height="6610"/>
   <rect id="rect42-94" class="fil4" x="3645" y="15" width="8516" height="19929"/>
   <rect id="rect74-7" class="fil5" x="3465" y="14" width="180" height="19935"/>
   <rect id="rect106-2" class="fil1" x="7798" y="57" width="573" height="1953"/>
   <rect id="rect106-7-1" class="fil1" x="7806" y="2695" width="573" height="1953"/>
   <rect id="rect106-9-8" class="fil1" x="7807" y="5300" width="573" height="1953"/>
   <rect id="rect106-3-1" class="fil1" x="7798" y="7925" width="573" height="1953"/>
   <rect id="rect106-0-8" class="fil1" x="7796" y="10636" width="573" height="1953"/>
   <rect id="rect106-1-1" class="fil1" x="7816" y="13392" width="573" height="1953"/>
   <rect id="rect106-5-6" class="fil1" x="7807" y="16145" width="573" height="1953"/>
   <rect id="rect106-4-2" class="fil1" x="7798" y="18879" width="573" height="1134"/>
   <rect id="rect42-94-7-3" class="fil4" transform="matrix(1.62705E-014 -1 1 4.29158E-014 11472.3 14749.9)" width="9316" height="8535"/>
   <rect id="rect74-9-2-5-0" class="fil5" x="11991" y="15" width="180" height="5599"/>
   <rect id="rect74-9-2-5-0-7" class="fil5" x="12161" y="14899" width="180" height="5045"/>
   <rect id="rect74-9-2-5-6" class="fil5" transform="matrix(1.49382E-014 -1 1 4.69126E-014 12161.2 14947.2)" width="197" height="7847"/>
   <rect id="rect74-9-2-5-6-7" class="fil5" transform="matrix(1.51603E-014 -1 1 4.62465E-014 11981.2 5613.99)" width="197" height="8027"/>
   <rect id="rect106-0-8-5-5" class="fil1" transform="matrix(2.42641E-014 -1 1 2.8927E-014 15520.7 10358)" width="627" height="1785"/>
   <rect id="rect106-1-1-8-6" class="fil1" transform="matrix(2.42641E-014 -1 1 2.8927E-014 18040.3 10336.6)" width="627" height="1785"/>
   <rect id="rect106-3-1-5-6" class="fil1" transform="matrix(2.42641E-014 -1 1 2.8927E-014 12747.8 10366)" width="627" height="1785"/>
   <rect id="rect4121-4" class="fil6" x="13453" y="2260" width="105" height="2541"/>
   <g id="_2406562864112">
    <polygon class="fil1" points="13543,2843 13818,1742 14093,640 13368,1262 12659,1869 13093,2363 "/>
    <path class="fil7" d="M13553 2841l8 -7 545 -2185 -16 -20 -715 612 2 16 696 -596 18 -16 -7 28 -531 2129 -3 13 3 26zm-17 -148l-42 -381 271 -1096 -359 307 -22 -205 621 -532 -469 1907zm-885 -798l883 962 19 -16 -3 -26 -4 15 -11 -13 -861 -936 -11 -13 18 -15 696 -596 -2 -16 -714 612 -10 42zm733 -577l22 205 -358 306 445 488 1 -5 42 381 -2 10 -772 -853 622 -532z"/>
    <path class="fil7" d="M14007 784l-621 532 23 205 358 -307 -271 1096 43 382 468 -1908zm-240 430l-358 307 355 -305 3 -2 -271 1096 271 -1096zm-381 102l-621 533 771 853 3 -10 -43 -382 -1 5 -444 -487 358 -307 -23 -205zm23 205l-358 307 443 485 1 2 1 -5 -1 5 -444 -487 358 -307z"/>
   </g>
   <g id="_2406562863024">
    <rect id="rect4121-9-2-5-4-2" class="fil6" x="13631" y="16233" width="96.28" height="2779.27"/>
    <g>
     <polygon class="fil1" points="13704,14329 14205,14897 14706,15465 14205,16033 13704,16601 13203,16033 12702,15465 13203,14897 "/>
     <path class="fil2" d="M13691 14377c8,0 16,4 22,10l957 1047c12,13 12,35 0,48l-957 1047c-6,7 -14,10 -22,10l0 48c19,0 38,-8 53,-24l957 -1047c29,-32 29,-84 0,-116l-957 -1047c-15,-16 -34,-24 -53,-24l0 48zm-979 1057l957 -1047c6,-6 14,-10 22,-10l0 -48c-19,0 -38,8 -53,24l-957 1047c-29,32 -29,84 0,116l957 1047c15,16 34,24 53,24l0 -48c-8,0 -16,-3 -22,-10l-957 -1047c-12,-13 -12,-35 0,-48z"/>
     <g>
      <path class="fil3 str0" d="M12712 15434l957 -1047c12,-13 32,-13 44,0l957 1047c12,13 12,35 0,48l-957 1047c-12,13 -32,13 -44,0l-957 -1047c-12,-13 -12,-35 0,-48l0 0zm-31 -34l957 -1047c29,-32 77,-32 106,0l957 1047c29,32 29,84 0,116l-957 1047c-29,32 -77,32 -106,0l-957 -1047c-29,-32 -29,-84 0,-116z"/>
     </g>
     <path class="fil8" d="M13691 14807l595 651 -595 651 0 -37 281 -307 280 -307 -280 -307 -281 -306 0 -38zm0 1302l-595 -651 595 -651 0 38 -280 306 -281 307 281 307 280 307 0 37z"/>
     <g>
      <path class="fil3 str0" d="M13691 14807l595 651 -595 651 -595 -651 595 -651zm0 38l281 306 280 307 -280 307 -281 307 -280 -307 -281 -307 281 -307 280 -306z"/>
     </g>
     <g>
      <polygon class="fil9" points="13972,15151 13691,14845 13411,15151 13130,15458 13411,15765 13691,16072 13972,15765 14252,15458 "/>
      <polygon id="_1" class="fil3 str0" points="13972,15151 13691,14845 13411,15151 13130,15458 13411,15765 13691,16072 13972,15765 14252,15458 "/>
     </g>
    </g>
   </g>
   <rect id="rect4121-9-2-5-4-2_0" class="fil6" x="2003" y="4014" width="96.28" height="3554.57"/>
  </g>
 </g>
</svg>
