<?xml version="1.0" encoding="UTF-8"?>
<!DOCTYPE svg PUBLIC "-//W3C//DTD SVG 1.1//EN" "http://www.w3.org/Graphics/SVG/1.1/DTD/svg11.dtd">
<!-- Creator: CorelDRAW X7 -->
<svg xmlns="http://www.w3.org/2000/svg" xml:space="preserve" width="200mm" height="200mm" version="1.1" style="shape-rendering:geometricPrecision; text-rendering:geometricPrecision; image-rendering:optimizeQuality; fill-rule:evenodd; clip-rule:evenodd"
viewBox="0 0 20000 20000"
 xmlns:xlink="http://www.w3.org/1999/xlink"
 xmlns:osb="http://www.openswatchbook.org/uri/2009/osb"
 xmlns:dc="http://purl.org/dc/elements/1.1/"
 xmlns:cc="http://creativecommons.org/ns#"
 xmlns:rdf="http://www.w3.org/1999/02/22-rdf-syntax-ns#"
 xmlns:svg="http://www.w3.org/2000/svg"
 xmlns:sodipodi="http://sodipodi.sourceforge.net/DTD/sodipodi-0.dtd"
 xmlns:inkscape="http://www.inkscape.org/namespaces/inkscape"
 inkscape:version="0.92.4 (5da689c313, 2019-01-14)"
 sodipodi:docname="krizovatka3.svg">
 <defs>
  <style type="text/css">
   <![CDATA[
    .str3 {stroke:#2B2A29;stroke-width:3.8}
    .str1 {stroke:#2B2A29;stroke-width:3.84}
    .str2 {stroke:#55D400;stroke-width:50}
    .str4 {stroke:red;stroke-width:50}
    .str0 {stroke:#E1BF9D;stroke-width:20}
    .fil8 {fill:none}
    .fil4 {fill:black}
    .fil0 {fill:#009846}
    .fil10 {fill:#338000}
    .fil7 {fill:#55D400}
    .fil5 {fill:maroon}
    .fil2 {fill:#999694}
    .fil6 {fill:#AA8800}
    .fil1 {fill:#E1BF9D}
    .fil3 {fill:#FEFEFE}
    .fil9 {fill:red}
   ]]>
  </style>
 </defs>
 <g id="Vrstva_x0020_1">
  <metadata id="CorelCorpID_0Corel-Layer"/>
  <sodipodi:namedview id="base" pagecolor="#ffffff" bordercolor="#666666" borderopacity="1.0" inkscape:pageopacity="0.0" inkscape:pageshadow="2" inkscape:zoom="0.49497475" inkscape:cx="605.69473" inkscape:cy="618.26729" inkscape:document-units="mm" inkscape:current-layer="layer1" showgrid="false" inkscape:window-width="960" inkscape:window-height="1001" inkscape:window-x="-9" inkscape:window-y="-9" inkscape:window-maximized="0"/>
  <sodipodi:namedview id="base" pagecolor="#ffffff" bordercolor="#666666" borderopacity="1.0" inkscape:pageopacity="0.0" inkscape:pageshadow="2" inkscape:zoom="0.49497475" inkscape:cx="661.57023" inkscape:cy="368.01998" inkscape:document-units="mm" inkscape:current-layer="layer1" showgrid="false" inkscape:window-width="958" inkscape:window-height="991" inkscape:window-x="-8" inkscape:window-y="0" inkscape:window-maximized="0"/>
  <sodipodi:namedview id="base" pagecolor="#ffffff" bordercolor="#666666" borderopacity="1.0" inkscape:pageopacity="0.0" inkscape:pageshadow="2" inkscape:zoom="0.49497475" inkscape:cx="686.24111" inkscape:cy="629.46196" inkscape:document-units="mm" inkscape:current-layer="layer1" showgrid="false" inkscape:window-width="960" inkscape:window-height="1001" inkscape:window-x="-9" inkscape:window-y="-9" inkscape:window-maximized="0" showguides="false"/>
  <sodipodi:namedview id="base" pagecolor="#ffffff" bordercolor="#666666" borderopacity="1.0" inkscape:pageopacity="0.0" inkscape:pageshadow="2" inkscape:zoom="0.49497475" inkscape:cx="605.69473" inkscape:cy="618.26729" inkscape:document-units="mm" inkscape:current-layer="layer1" showgrid="false" inkscape:window-width="960" inkscape:window-height="1001" inkscape:window-x="-9" inkscape:window-y="-9" inkscape:window-maximized="0"/>
  <sodipodi:namedview id="base" pagecolor="#ffffff" bordercolor="#666666" borderopacity="1.0" inkscape:pageopacity="0.0" inkscape:pageshadow="2" inkscape:zoom="0.49497475" inkscape:cx="661.57023" inkscape:cy="368.01998" inkscape:document-units="mm" inkscape:current-layer="layer1" showgrid="false" inkscape:window-width="958" inkscape:window-height="991" inkscape:window-x="-8" inkscape:window-y="0" inkscape:window-maximized="0"/>
  <sodipodi:namedview id="base" pagecolor="#ffffff" bordercolor="#666666" borderopacity="1.0" inkscape:pageopacity="0.0" inkscape:pageshadow="2" inkscape:zoom="0.49497475" inkscape:cx="686.24111" inkscape:cy="629.46196" inkscape:document-units="mm" inkscape:current-layer="layer1" showgrid="false" inkscape:window-width="960" inkscape:window-height="1001" inkscape:window-x="-9" inkscape:window-y="-9" inkscape:window-maximized="0" showguides="false"/>
  <rect id="rect1753" class="fil0" x="9" y="16" width="5493" height="6560"/>
  <rect class="fil1 str0" x="9" y="4230" width="5288" height="2168"/>
  <rect class="fil1 str0" transform="matrix(1.19521E-013 1 -1 1.51274E-013 5295.97 15.44)" width="6389" height="2391"/>
  <rect id="rect1759" class="fil0" x="14103" y="15" width="5879" height="6382"/>
  <rect class="fil1 str0" transform="matrix(6.73407E-014 1 -1 9.88711E-014 16322.3 15.28)" width="6386" height="2168"/>
  <rect class="fil1 str0" x="14148" y="4011" width="5829" height="2391"/>
  <rect id="rect1755" class="fil0" y="14990" width="5818" height="4992"/>
  <g id="_2394366138448">
   <rect class="fil1 str0" transform="matrix(2.51523E-014 1 -1 3.24797E-014 5340.1 14933.6)" width="5045" height="1987"/>
   <rect class="fil1 str0" y="14934" width="5387" height="2137"/>
  </g>
  <rect id="rect1757" class="fil0" x="14046" y="14955" width="5952" height="5001"/>
  <g id="_2394366135984">
   <rect class="fil1 str0" transform="matrix(2.71507E-014 -1 1 3.00373E-014 14253.9 19978.2)" width="5045" height="2137"/>
   <rect class="fil1 str0" x="14204" y="14934" width="5793" height="2137"/>
  </g>
  <rect id="rect42" class="fil2" x="5313" y="15" width="8919" height="19967"/>
  <rect id="rect106" class="fil3" x="9851" y="49" width="600" height="1764"/>
  <rect id="rect106-7" class="fil3" x="9859" y="2432" width="600" height="1764"/>
  <rect id="rect106-9" class="fil3" x="9860" y="4785" width="600" height="1764"/>
  <rect id="rect106-4" class="fil3" x="9850" y="17050" width="600" height="1764"/>
  <rect id="rect106-39" class="fil3" x="9851" y="19392" width="600" height="623"/>
  <rect id="rect42-8" class="fil2" transform="matrix(1.8713E-014 1 -1 3.73647E-014 19997 6397.49)" width="8415" height="19997"/>
  <rect id="rect106-3-1-9" class="fil3" transform="matrix(2.80389E-014 -1 1 2.49302E-014 147.443 10714.1)" width="566" height="1870"/>
  <rect id="rect106-7-1-1-8" class="fil3" transform="matrix(-2.81384E-014 1 -1 -2.50298E-014 19912.8 10175.5)" width="566" height="1870"/>
  <rect id="rect106-4-0" class="fil3" x="9850" y="14358" width="600" height="1764"/>
  <rect id="rect106-4-4" class="fil3" transform="matrix(2.80389E-014 -1 1 2.49302E-014 15330.8 10780.9)" width="566" height="1870"/>
  <rect id="rect106-4-42" class="fil3" transform="matrix(2.80389E-014 -1 1 2.49302E-014 2821.53 10638.3)" width="566" height="1870"/>
  <rect id="rect74-9-2-7" class="fil4" transform="matrix(1.53823E-014 -1 1 4.53583E-014 8.30664 6575.75)" width="178" height="5493"/>
  <rect id="rect74-9-2-7-9" class="fil4" transform="matrix(1.53823E-014 -1 1 4.55804E-014 -0.531368 14990.3)" width="178" height="5483"/>
  <rect id="rect74-9-2-7-5" class="fil4" transform="matrix(1.51603E-014 -1 1 4.62465E-014 14045.5 14954.6)" width="178" height="5954"/>
  <rect id="rect74-9-2-7-5-3" class="fil4" transform="matrix(1.51603E-014 -1 1 4.60245E-014 14042.7 6575.75)" width="178" height="5939"/>
  <rect id="rect74-9-2-7-5-1" class="fil4" x="14043" y="15" width="189" height="6536"/>
  <rect id="rect74-9-2-7-5-1-2" class="fil4" x="5313" y="15" width="189" height="6536"/>
  <rect id="rect74-9-2-7-5-1-2-6" class="fil4" x="14043" y="14782" width="189" height="5200"/>
  <rect id="rect74-9-2-7-5-1-2-6-9" class="fil4" x="5337" y="14818" width="189" height="5200"/>
  <g id="_1748598665712">
   <rect id="rect2421" class="fil4" x="14652" y="15238" width="1379" height="2540"/>
   <circle id="path2423" class="fil5" cx="15334" cy="15688" r="350"/>
   <circle id="path2423-7" class="fil6" cx="15329" cy="16485" r="350"/>
   <circle id="path2423-2" class="fil7" cx="15339" cy="17292" r="350"/>
   <rect id="rect3261" class="fil4 str1" x="15246" y="17767" width="292" height="618"/>
   <g id="_2394366122640">
    <ellipse class="fil8 str2" transform="matrix(-1.24253E-013 -1.52729 1.56237 -1.21463E-013 15342.3 17300.3)" rx="392" ry="384"/>
    <ellipse class="fil8 str2" transform="matrix(-1.59754E-013 -1.96364 2.00878 -1.56165E-013 15327.3 17294)" rx="392" ry="384"/>
    <ellipse class="fil8 str2" transform="matrix(-8.87524E-014 -1.0909 1.11599 -8.67568E-014 15342.3 17298.3)" rx="392" ry="384"/>
   </g>
  </g>
  <g id="_2394366123920">
   <ellipse class="fil8 str2" transform="matrix(-1.68274E-013 -2.0684 2.11592 -1.64496E-013 3975 4860.53)" rx="392" ry="384"/>
   <ellipse class="fil8 str2" transform="matrix(-2.16354E-013 -2.65934 2.72047 -2.11493E-013 3954.59 4851.95)" rx="392" ry="384"/>
   <ellipse class="fil8 str2" transform="matrix(-1.20197E-013 -1.47739 1.51138 -1.17494E-013 3975 4857.75)" rx="392" ry="384"/>
  </g>
  <rect id="rect2421_0" class="fil4" x="3266" y="3001" width="1379" height="2540"/>
  <rect id="rect3261_1" class="fil4 str1" x="3860" y="5530" width="292" height="618"/>
  <g id="_2394366119408">
   <rect id="rect2421-2" class="fil4" transform="matrix(0.879871 -0.475212 0.0075041 1.13248 14644.7 2878.35)" width="1387" height="2526"/>
   <ellipse id="path2423-6" class="fil9" transform="matrix(0.884667 -0.477803 0.00703931 1.06234 15251.4 3058.99)" rx="370" ry="349"/>
   <ellipse id="path2423-7-9" class="fil6" transform="matrix(0.884667 -0.477803 0.00703931 1.06234 15252.8 3954.88)" rx="370" ry="349"/>
   <ellipse id="path2423-2-0" class="fil10" transform="matrix(0.884667 -0.477803 0.00703931 1.06234 15268 4863.22)" rx="370" ry="349"/>
   <rect id="rect3261-4" class="fil4 str3" transform="matrix(0.879871 -0.475212 0.0075041 1.13248 15188.8 5442.79)" width="293" height="615"/>
   <g>
    <ellipse class="fil8 str4" transform="matrix(-0.0107525 -1.62271 1.46528 -0.791383 15249.3 3067.85)" rx="392" ry="384"/>
    <ellipse class="fil8 str4" transform="matrix(-0.0138245 -2.08631 1.88392 -1.01749 15235.1 3068.75)" rx="392" ry="384"/>
    <ellipse class="fil8 str4" transform="matrix(-0.00768015 -1.15905 1.04663 -0.565277 15249.3 3065.66)" rx="392" ry="384"/>
   </g>
  </g>
  <rect id="rect3261-4_2" class="fil4 str3" transform="matrix(0.879871 -0.475212 0.0075041 1.13248 4367.61 17810)" width="293" height="615"/>
  <g id="_2394366116144">
   <ellipse class="fil8 str4" transform="matrix(-0.0145566 -2.1968 1.98366 -1.07136 4526.28 15773.7)" rx="392" ry="384"/>
   <ellipse class="fil8 str4" transform="matrix(-0.0187153 -2.82442 2.55043 -1.37747 4507.09 15774.9)" rx="392" ry="384"/>
   <ellipse class="fil8 str4" transform="matrix(-0.0103973 -1.5691 1.41692 -0.765264 4526.26 15770.7)" rx="392" ry="384"/>
  </g>
  <rect id="rect2421-2_3" class="fil4" transform="matrix(0.707004 -0.431186 0.00602978 1.02756 4066.99 15510.5)" width="1387" height="2526"/>
 </g>
</svg>
