<?xml version="1.0" encoding="UTF-8"?>
<!DOCTYPE svg PUBLIC "-//W3C//DTD SVG 1.1//EN" "http://www.w3.org/Graphics/SVG/1.1/DTD/svg11.dtd">
<!-- Creator: CorelDRAW X7 -->
<svg xmlns="http://www.w3.org/2000/svg" xml:space="preserve" width="200mm" height="200mm" version="1.1" style="shape-rendering:geometricPrecision; text-rendering:geometricPrecision; image-rendering:optimizeQuality; fill-rule:evenodd; clip-rule:evenodd"
viewBox="0 0 20000 20000"
 xmlns:xlink="http://www.w3.org/1999/xlink">
 <defs>
  <style type="text/css">
   <![CDATA[
    .str4 {stroke:#E1BF9D;stroke-width:1000}
    .str5 {stroke:#FEFEFE;stroke-width:250}
    .str8 {stroke:#009846;stroke-width:250}
    .str1 {stroke:#E1BF9D;stroke-width:20}
    .str0 {stroke:#009846;stroke-width:20}
    .str2 {stroke:#999694;stroke-width:20}
    .str7 {stroke:#34302F;stroke-width:7.62}
    .str3 {stroke:#FEFEFE;stroke-width:20;stroke-linejoin:round}
    .str6 {stroke:#2B2A29;stroke-width:20;stroke-linejoin:round}
    .fil4 {fill:none}
    .fil6 {fill:none;fill-rule:nonzero}
    .fil3 {fill:#FEFEFE}
    .fil5 {fill:#2B2A29}
    .fil7 {fill:#E32124}
    .fil1 {fill:#E1BF9D}
    .fil0 {fill:#009846}
    .fil8 {fill:#323B86}
    .fil9 {fill:#009846}
    .fil2 {fill:#999694}
    .fil10 {fill:#E31E24;fill-rule:nonzero}
   ]]>
  </style>
 </defs>
 <g id="Vrstva_x0020_1">
  <metadata id="CorelCorpID_0Corel-Layer"/>
  <rect class="fil0 str0" x="3" y="-4" width="19990" height="20000"/>
  <rect class="fil1 str1" x="3" y="3675" width="19979" height="2721"/>
  <rect class="fil1 str1" transform="matrix(6.32924E-015 -0.253381 0.892445 2.50605E-014 13255.4 20002.3)" width="21007" height="3781"/>
  <rect class="fil1 str1" x="3" y="13572" width="20000" height="3090"/>
  <rect class="fil1 str1" transform="matrix(5.42345E-015 -0.255204 0.764726 2.52407E-014 3589.2 19996.7)" width="21007" height="3781"/>
  <rect class="fil1 str1" transform="matrix(5.42345E-015 -0.250846 0.764726 2.48098E-014 3639.18 5260.32)" width="21007" height="3781"/>
  <rect class="fil1 str1" transform="matrix(6.32924E-015 -0.250244 0.892445 2.47502E-014 13025.6 5247.69)" width="21007" height="3781"/>
  <rect class="fil2 str2" x="3" y="6396" width="19990" height="7176"/>
  <rect class="fil2 str2" transform="matrix(-2.66316E-014 0.948042 -1.3037 -2.95837E-013 13721.5 -3.69256)" width="21096" height="5786"/>
  <rect class="fil3 str3" x="3509" y="9793" width="3566" height="236"/>
  <rect class="fil3 str3" x="12914" y="9793" width="3566" height="236"/>
  <rect class="fil3 str3" transform="matrix(4.49702E-015 -0.169886 1.33989 3.55046E-014 9490.24 7104.11)" width="20999" height="176"/>
  <rect class="fil3 str3" transform="matrix(4.49702E-015 -0.169886 1.33989 3.55046E-014 9507.75 16829.4)" width="20999" height="176"/>
  <g id="_2621928245296">
   <ellipse class="fil2 str2" cx="10001" cy="10201" rx="7177" ry="7180"/>
   <ellipse class="fil0 str4" cx="10001" cy="10201" rx="2670" ry="2671"/>
  </g>
  <path class="fil4 str5" d="M13184 4607c950,549 1745,1331 2310,2271"/>
  <path class="fil4 str5" d="M4407 6878c545,-908 1305,-1668 2213,-2213"/>
  <path class="fil4 str5" d="M6717 15814c-1116,-644 -2014,-1608 -2579,-2767"/>
  <path class="fil4 str5" d="M15763 13047c-565,1159 -1463,2123 -2579,2767"/>
  <rect class="fil3 str3" transform="matrix(-2.08753E-014 0.204309 -1.33989 -8.36142E-014 13368 15706)" width="20999" height="176"/>
  <rect class="fil3 str3" x="15671" y="12992" width="4322" height="236"/>
  <rect class="fil3 str3" x="15393" y="6699" width="4600" height="236"/>
  <rect class="fil3 str3" transform="matrix(-2.08753E-014 0.224738 -1.33989 -9.1975E-014 13368 -3.69002)" width="20999" height="176"/>
  <rect class="fil3 str3" transform="matrix(-2.08753E-014 0.204942 -1.33989 -8.38735E-014 6771.99 15692.7)" width="20999" height="176"/>
  <rect class="fil3 str3" x="3" y="12992" width="4239" height="236"/>
  <rect class="fil3 str3" transform="matrix(-2.08753E-014 0.226963 -1.33989 -9.28857E-014 6682.04 -3.69007)" width="20999" height="176"/>
  <rect class="fil3 str3" x="3" y="6699" width="4506" height="236"/>
  <rect class="fil3 str3" transform="matrix(6.92251E-015 -0.198992 1.33989 2.70163E-014 9849.84 19996.3)" width="20999" height="176"/>
  <rect class="fil3 str3" x="9850" y="15708" width="3267" height="439"/>
  <path class="fil5 str6" d="M14510 17042c0,-567 0,-1135 0,-1702 0,-568 0,-1135 0,-1703l176 0 0 3405 -176 0z"/>
  <g>
   <polygon class="fil3" points="14357,12587 14635,12589 14913,12592 15107,12790 15302,12988 15300,13266 15298,13544 15099,13739 14901,13934 14623,13932 14346,13929 14151,13731 13956,13533 13958,13255 13961,12977 14159,12782 "/>
   <polygon id="1" class="fil6 str7" points="14357,12587 14635,12589 14913,12592 15107,12790 15302,12988 15300,13266 15298,13544 15099,13739 14901,13934 14623,13932 14346,13929 14151,13731 13956,13533 13958,13255 13961,12977 14159,12782 "/>
  </g>
  <path class="fil7" d="M15009 13256c13,-4 23,-11 23,-22l0 -117c0,-11 -10,-18 -23,-22l0 161zm0 508l0 -421c32,-2 50,-11 62,-22 16,-13 26,-48 26,-80l0 -135c0,-35 -3,-58 -22,-70 -15,-9 -37,-14 -66,-16l0 -263 245 245 0 517 -245 245zm-22 -673l0 169c7,0 15,-2 22,-4l0 -161c-7,-3 -15,-4 -22,-4l0 0zm22 -334l0 263c-7,0 -14,0 -22,0l-70 0 0 486 63 0 0 -162c11,0 21,0 29,-1l0 421 -121 122 -136 0 0 -377c33,-3 61,-7 72,-21 15,-20 25,-37 25,-66l0 -313c0,-60 -32,-91 -97,-94l0 -380 136 0 121 122zm-257 686l1 0c10,0 24,-5 24,-15l0 -331c0,-10 -14,-15 -24,-15l-1 0 0 361zm0 -808l0 380c-3,0 -6,0 -10,0 -73,0 -86,29 -86,93l0 313c5,56 52,93 85,89l11 -1 0 377 -253 0 0 -365 28 0 0 -451 62 0 0 -50 -90 0 0 -385 253 0zm0 447c-10,0 -24,5 -24,15l0 331c0,10 14,15 24,15l0 -361zm-253 -447l0 385 -90 0 0 48 53 0 0 453 37 0 0 365 -129 0 -84 -84 0 -274c71,-1 78,-46 78,-110l0 -62c0,-22 4,-41 -7,-58l-57 -58c-7,-7 -11,-14 -14,-21l0 -123c11,-16 33,1 33,18l0 50 60 0 0 -43c0,-59 -20,-106 -91,-106l-2 0 0 -296 84 -84 129 0zm-213 812c4,-6 6,-15 6,-28l0 -54 -6 -18 0 100zm0 -728l0 296c-71,1 -78,46 -78,110l0 62c0,22 -4,41 7,58 11,17 18,18 57,61l14 41 0 100c-11,16 -33,-1 -33,-18l0 -51 -59 0 0 44c0,59 19,106 90,106l2 0 0 274 -282 -283 0 -517 282 -283zm0 377c-4,6 -6,15 -6,28l0 54c0,12 -1,26 6,41l0 -123z"/>
  <g>
   <path class="fil6 str7" d="M14987 13091l0 169c21,0 45,-9 45,-26l0 -117c0,-17 -24,-26 -45,-26l0 0zm-234 -9c-11,0 -25,5 -25,15l0 331c0,10 14,15 25,15 10,0 24,-5 24,-15l0 -331c0,-10 -14,-15 -24,-15l0 0zm135 -447l-518 0 -366 367 0 517 366 367 518 0 366 -367 0 -517 -366 -367zm-232 473c0,-64 13,-93 86,-93 72,0 107,31 107,94l0 313c0,29 -10,46 -25,66 -12,16 -46,19 -83,22 -33,4 -80,-33 -85,-89l0 -313zm261 398l0 -486 70 0c40,0 69,5 88,16 19,12 22,35 22,70l0 135c0,32 -10,67 -26,80 -15,14 -40,24 -91,23l0 162 -63 0zm-508 -486l180 0 0 50 -62 0 0 451 -65 0 0 -453 -53 0 0 -48zm-30 101l0 43 -60 0 0 -50c0,-22 -39,-45 -39,10l0 54c0,17 -1,38 20,62l57 58c11,17 7,36 7,58l0 62c0,65 -7,110 -80,110 -71,0 -90,-47 -90,-106l0 -44 59 0 0 51c0,22 39,45 39,-10l0 -54 -20 -59c-39,-43 -46,-44 -57,-61 -11,-17 -7,-36 -7,-58l0 -62c0,-65 7,-110 80,-110 71,0 91,47 91,106z"/>
  </g>
  <g>
   <path class="fil8" d="M14597 15182c271,0 491,-221 491,-492 0,-270 -220,-491 -491,-491 -270,0 -491,221 -491,491 0,271 221,492 491,492z"/>
   <path class="fil3" d="M14882 14504l-117 222 0 15c9,4 27,6 35,3 55,-21 37,-38 59,-19 10,69 -20,134 -94,188l0 86c128,-79 168,-149 186,-278 5,-32 79,-2 94,-5 11,-3 -1,-30 -1,-30l-162 -182zm-117 -43l0 -82c14,7 27,15 42,24l-39 60 -3 -2zm0 265l-4 9c-1,2 1,4 4,6l0 -15zm0 187c-12,10 -26,19 -41,28l37 61 4 -3 0 -86zm0 -534l0 82c-98,-64 -184,-69 -250,-23 -7,28 1,5 43,45 9,8 18,39 10,39l-261 -5 91 -227c0,0 19,-22 26,-14 9,12 16,92 47,81 111,-36 187,-36 294,22l0 0zm-283 431c-5,-6 -25,19 -26,31 -8,58 16,50 -11,61 -77,-27 -123,-100 -128,-220l-71 4c10,154 53,222 160,299 26,19 -35,71 -39,86 -3,10 27,13 27,13l237 -59 -149 -215z"/>
  </g>
  <g>
   <path class="fil4 str8" d="M6835 13503c-495,-299 -1584,-1465 -1835,-2003"/>
   <polygon class="fil9" points="7190,13719 6852,13686 6514,13654 6658,13395 6802,13136 6996,13428 "/>
  </g>
  <path class="fil10" d="M13130 14050l-285 -300 0 150 -1215 0 0 1350 285 0 0 -1050 930 0 0 150 285 -300zm-142 -150m-143 -75m-607 75m-608 675m143 675m142 -525m465 -525m465 75m143 -75z"/>
 </g>
</svg>
