<?xml version="1.0" encoding="UTF-8"?>
<!DOCTYPE svg PUBLIC "-//W3C//DTD SVG 1.1//EN" "http://www.w3.org/Graphics/SVG/1.1/DTD/svg11.dtd">
<!-- Creator: CorelDRAW X7 -->
<svg xmlns="http://www.w3.org/2000/svg" xml:space="preserve" width="200mm" height="200mm" version="1.1" style="shape-rendering:geometricPrecision; text-rendering:geometricPrecision; image-rendering:optimizeQuality; fill-rule:evenodd; clip-rule:evenodd"
viewBox="0 0 20000 20000"
 xmlns:xlink="http://www.w3.org/1999/xlink">
 <defs>
  <style type="text/css">
   <![CDATA[
    .str5 {stroke:#FEFEFE;stroke-width:20}
    .str6 {stroke:#2B2A29;stroke-width:20}
    .str8 {stroke:#2B2A29;stroke-width:20}
    .str1 {stroke:#E1BF9D;stroke-width:20}
    .str0 {stroke:#009846;stroke-width:20}
    .str7 {stroke:black;stroke-width:20}
    .str2 {stroke:#999694;stroke-width:20}
    .str3 {stroke:#FEFEFE;stroke-width:20;stroke-linejoin:round}
    .str4 {stroke:#2B2A29;stroke-width:20;stroke-linejoin:round}
    .fil3 {fill:#FEFEFE}
    .fil4 {fill:#2B2A29}
    .fil5 {fill:#E32124}
    .fil7 {fill:#FDFCFC}
    .fil1 {fill:#E1BF9D}
    .fil0 {fill:#009846}
    .fil6 {fill:#323B86}
    .fil2 {fill:#999694}
    .fil10 {fill:#00A0E3;fill-rule:nonzero}
    .fil9 {fill:#C5C6C6;fill-rule:nonzero}
    .fil8 {fill:#FFED00;fill-rule:nonzero}
   ]]>
  </style>
 </defs>
 <g id="Vrstva_x0020_1">
  <metadata id="CorelCorpID_0Corel-Layer"/>
  <g id="_2935120178496">
   <rect class="fil0 str0" x="16" y="2" width="19987" height="19989"/>
   <rect class="fil1 str1" x="6" y="3678" width="20000" height="2720"/>
   <rect class="fil1 str1" transform="matrix(6.32841E-015 -0.253123 0.892329 2.5035E-014 13266.6 19994.3)" width="21007" height="3781"/>
   <rect class="fil1 str1" x="30" y="13570" width="19974" height="3088"/>
   <rect class="fil1 str1" transform="matrix(5.42274E-015 -0.255156 0.764626 2.5236E-014 3601.59 19983.2)" width="21007" height="3781"/>
   <rect class="fil1 str1" transform="matrix(5.42274E-015 -0.250816 0.764626 2.48068E-014 3651.56 5263.11)" width="21007" height="3781"/>
   <rect class="fil1 str1" transform="matrix(6.32841E-015 -0.250215 0.892329 2.47474E-014 13036.7 5250.49)" width="21007" height="3781"/>
   <rect class="fil2 str2" x="16" y="6398" width="19987" height="7172"/>
   <rect class="fil2 str2" transform="matrix(-2.66282E-014 0.947503 -1.30353 -2.95669E-013 13732.6 2.08791)" width="21096" height="5786"/>
   <rect class="fil3 str3" x="16" y="13030" width="6638" height="236"/>
   <rect class="fil3 str3" transform="matrix(-2.08726E-014 0.31767 -1.33971 -1.30008E-013 6654.05 2.09062)" width="20999" height="176"/>
   <rect class="fil3 str3" transform="matrix(-2.08726E-014 0.331476 -1.33971 -1.35658E-013 6684.03 13030)" width="20999" height="176"/>
   <rect class="fil3 str3" x="13361" y="13030" width="6642" height="236"/>
   <rect class="fil3 str3" transform="matrix(-2.08726E-014 0.331476 -1.33971 -1.35658E-013 13439 13030)" width="20999" height="176"/>
   <rect class="fil3 str3" x="16" y="6641" width="6638" height="236"/>
   <rect class="fil3 str3" x="13203" y="6641" width="6801" height="236"/>
   <g>
    <path class="fil4 str4" d="M14547 6240c0,-567 0,-1134 0,-1701 0,-567 0,-1135 0,-1702l177 0 0 3403 -177 0z"/>
    <g>
     <path class="fil5" d="M14652 2092c345,0 624,280 624,624 0,344 -279,623 -624,623 -344,0 -623,-279 -623,-623 0,-344 279,-624 623,-624z"/>
     <polygon class="fil3" points="14151,2834 15154,2834 15154,2598 14151,2598 "/>
    </g>
   </g>
   <g>
    <path class="fil4 str4" d="M14301 14695c0,-568 0,-1135 0,-1702 0,-567 0,-1134 0,-1701l176 0 0 3403 -176 0z"/>
    <g>
     <path class="fil6" d="M14404 12831c271,0 491,-221 491,-491 0,-271 -220,-492 -491,-492 -270,0 -491,221 -491,492 0,270 221,491 491,491z"/>
     <path class="fil3" d="M14586 12147c-156,2 -244,58 -244,175 0,113 2,149 2,262l105 0 0 -191c3,-106 8,-142 144,-141 35,-1 -18,92 -8,109 6,11 13,4 13,4l242 -170 -242 -169c0,0 -18,-8 -13,4 23,54 22,95 1,117z"/>
     <path class="fil3" d="M14206 12157c156,2 244,58 244,174 0,113 21,319 21,432l-151 -4 23 -357c-4,-105 -9,-141 -144,-141 -35,-1 18,93 8,109 -7,11 -13,4 -13,4l-243 -169 243 -169c0,0 18,-8 13,4 -23,55 -22,95 -1,117z"/>
    </g>
    <g>
     <polygon class="fil7 str5" points="14383,11688 14711,11073 15046,10417 14453,10409 13725,10414 14090,11138 "/>
     <g>
      <path class="fil5" d="M14386 11712l8 0 678 -1290 -12 -26 -674 0 0 13 656 0 18 0 -9 17 -661 1257 -4 8 0 21zm0 -122l0 -313 338 -649 -338 0 0 -168 586 0 -586 1130zm-687 -1168l670 1290 17 0 0 -21 -5 8 -8 -16 -652 -1257 -9 -17 17 0 657 0 0 -13 -674 0 -13 26zm687 38l0 168 -338 0 336 652 2 -3 0 313 -3 6 -583 -1136 586 0z"/>
      <path class="fil5" d="M14974 10460l-586 0 0 168 338 0 -338 649 0 314 586 -1131zm-248 168l-338 0 335 0 3 0 -338 649 338 -649zm-338 -168l-586 0 583 1137 3 -6 0 -314 -1 3 -337 -652 338 0 0 -168zm0 168l-338 0 335 650 2 2 1 -3 -1 3 -337 -652 338 0z"/>
     </g>
    </g>
   </g>
   <g>
    <polygon class="fil3 str6" points="5297,10019 5580,10246 5863,10473 5496,11091 5129,11709 4846,11482 4563,11255 4930,10637 "/>
    <path class="fil3 str7" d="M5037 12908c258,-81 550,-403 650,-718 99,-315 -30,-506 -288,-425 -258,81 -550,404 -650,719 -99,315 30,505 288,424z"/>
    <path class="fil4 str4" d="M5121 14660c0,-567 0,-1134 0,-1701 0,-567 0,-1135 0,-1702l177 0 0 3403 -177 0z"/>
   </g>
   <g>
    <polygon class="fil3 str8" points="5438,3159 5765,2544 6101,1888 5508,1880 4780,1885 5145,2609 "/>
    <rect class="fil3 str6" x="4938" y="3257" width="1002" height="973"/>
    <path class="fil4 str4" d="M5356 6075c0,-567 0,-1134 0,-1701 0,-567 0,-1134 0,-1702l176 0 0 3403 -176 0z"/>
   </g>
   <rect class="fil3 str3" x="3521" y="9793" width="3565" height="236"/>
   <rect class="fil3 str3" x="12925" y="9793" width="3565" height="236"/>
   <rect class="fil3 str3" transform="matrix(4.49644E-015 -0.0523863 1.33971 1.09483E-014 9769.2 1102.16)" width="20999" height="176"/>
   <rect class="fil3 str3" transform="matrix(4.49644E-015 -0.169789 1.33971 3.54844E-014 9751.7 7105.85)" width="20999" height="176"/>
   <rect class="fil3 str3" transform="matrix(4.49644E-015 -0.169789 1.33971 3.54844E-014 9769.2 16825.7)" width="20999" height="176"/>
   <rect class="fil3 str3" transform="matrix(4.49644E-015 -0.0898881 1.33971 1.87858E-014 9769.2 19990.7)" width="20999" height="176"/>
   <rect class="fil3 str3" x="17863" y="9760" width="2140" height="236"/>
   <rect class="fil3 str3" x="16" y="9793" width="2333" height="236"/>
   <rect class="fil3 str3" transform="matrix(-2.08726E-014 0.31767 -1.33971 -1.30008E-013 13439.1 2.09062)" width="20999" height="176"/>
  </g>
  <path class="fil8" d="M9600 8340l-285 300 0 -150 -1215 0 0 -1350 285 0 0 1050 930 0 0 -150 285 300zm-143 150m-142 75m-608 -75m-607 -675m142 -675m143 525m465 525m465 -75m142 75z"/>
  <path class="fil9" d="M12880 11520l-285 -300 0 150 -1215 0 0 1350 285 0 0 -1050 930 0 0 150 285 -300zm-142 -150m-143 -75m-607 75m-608 675m143 675m142 -525m465 -525m465 75m143 -75z"/>
  <polygon class="fil10" points="9000,11540 8715,11840 8715,11690 6137,11696 6142,11405 8715,11390 8715,11240 "/>
 </g>
</svg>
