<?xml version="1.0" encoding="UTF-8"?>
<!DOCTYPE svg PUBLIC "-//W3C//DTD SVG 1.1//EN" "http://www.w3.org/Graphics/SVG/1.1/DTD/svg11.dtd">
<!-- Creator: CorelDRAW X7 -->
<svg xmlns="http://www.w3.org/2000/svg" xml:space="preserve" width="200mm" height="200mm" version="1.1" style="shape-rendering:geometricPrecision; text-rendering:geometricPrecision; image-rendering:optimizeQuality; fill-rule:evenodd; clip-rule:evenodd"
viewBox="0 0 20000 20000"
 xmlns:xlink="http://www.w3.org/1999/xlink"
 xmlns:osb="http://www.openswatchbook.org/uri/2009/osb"
 xmlns:dc="http://purl.org/dc/elements/1.1/"
 xmlns:cc="http://creativecommons.org/ns#"
 xmlns:rdf="http://www.w3.org/1999/02/22-rdf-syntax-ns#"
 xmlns:svg="http://www.w3.org/2000/svg"
 xmlns:sodipodi="http://sodipodi.sourceforge.net/DTD/sodipodi-0.dtd"
 xmlns:inkscape="http://www.inkscape.org/namespaces/inkscape"
 inkscape:version="0.92.4 (5da689c313, 2019-01-14)"
 sodipodi:docname="krizovatka3.svg">
 <defs>
  <style type="text/css">
   <![CDATA[
    .str1 {stroke:black;stroke-width:25}
    .str0 {stroke:#34302F;stroke-width:7.62}
    .fil5 {fill:none}
    .fil8 {fill:black}
    .fil0 {fill:#009846}
    .fil4 {fill:#252422}
    .fil6 {fill:#34302F}
    .fil1 {fill:#999694}
    .fil2 {fill:#B3B3B3}
    .fil9 {fill:#E32124}
    .fil7 {fill:#F9E805}
    .fil3 {fill:#FEFEFE}
   ]]>
  </style>
 </defs>
 <g id="Vrstva_x0020_1">
  <metadata id="CorelCorpID_0Corel-Layer"/>
  <sodipodi:namedview id="base" pagecolor="#ffffff" bordercolor="#666666" borderopacity="1.0" inkscape:pageopacity="0.0" inkscape:pageshadow="2" inkscape:zoom="0.49497475" inkscape:cx="605.69473" inkscape:cy="618.26729" inkscape:document-units="mm" inkscape:current-layer="layer1" showgrid="false" inkscape:window-width="960" inkscape:window-height="1001" inkscape:window-x="-9" inkscape:window-y="-9" inkscape:window-maximized="0"/>
  <sodipodi:namedview id="base" pagecolor="#ffffff" bordercolor="#666666" borderopacity="1.0" inkscape:pageopacity="0.0" inkscape:pageshadow="2" inkscape:zoom="0.49497475" inkscape:cx="661.57023" inkscape:cy="368.01998" inkscape:document-units="mm" inkscape:current-layer="layer1" showgrid="false" inkscape:window-width="958" inkscape:window-height="991" inkscape:window-x="-8" inkscape:window-y="0" inkscape:window-maximized="0"/>
  <sodipodi:namedview id="base" pagecolor="#ffffff" bordercolor="#666666" borderopacity="1.0" inkscape:pageopacity="0.0" inkscape:pageshadow="2" inkscape:zoom="0.49497475" inkscape:cx="686.24111" inkscape:cy="629.46196" inkscape:document-units="mm" inkscape:current-layer="layer1" showgrid="false" inkscape:window-width="960" inkscape:window-height="1001" inkscape:window-x="-9" inkscape:window-y="-9" inkscape:window-maximized="0" showguides="false"/>
  <sodipodi:namedview id="base" pagecolor="#ffffff" bordercolor="#666666" borderopacity="1.0" inkscape:pageopacity="0.0" inkscape:pageshadow="2" inkscape:zoom="0.49497475" inkscape:cx="558.93182" inkscape:cy="357.98782" inkscape:document-units="mm" inkscape:current-layer="g2341-6" showgrid="false" inkscape:window-width="1920" inkscape:window-height="1001" inkscape:window-x="-9" inkscape:window-y="-9" inkscape:window-maximized="1"/>
  <sodipodi:namedview id="base" pagecolor="#ffffff" bordercolor="#666666" borderopacity="1.0" inkscape:pageopacity="0.0" inkscape:pageshadow="2" inkscape:zoom="0.49497475" inkscape:cx="605.69473" inkscape:cy="618.26729" inkscape:document-units="mm" inkscape:current-layer="layer1" showgrid="false" inkscape:window-width="960" inkscape:window-height="1001" inkscape:window-x="-9" inkscape:window-y="-9" inkscape:window-maximized="0"/>
  <sodipodi:namedview id="base" pagecolor="#ffffff" bordercolor="#666666" borderopacity="1.0" inkscape:pageopacity="0.0" inkscape:pageshadow="2" inkscape:zoom="0.49497475" inkscape:cx="605.69473" inkscape:cy="618.26729" inkscape:document-units="mm" inkscape:current-layer="layer1" showgrid="false" inkscape:window-width="960" inkscape:window-height="1001" inkscape:window-x="-9" inkscape:window-y="-9" inkscape:window-maximized="0"/>
  <sodipodi:namedview id="base" pagecolor="#ffffff" bordercolor="#666666" borderopacity="1.0" inkscape:pageopacity="0.0" inkscape:pageshadow="2" inkscape:zoom="0.49497475" inkscape:cx="605.69473" inkscape:cy="618.26729" inkscape:document-units="mm" inkscape:current-layer="layer1" showgrid="false" inkscape:window-width="960" inkscape:window-height="1001" inkscape:window-x="-9" inkscape:window-y="-9" inkscape:window-maximized="0"/>
  <sodipodi:namedview id="base" pagecolor="#ffffff" bordercolor="#666666" borderopacity="1.0" inkscape:pageopacity="0.0" inkscape:pageshadow="2" inkscape:zoom="0.49497475" inkscape:cx="661.57023" inkscape:cy="368.01998" inkscape:document-units="mm" inkscape:current-layer="layer1" showgrid="false" inkscape:window-width="958" inkscape:window-height="991" inkscape:window-x="-8" inkscape:window-y="0" inkscape:window-maximized="0"/>
  <sodipodi:namedview id="base" pagecolor="#ffffff" bordercolor="#666666" borderopacity="1.0" inkscape:pageopacity="0.0" inkscape:pageshadow="2" inkscape:zoom="0.49497475" inkscape:cx="686.24111" inkscape:cy="629.46196" inkscape:document-units="mm" inkscape:current-layer="layer1" showgrid="false" inkscape:window-width="960" inkscape:window-height="1001" inkscape:window-x="-9" inkscape:window-y="-9" inkscape:window-maximized="0" showguides="false"/>
  <rect id="rect1757" class="fil0" x="14046" y="14134" width="5952" height="5828"/>
  <rect id="rect1759" class="fil0" x="14103" y="21" width="5879" height="6375"/>
  <rect id="rect1753" class="fil0" x="9" y="22" width="5493" height="6553"/>
  <rect id="rect1755" class="fil0" y="14980" width="5818" height="4987"/>
  <rect id="rect42" class="fil1" x="5313" y="21" width="8919" height="19946"/>
  <sodipodi:namedview id="base" pagecolor="#ffffff" bordercolor="#666666" borderopacity="1.0" inkscape:pageopacity="0.0" inkscape:pageshadow="2" inkscape:zoom="0.49497475" inkscape:cx="605.69473" inkscape:cy="618.26729" inkscape:document-units="mm" inkscape:current-layer="layer1" showgrid="false" inkscape:window-width="960" inkscape:window-height="1001" inkscape:window-x="-9" inkscape:window-y="-9" inkscape:window-maximized="0"/>
  <sodipodi:namedview id="base" pagecolor="#ffffff" bordercolor="#666666" borderopacity="1.0" inkscape:pageopacity="0.0" inkscape:pageshadow="2" inkscape:zoom="0.49497475" inkscape:cx="661.57023" inkscape:cy="368.01998" inkscape:document-units="mm" inkscape:current-layer="layer1" showgrid="false" inkscape:window-width="958" inkscape:window-height="991" inkscape:window-x="-8" inkscape:window-y="0" inkscape:window-maximized="0"/>
  <sodipodi:namedview id="base" pagecolor="#ffffff" bordercolor="#666666" borderopacity="1.0" inkscape:pageopacity="0.0" inkscape:pageshadow="2" inkscape:zoom="0.49497475" inkscape:cx="686.24111" inkscape:cy="629.46196" inkscape:document-units="mm" inkscape:current-layer="layer1" showgrid="false" inkscape:window-width="960" inkscape:window-height="1001" inkscape:window-x="-9" inkscape:window-y="-9" inkscape:window-maximized="0" showguides="false"/>
  <sodipodi:namedview id="base" pagecolor="#ffffff" bordercolor="#666666" borderopacity="1.0" inkscape:pageopacity="0.0" inkscape:pageshadow="2" inkscape:zoom="0.49497475" inkscape:cx="558.93182" inkscape:cy="357.98782" inkscape:document-units="mm" inkscape:current-layer="g2341-6" showgrid="false" inkscape:window-width="1920" inkscape:window-height="1001" inkscape:window-x="-9" inkscape:window-y="-9" inkscape:window-maximized="1"/>
  <sodipodi:namedview id="base" pagecolor="#ffffff" bordercolor="#666666" borderopacity="1.0" inkscape:pageopacity="0.0" inkscape:pageshadow="2" inkscape:zoom="0.49497475" inkscape:cx="605.69473" inkscape:cy="618.26729" inkscape:document-units="mm" inkscape:current-layer="layer1" showgrid="false" inkscape:window-width="960" inkscape:window-height="1001" inkscape:window-x="-9" inkscape:window-y="-9" inkscape:window-maximized="0"/>
  <sodipodi:namedview id="base" pagecolor="#ffffff" bordercolor="#666666" borderopacity="1.0" inkscape:pageopacity="0.0" inkscape:pageshadow="2" inkscape:zoom="0.49497475" inkscape:cx="605.69473" inkscape:cy="618.26729" inkscape:document-units="mm" inkscape:current-layer="layer1" showgrid="false" inkscape:window-width="960" inkscape:window-height="1001" inkscape:window-x="-9" inkscape:window-y="-9" inkscape:window-maximized="0"/>
  <g id="_2394373818688">
   <rect id="rect4121-9-2-5-4-2" class="fil2" x="15863" y="3834" width="75.12" height="2166.45"/>
   <g>
    <polygon class="fil3" points="16117,2178 16441,2479 16765,2781 16323,3439 15882,4098 15558,3796 15235,3494 15676,2836 "/>
    <path class="fil4" d="M16103 2223c6,-2 11,-2 15,1l622 544c8,6 6,25 -5,40l-839 1226c-5,8 -12,13 -18,16l-5 41c15,-7 30,-21 43,-39l840 -1226c25,-37 30,-81 12,-98l-623 -544c-9,-8 -23,-8 -37,-1l-5 40zm-858 1241l840 -1224c5,-8 11,-14 18,-17l5 -40c-15,7 -30,20 -43,39l-840 1225c-25,37 -31,81 -12,98l622 544c10,9 24,9 38,2l5 -41c-6,3 -12,3 -15,0l-623 -545c-7,-7 -5,-25 5,-41z"/>
    <g>
     <path class="fil5 str0" d="M15245 3464l840 -1224c10,-16 25,-23 33,-16l622 544c8,6 6,25 -5,40l-839 1226c-10,15 -26,22 -33,16l-623 -545c-7,-7 -5,-25 5,-41l0 0zm-20 -17l840 -1225c25,-37 62,-55 80,-38l623 544c18,17 13,61 -12,98l-840 1226c-25,37 -62,54 -81,37l-622 -544c-19,-17 -13,-61 12,-98z"/>
    </g>
    <path class="fil6" d="M16058 2586l387 339 -522 761 4 -31 246 -359 246 -359 -182 -160 -183 -159 4 -32zm-135 1100l-387 -338 522 -762 -4 32 -246 359 -246 360 183 158 182 160 -4 31z"/>
    <g>
     <path class="fil5 str0" d="M16058 2586l387 339 -522 761 -387 -338 522 -762zm-4 32l183 159 182 160 -246 359 -246 359 -182 -160 -183 -158 246 -360 246 -359z"/>
    </g>
    <g>
     <polygon class="fil7" points="16237,2777 16054,2618 15808,2977 15562,3337 15745,3495 15927,3655 16173,3296 16419,2937 "/>
     <polygon id="_1" class="fil5 str0" points="16237,2777 16054,2618 15808,2977 15562,3337 15745,3495 15927,3655 16173,3296 16419,2937 "/>
    </g>
   </g>
  </g>
  <sodipodi:namedview id="base" pagecolor="#ffffff" bordercolor="#666666" borderopacity="1.0" inkscape:pageopacity="0.0" inkscape:pageshadow="2" inkscape:zoom="0.49497475" inkscape:cx="605.69473" inkscape:cy="618.26729" inkscape:document-units="mm" inkscape:current-layer="layer1" showgrid="false" inkscape:window-width="960" inkscape:window-height="1001" inkscape:window-x="-9" inkscape:window-y="-9" inkscape:window-maximized="0"/>
  <sodipodi:namedview id="base" pagecolor="#ffffff" bordercolor="#666666" borderopacity="1.0" inkscape:pageopacity="0.0" inkscape:pageshadow="2" inkscape:zoom="0.49497475" inkscape:cx="661.57023" inkscape:cy="368.01998" inkscape:document-units="mm" inkscape:current-layer="layer1" showgrid="false" inkscape:window-width="958" inkscape:window-height="991" inkscape:window-x="-8" inkscape:window-y="0" inkscape:window-maximized="0"/>
  <sodipodi:namedview id="base" pagecolor="#ffffff" bordercolor="#666666" borderopacity="1.0" inkscape:pageopacity="0.0" inkscape:pageshadow="2" inkscape:zoom="0.49497475" inkscape:cx="686.24111" inkscape:cy="629.46196" inkscape:document-units="mm" inkscape:current-layer="layer1" showgrid="false" inkscape:window-width="960" inkscape:window-height="1001" inkscape:window-x="-9" inkscape:window-y="-9" inkscape:window-maximized="0" showguides="false"/>
  <rect id="rect106" class="fil3" x="9641" y="55" width="600" height="1762"/>
  <rect id="rect106-7" class="fil3" x="9649" y="2435" width="600" height="1762"/>
  <rect id="rect106-9" class="fil3" x="9650" y="4786" width="600" height="1762"/>
  <rect id="rect106-4" class="fil3" x="9640" y="17038" width="600" height="1762"/>
  <rect id="rect106-39" class="fil3" x="9641" y="19378" width="600" height="622"/>
  <rect id="rect42-8" class="fil1" transform="matrix(1.8713E-014 1 -1 3.73647E-014 19997.6 6397.28)" width="8406" height="19997"/>
  <rect id="rect106-3-1-9" class="fil3" transform="matrix(2.80389E-014 -1 1 2.47082E-014 147.999 10819.4)" width="565" height="1870"/>
  <rect id="rect106-7-1-1-8" class="fil3" transform="matrix(-2.81384E-014 1 -1 -2.48078E-014 19913.3 10281.3)" width="565" height="1870"/>
  <rect id="rect106-4-0" class="fil3" x="9640" y="14349" width="600" height="1762"/>
  <rect id="rect106-4-4" class="fil3" transform="matrix(2.80389E-014 -1 1 2.47082E-014 15331.4 10886.1)" width="565" height="1870"/>
  <rect id="rect106-4-42" class="fil3" transform="matrix(2.80389E-014 -1 1 2.47082E-014 2822.08 10743.6)" width="565" height="1870"/>
  <rect id="rect74-9-2-7" class="fil8" transform="matrix(1.53823E-014 -1 1 4.51363E-014 8.85589 6575.4)" width="178" height="5493"/>
  <rect id="rect74-9-2-7-9" class="fil8" transform="matrix(1.53823E-014 -1 1 4.51363E-014 0.00738756 14981.1)" width="178" height="5502"/>
  <rect id="rect74-9-2-7-5" class="fil8" transform="matrix(1.51603E-014 -1 1 4.60245E-014 14046.1 14945.4)" width="178" height="5954"/>
  <rect id="rect74-9-2-7-5-3" class="fil8" transform="matrix(1.51603E-014 -1 1 4.58024E-014 14043.3 6575.4)" width="178" height="5939"/>
  <rect id="rect74-9-2-7-5-1" class="fil8" x="14043" y="13" width="189" height="6529"/>
  <rect id="rect74-9-2-7-5-1-2" class="fil8" x="5313" width="189" height="6529"/>
  <rect id="rect74-9-2-7-5-1-2-6" class="fil8" x="14043" y="14768" width="189" height="5195"/>
  <rect id="rect74-9-2-7-5-1-2_2" class="fil8" x="5313" y="14803" width="189" height="5145"/>
  <g id="_2394373773920">
   <rect id="rect4121-4_3" class="fil2" x="14971" y="15140" width="105" height="2538"/>
   <g id="_2406562864112">
    <polygon class="fil3" points="15016,15774 15440,15011 15863,14248 15032,14265 14220,14280 14609,15027 "/>
    <path class="fil9" d="M15027 15779l9 0 840 -1514 -15 -29 -819 15 0 16 798 -16 20 0 -10 19 -818 1475 -5 9 0 25zm1 -141l4 -364 418 -761 -411 8 3 -196 712 -14 -726 1327zm-819 -1341l796 1482 22 0 0 -25 -6 11 -10 -20 -777 -1443 -10 -20 21 0 797 -15 0 -16 -818 17 -15 29zm833 28l-3 196 -410 7 401 750 2 -4 -4 364 -3 8 -695 -1308 712 -13z"/>
    <path class="fil9" d="M15756 14311l-712 14 -1 196 410 -8 -419 761 -3 366 725 -1329zm-303 202l-410 8 406 -9 4 1 -419 761 419 -761zm-409 -188l-711 15 694 1306 4 -6 3 -366 -1 4 -401 -749 411 -8 1 -196zm-1 196l-411 8 400 746 1 3 1 -4 -1 4 -401 -749 411 -8z"/>
   </g>
  </g>
  <polygon class="fil9" points="4137,2413 3727,2421 4126,3168 4127,3171 4129,3167 4127,3171 3727,2421 "/>
  <polygon class="fil9" points="4547,2405 4137,2413 4544,2404 4547,2405 4129,3167 "/>
  <polygon class="fil3" points="4275,14102 4652,14333 5029,14565 4727,15297 4424,16031 4047,15799 3670,15567 3973,14834 "/>
  <path class="fil4" d="M4269 14150c6,-4 12,-5 16,-3l718 410c9,5 10,24 3,41l-580 1367c-4,9 -9,16 -15,20l3 40c13,-9 26,-25 35,-47l580 -1367c18,-42 14,-86 -8,-98l-717 -410c-11,-6 -25,-4 -38,6l3 41zm-594 1385l580 -1366c4,-8 9,-15 14,-19l-3 -41c-13,9 -25,26 -34,47l-580 1366c-18,42 -14,86 7,99l718 410c11,7 25,4 37,-6l-3 -40c-5,4 -11,5 -15,2l-718 -411c-9,-5 -10,-24 -3,-41z"/>
  <g id="_2394373771104">
   <path class="fil5 str0" d="M3675 15535l580 -1366c8,-17 21,-27 30,-22l718 410c9,5 10,24 3,41l-580 1367c-8,17 -21,27 -30,22l-718 -411c-9,-5 -10,-24 -3,-41l0 0zm-23 -13l580 -1366c18,-42 50,-66 72,-53l717 410c22,12 26,56 8,98l-580 1367c-18,42 -50,66 -72,53l-718 -410c-21,-13 -25,-57 -7,-99z"/>
  </g>
  <rect id="rect4121-9-2-5-4-2_4" class="fil2" x="4390" y="14784" width="75.12" height="3117.97"/>
  <g id="_2394373767712">
   <polygon class="fil3 str1" points="4111,3667 4534,2904 4958,2141 4127,2158 3315,2173 3704,2920 "/>
   <rect id="rect4121-4_5" class="fil2" x="4065" y="2413" width="105" height="3158"/>
  </g>
 </g>
</svg>
