<?xml version="1.0" encoding="UTF-8"?>
<!DOCTYPE svg PUBLIC "-//W3C//DTD SVG 1.1//EN" "http://www.w3.org/Graphics/SVG/1.1/DTD/svg11.dtd">
<!-- Creator: CorelDRAW X7 -->
<svg xmlns="http://www.w3.org/2000/svg" xml:space="preserve" width="200mm" height="200mm" version="1.1" style="shape-rendering:geometricPrecision; text-rendering:geometricPrecision; image-rendering:optimizeQuality; fill-rule:evenodd; clip-rule:evenodd"
viewBox="0 0 20000 20000"
 xmlns:xlink="http://www.w3.org/1999/xlink">
 <defs>
  <style type="text/css">
   <![CDATA[
    .str7 {stroke:#EF7F1A;stroke-width:20}
    .str6 {stroke:#E31E24;stroke-width:20}
    .str1 {stroke:#E1BF9D;stroke-width:20}
    .str5 {stroke:#575757;stroke-width:20}
    .str8 {stroke:#1F1B20;stroke-width:20}
    .str0 {stroke:#009846;stroke-width:20}
    .str2 {stroke:#999694;stroke-width:20}
    .str3 {stroke:#FEFEFE;stroke-width:20;stroke-linejoin:round}
    .str4 {stroke:#2B2A29;stroke-width:20;stroke-linejoin:round}
    .fil10 {fill:none}
    .fil3 {fill:#FEFEFE}
    .fil4 {fill:#2B2A29}
    .fil14 {fill:#FDC619}
    .fil24 {fill:#F6A30A}
    .fil13 {fill:#F18A69}
    .fil7 {fill:#EF7F1A}
    .fil18 {fill:#EC647A}
    .fil22 {fill:#EA5453}
    .fil6 {fill:#E31E24}
    .fil17 {fill:#F5E6DA}
    .fil19 {fill:#DF5068}
    .fil1 {fill:#E1BF9D}
    .fil25 {fill:#D4745A}
    .fil23 {fill:#BF4642}
    .fil15 {fill:#78BDE9}
    .fil5 {fill:#575757}
    .fil16 {fill:#489ED7}
    .fil20 {fill:#4D5882}
    .fil12 {fill:#4D4473}
    .fil21 {fill:#464E7A}
    .fil11 {fill:#423B64}
    .fil8 {fill:#1F1B20}
    .fil0 {fill:#009846}
    .fil2 {fill:#999694}
    .fil9 {fill:#009846;fill-rule:nonzero}
   ]]>
  </style>
 </defs>
 <g id="Vrstva_x0020_1">
  <metadata id="CorelCorpID_0Corel-Layer"/>
  <g id="_2286895169024">
   <rect class="fil0 str0" x="12" y="-6" width="20000" height="19980"/>
   <rect class="fil1 str1" x="12" y="3672" width="19993" height="2721"/>
   <rect class="fil1 str1" transform="matrix(6.33249E-015 -0.289579 0.892905 2.86406E-014 13271.2 19974.1)" width="21007" height="3781"/>
   <rect class="fil1 str1" x="12" y="13570" width="20000" height="3090"/>
   <rect class="fil1 str1" transform="matrix(5.42624E-015 -0.292059 0.76512 2.88859E-014 3599.99 19994.1)" width="21007" height="3781"/>
   <rect class="fil1 str1" transform="matrix(5.42624E-015 -0.288142 0.76512 2.84985E-014 3649.99 6050.14)" width="21007" height="3781"/>
   <rect class="fil1 str1" transform="matrix(6.33249E-015 -0.287571 0.892905 2.8442E-014 13041.2 6038.14)" width="21007" height="3781"/>
   <rect class="fil2 str2" x="12" y="6394" width="20000" height="7176"/>
   <rect class="fil2 str2" transform="matrix(-2.66454E-014 0.948042 -1.30437 -2.95837E-013 13737.5 -5.88256)" width="21096" height="5786"/>
   <rect class="fil3 str3" x="17" y="13169" width="6668" height="236"/>
   <rect class="fil3 str3" transform="matrix(-2.08861E-014 0.327451 -1.34058 -1.3401E-013 6654.42 -2.74396)" width="20999" height="176"/>
   <rect class="fil3 str3" transform="matrix(-2.08861E-014 0.324042 -1.34058 -1.32616E-013 6684.42 13169.5)" width="20999" height="176"/>
   <rect class="fil3 str3" x="13207" y="13169" width="6805" height="236"/>
   <rect class="fil3 str3" transform="matrix(-2.08861E-014 0.324042 -1.34058 -1.32616E-013 13443.8 13169.5)" width="20999" height="176"/>
   <rect class="fil3 str3" x="17" y="6637" width="6638" height="236"/>
   <rect class="fil3 str3" x="13203" y="6637" width="6810" height="236"/>
   <g>
    <rect class="fil3 str3" transform="matrix(1.592E-014 -0.169886 4.74336 3.55046E-014 6981.29 6341.92)" width="20999" height="176"/>
    <rect class="fil3 str3" transform="matrix(1.592E-014 -0.169886 4.74336 3.55046E-014 8261.29 6341.92)" width="20999" height="176"/>
    <rect class="fil3 str3" transform="matrix(1.592E-014 -0.169886 4.74336 3.55046E-014 9542.41 6341.92)" width="20999" height="176"/>
    <rect class="fil3 str3" transform="matrix(1.592E-014 -0.169886 4.74336 3.55046E-014 10782.4 6341.92)" width="20999" height="176"/>
    <rect class="fil3 str3" transform="matrix(1.592E-014 -0.169886 4.74336 3.55046E-014 12042.4 6341.92)" width="20999" height="176"/>
   </g>
   <g>
    <rect class="fil3 str3" transform="matrix(1.592E-014 -0.169886 4.74336 3.55046E-014 6981.29 17162.4)" width="20999" height="176"/>
    <rect class="fil3 str3" transform="matrix(1.592E-014 -0.169886 4.74336 3.55046E-014 8261.29 17162.4)" width="20999" height="176"/>
    <rect class="fil3 str3" transform="matrix(1.592E-014 -0.169886 4.74336 3.55046E-014 9542.41 17162.4)" width="20999" height="176"/>
    <rect class="fil3 str3" transform="matrix(1.592E-014 -0.169886 4.74336 3.55046E-014 10782.4 17162.4)" width="20999" height="176"/>
    <rect class="fil3 str3" transform="matrix(1.592E-014 -0.169886 4.74336 3.55046E-014 12042.4 17162.4)" width="20999" height="176"/>
   </g>
   <g>
    <rect class="fil3 str3" x="13737" y="12111" width="3567" height="837"/>
    <rect class="fil3 str3" x="13737" y="10831" width="3567" height="837"/>
    <rect class="fil3 str3" x="13737" y="9550" width="3567" height="837"/>
    <rect class="fil3 str3" x="13737" y="8310" width="3567" height="837"/>
    <rect class="fil3 str3" x="13737" y="7050" width="3567" height="837"/>
   </g>
   <g>
    <rect class="fil3 str3" x="2637" y="12111" width="3567" height="837"/>
    <rect class="fil3 str3" x="2637" y="10831" width="3567" height="837"/>
    <rect class="fil3 str3" x="2637" y="9550" width="3567" height="837"/>
    <rect class="fil3 str3" x="2637" y="8310" width="3567" height="837"/>
    <rect class="fil3 str3" x="2637" y="7050" width="3567" height="837"/>
   </g>
   <g>
    <g>
     <path class="fil4 str4" d="M14273 14105c86,0 173,0 259,0 87,0 173,0 259,0l0 88 -518 0 0 -88z"/>
     <path class="fil4 str4" d="M14105 17989c0,-567 0,-1135 0,-1702 0,-568 0,-1135 0,-1703l176 0 0 3405 -176 0z"/>
     <g>
      <polygon class="fil5 str5" points="13870,13792 14505,13792 14505,15697 13870,15697 "/>
      <circle class="fil6 str6" cx="14187" cy="14178" r="203"/>
      <circle class="fil7 str7" cx="14187" cy="14778" r="203"/>
      <circle class="fil0 str0" cx="14187" cy="15338" r="203"/>
     </g>
     <g>
      <polygon class="fil5 str5" points="14589,13788 15224,13788 15224,14493 14589,14493 "/>
      <circle class="fil8 str8" cx="14906" cy="14134" r="203"/>
      <path class="fil9 str0" d="M14754 14181l157 0 0 46 157 -91 -157 -92 0 46 -157 0 0 91zm78 0m79 23m78 -23m0 -91m-78 -23m-79 23m-78 46"/>
     </g>
    </g>
    <g>
     <path class="fil10 str0" d="M15252 13856c167,0 303,131 303,293 0,162 -136,293 -303,293"/>
     <path class="fil10 str0" d="M15244 13753c212,0 384,176 384,393 0,216 -172,392 -384,392"/>
     <path class="fil10 str0" d="M15252 13936c119,0 215,95 215,212 0,117 -96,212 -215,212"/>
    </g>
    <g>
     <ellipse class="fil10 str6" transform="matrix(-7.25545E-014 -0.891819 0.912315 -7.09245E-014 14183.9 14178.8)" rx="392" ry="384"/>
     <ellipse class="fil10 str6" transform="matrix(-9.32846E-014 -1.14661 1.17298 -9.11878E-014 14175 14175.1)" rx="392" ry="384"/>
     <ellipse class="fil10 str6" transform="matrix(-5.18249E-014 -0.636998 0.651658 -5.06591E-014 14183.9 14177.6)" rx="392" ry="384"/>
    </g>
   </g>
   <g>
    <path class="fil4 str4" d="M15349 5770c0,-568 0,-1135 0,-1703 0,-567 0,-1135 0,-1702l177 0 0 3405 -177 0z"/>
    <g>
     <g>
      <polygon class="fil5 str5" points="15152,1715 15747,1399 15768,3418 15173,3734 "/>
      <circle class="fil6 str6" transform="matrix(1.30778 -0.693685 0.0152882 1.47773 15452.9 1965.74)" r="146"/>
      <circle class="fil7 str7" transform="matrix(1.30778 -0.693685 0.0152882 1.47773 15459.5 2601.8)" r="146"/>
      <circle class="fil0 str0" transform="matrix(1.30778 -0.693685 0.0152882 1.47773 15465.7 3195.44)" r="146"/>
     </g>
     <g>
      <ellipse class="fil10 str0" transform="matrix(-0.00978096 -0.945405 0.855907 -0.453999 15467.1 3194.5)" rx="392" ry="384"/>
      <ellipse class="fil10 str0" transform="matrix(-0.0125754 -1.21551 1.10046 -0.583714 15458.8 3195.07)" rx="392" ry="384"/>
      <ellipse class="fil10 str0" transform="matrix(-0.00698623 -0.675273 0.611366 -0.324287 15467.1 3193.27)" rx="392" ry="384"/>
     </g>
    </g>
   </g>
   <g>
    <ellipse class="fil10 str0" transform="matrix(-8.06161E-014 -0.99091 1.01368 -7.8805E-014 4413.28 12564.5)" rx="392" ry="384"/>
    <ellipse class="fil10 str0" transform="matrix(-1.0365E-013 -1.27402 1.30331 -1.0132E-013 4403.42 12560.5)" rx="392" ry="384"/>
    <ellipse class="fil10 str0" transform="matrix(-5.75833E-014 -0.707775 0.724064 -5.62879E-014 4413.28 12563.2)" rx="392" ry="384"/>
   </g>
   <polygon class="fil5 str5" points="4166,11243 4762,10885 4723,12938 4126,13296 "/>
   <path class="fil4 str4" d="M4323 14977c9,-567 17,-1135 26,-1702 8,-568 17,-1135 25,-1703l177 0 -52 3405 -176 0z"/>
   <g>
    <path class="fil11" d="M11293 14584l-51 141c0,0 -158,9 -162,18l227 57 59 -198 -73 -18z"/>
    <polygon class="fil11" points="12488,14812 12617,14812 12712,14746 12595,14571 12530,14607 12607,14737 12583,14789 "/>
    <polygon class="fil12" points="11695,13266 11232,14683 11364,14714 11725,13972 11923,13644 12124,14098 12561,14707 12658,14644 12321,13933 12212,13287 "/>
    <path class="fil11" d="M11910 13603c1,0 2,0 3,-1 3,-2 4,-5 2,-7 -11,-15 -29,-50 -46,-83 -18,-36 -35,-69 -47,-85 -1,-2 -5,-3 -8,-1 -2,1 -3,5 -1,7 10,15 28,50 46,83 18,36 35,69 46,84 1,2 3,3 5,3z"/>
    <path class="fil13" d="M11886 12346l-56 -118c0,0 -49,12 -70,-7 -8,-7 -16,-45 -20,-91 -1,-6 -1,-12 -2,-18 0,-6 -27,11 -27,4 0,-12 26,-48 26,-61 1,-59 11,-117 35,-138 56,-50 250,-57 276,29 27,86 2,184 -76,251l52 122 -138 27z"/>
    <path class="fil14" d="M11750 11868c-34,30 -53,74 -52,117 80,39 159,72 238,110 -10,111 3,227 61,325 58,98 165,175 286,185 121,9 251,-60 282,-167 27,-91 -16,-187 -81,-259 -65,-72 -151,-126 -229,-186 -75,-58 -146,-124 -237,-160 -90,-35 -197,-27 -268,35z"/>
    <path class="fil11" d="M12096 12335c0,0 120,53 190,132 70,80 70,574 37,590 -33,16 -195,32 -205,27 -10,-6 0,-152 0,-152l-22 -597z"/>
    <path class="fil15" d="M12197 13046l28 99c12,23 8,51 -11,70l0 0 -2 72 -517 -21 -35 -71 88 -389c0,0 -37,-105 -44,-156 -7,-51 173,-308 199,-339 26,-31 128,-37 171,0 44,37 92,155 102,189 10,34 21,546 21,546z"/>
    <path class="fil11" d="M12147 12427c0,0 -112,-105 -263,19 0,0 51,-172 212,-111 0,0 44,44 51,92z"/>
    <path class="fil12" d="M12246 13034c3,0 6,-2 6,-5 23,-183 29,-368 18,-552 0,-3 -3,-5 -6,-5 -4,0 -6,3 -6,6 12,183 6,368 -17,550 -1,3 2,5 5,6 0,0 0,0 0,0z"/>
    <path class="fil13" d="M11626 13318c19,-2 36,-40 42,-64 25,-4 64,-31 89,-36 -54,122 -63,187 -72,201 -21,30 -35,46 -55,26 -21,-21 -43,15 -57,-5 -14,-20 -45,18 -50,-9 -4,-26 44,-58 44,-58 0,0 -16,-48 59,-55z"/>
    <path class="fil15" d="M12112 12446c16,79 -371,879 -371,879l-129 -41c0,0 66,-166 64,-228 -2,-63 1,-86 61,-135 59,-49 59,-342 104,-421 44,-80 259,-110 271,-54z"/>
    <path class="fil16" d="M11745 13288c2,0 4,-1 5,-3 81,-154 259,-520 308,-671 1,-3 -1,-6 -4,-7 -3,0 -7,1 -7,4 -49,150 -226,516 -307,669 -2,3 0,6 2,7 1,1 2,1 3,1z"/>
    <path class="fil16" d="M11804 12666l0 0c3,0 6,-2 6,-5 -1,-72 26,-142 76,-198 2,-3 1,-6 -1,-8 -3,-2 -6,-1 -8,1 -51,58 -79,131 -79,205 0,3 3,5 6,5z"/>
   </g>
   <g>
    <path class="fil11" d="M7452 13912c-47,138 -44,294 18,427 61,132 182,238 324,271 83,19 173,14 250,-23 77,-36 140,-104 163,-186 24,-82 4,-177 -55,-238 -44,-47 -107,-73 -145,-125 -65,-88 -38,-220 -103,-309 -59,-81 -183,-95 -272,-50 -90,46 -148,137 -180,233z"/>
    <path class="fil17" d="M8176 16558l0 0c0,0 129,50 131,62l-194 0 -13 -122 76 60z"/>
    <path class="fil17" d="M7303 16279l-46 38c0,0 6,128 -1,136l-100 -161 100 -71 47 58z"/>
    <path class="fil13" d="M7810 15578c0,0 -34,304 -40,315 -7,12 -513,424 -513,424l-38 -69 359 -510 -52 -605 284 445z"/>
    <path class="fil13" d="M7514 14811c128,13 258,23 370,81l-30 99c0,0 176,512 182,554 7,43 140,1013 140,1013l-71 -9 -295 -948c0,0 -370,-439 -352,-612 8,-77 32,-136 56,-178z"/>
    <path class="fil18" d="M7975 15350c-53,-160 -121,-359 -121,-359l30 -99c-112,-58 -242,-68 -370,-81 -24,42 -48,101 -56,178 -5,55 27,135 74,220l23 264c45,-7 89,-16 134,-27 0,0 0,0 0,0 5,-1 10,-3 15,-4 5,-2 11,-3 16,-5l0 0c43,-12 86,-25 129,-39 42,-15 84,-31 126,-48z"/>
    <path class="fil13" d="M7793 14200c0,0 -16,-140 10,-162 16,-15 72,8 87,-15 5,-7 -4,-59 -7,-94 -1,-9 26,2 25,-8 -2,-11 -48,-58 -46,-70 23,-188 -289,-193 -298,-46 -5,92 39,185 126,236l-51 98 154 61z"/>
    <path class="fil13" d="M7880 14540l137 221c0,0 293,147 310,153 17,6 105,80 115,97 11,17 -33,25 -41,24 -8,0 -34,-11 -34,-11 0,0 -52,31 -55,30 -2,0 -37,-75 -37,-75 0,0 -342,-88 -369,-110 -27,-23 -133,-279 -133,-279l107 -50z"/>
    <path class="fil14" d="M7871 14487l138 293c0,0 134,-29 180,31 47,59 99,85 99,85l-13 83c0,0 -339,-31 -391,-87 -52,-56 -48,-362 -48,-362l35 -43z"/>
    <polygon class="fil17" points="7795,14204 7830,14139 7690,14041 7641,14114 "/>
    <path class="fil14" d="M7537 14192c0,0 88,-124 184,-81 24,11 210,253 214,293 3,41 -74,183 -74,183l80 477 -549 -151 122 -294c0,0 -39,-160 23,-427z"/>
    <path class="fil19" d="M7650 15392c-1,0 -3,-1 -4,-2 -37,-52 -70,-99 -101,-148 -1,-3 -1,-6 2,-8 2,-1 6,0 7,2 30,49 63,96 100,148 2,2 2,5 -1,7 -1,1 -2,1 -3,1z"/>
    <path class="fil13" d="M9114 14128l31 -119c0,0 44,13 64,-6 8,-8 16,-43 19,-98 0,-6 22,6 22,0 1,-12 -39,-65 -35,-87 12,-79 6,-100 -17,-123 -52,-50 -231,-57 -255,30 -25,87 -17,129 28,253l-27 123 170 27z"/>
    <path class="fil17" d="M9555 16399l46 138c0,0 141,9 145,18l-203 56 -53 -194 65 -18z"/>
    <polygon class="fil17" points="8484,16623 8367,16623 8283,16558 8388,16386 8445,16421 8376,16549 8398,16600 "/>
    <path class="fil13" d="M8770 15730c-44,-9 -57,-8 -101,-20l-330 756 60 41 395 -606 61 -145c-30,-6 -54,-21 -85,-26z"/>
    <path class="fil13" d="M9353 15675c-69,26 -84,53 -155,73l11 50 307 716 72 -14 -235 -825z"/>
    <path class="fil20" d="M9399 15678l-142 -551 -527 0 -93 606c45,12 90,24 135,33 32,6 64,11 95,17l144 -369 151 354c73,-20 166,-63 237,-90z"/>
    <path class="fil15" d="M8940 14002c0,0 108,34 163,96 54,62 141,243 143,263 2,20 -27,243 -27,243l97 590c0,0 -416,64 -624,0l109 -488c0,0 -16,-171 -33,-191 -18,-21 13,-191 27,-270 14,-79 76,-169 97,-188 22,-18 48,-55 48,-55z"/>
    <path class="fil15" d="M8976 14015c-50,-33 -225,-39 -246,-26 -21,13 27,56 22,84 -5,28 -107,65 -73,126 35,62 137,134 137,134l160 -318z"/>
    <path class="fil21" d="M9026 15363c-1,0 -2,-1 -3,-1 -2,-2 -3,-5 -1,-7l58 -91c2,-2 5,-3 7,-1 3,1 3,4 2,7l-59 90c-1,2 -2,3 -4,3z"/>
    <path class="fil11" d="M9232 13586c1,11 -3,22 -11,29 5,-19 -13,-38 -33,-38 -19,-1 -33,11 -43,27 4,-9 19,-6 23,2 4,9 -1,20 -9,26 -8,5 -18,6 -28,6 -23,0 -45,-6 -67,-12 -22,-6 -44,-12 -67,-12 -23,0 -47,7 -63,22 -16,16 -22,47 -11,67 -57,24 -18,124 0,168 17,44 48,107 48,107l58 -58c0,0 -45,-52 -25,-75 20,-23 40,13 40,13 0,0 7,110 22,117 16,6 106,71 144,57 39,-14 18,-127 18,-127l-57 -6c-52,-6 -90,-51 -88,-103l0 0c0,0 61,20 72,-32 43,-6 94,-23 111,-63 16,-40 3,-92 -34,-115z"/>
    <path class="fil22" d="M9141 13638c0,0 -96,220 -203,270 0,0 -82,-140 -80,-202 2,-62 47,-102 118,-107 71,-6 165,39 165,39z"/>
    <path class="fil13" d="M8462 14971c-10,-15 11,-49 26,-68 -12,-20 -12,-64 -22,-85 -64,112 -110,158 -115,173 -11,34 -16,53 11,55 28,2 12,39 35,37 23,-3 12,42 34,29 23,-12 21,-66 21,-66 0,0 46,-18 10,-75z"/>
    <path class="fil15" d="M8862 14098c-70,37 -470,797 -470,797l104 65c0,0 90,-147 139,-184 49,-37 65,-53 70,-125 5,-71 230,-249 266,-329 36,-80 -60,-249 -109,-224z"/>
    <path class="fil23" d="M8961 13846c-1,0 -3,-1 -4,-2 -2,-2 -2,-5 0,-7 44,-48 81,-103 110,-162 1,-2 4,-3 7,-2 2,1 3,4 2,7 -29,60 -66,115 -111,164 -1,1 -3,2 -4,2z"/>
    <path class="fil16" d="M8768 14520c-3,0 -5,-2 -5,-4 -29,-152 -10,-357 131,-477 2,-2 5,-2 7,1 2,2 2,5 0,7 -138,117 -157,318 -128,467 1,3 -1,5 -4,6 0,0 -1,0 -1,0z"/>
    <path class="fil15" d="M9287 14524l-61 0c0,0 -148,-344 -199,-386 -51,-43 -65,360 20,480 84,121 104,121 266,57 163,-64 -26,-151 -26,-151z"/>
    <path class="fil13" d="M9771 14387c6,-15 2,-63 -4,-59 -6,5 -11,31 -11,31l-2 13c0,0 -10,-3 -10,0 -1,4 -4,20 -4,20l-2 31 33 -36z"/>
    <polygon class="fil17" points="9695,14448 9732,14313 9762,14206 9801,14220 9729,14452 "/>
    <path class="fil13" d="M9311 14527l31 123c0,0 312,-123 329,-128 0,0 48,-38 57,-46 10,-7 40,-82 43,-89 2,-7 -56,-11 -56,-11 0,0 -2,-36 -5,-47 -1,-7 -15,-35 -21,-16l-12 56 -19 18c-9,13 -20,69 -20,69l-327 71z"/>
    <path class="fil15" d="M9287 14524c0,0 33,-93 94,-55 62,37 69,-9 69,-9l167 -46 54 108 -358 153 -26 -151z"/>
    <path class="fil16" d="M9146 14724c-21,0 -44,-8 -64,-23 -25,-18 -42,-42 -59,-65 -48,-70 -90,-144 -126,-220 -23,-50 -45,-104 -47,-162 -2,-53 13,-99 40,-123 20,-18 46,-25 77,-20 2,0 4,3 4,6 -1,3 -3,5 -6,4 -27,-4 -50,2 -68,18 -25,22 -38,65 -37,115 2,56 24,109 47,157 35,76 77,150 125,219 16,22 33,46 56,63 24,17 53,24 76,18 3,0 6,1 7,4 0,3 -1,6 -4,6 -7,2 -14,3 -21,3z"/>
    <path class="fil16" d="M9187 14494c-1,0 -1,0 -1,0 -3,0 -5,-3 -5,-6 4,-44 5,-95 -27,-124 -6,-5 -13,-10 -20,-15 -6,-4 -13,-8 -19,-13 -20,-17 -31,-41 -42,-64 -14,-28 -26,-53 -50,-67 -3,-2 -3,-5 -2,-7 1,-3 5,-4 7,-2 27,15 41,44 54,71 11,22 22,45 40,61 5,5 11,8 18,13 7,4 14,9 21,15 35,33 34,86 31,133 0,3 -3,5 -5,5z"/>
    <path class="fil17" d="M7892 14774l-512 -108 -96 373 523 125c34,-129 45,-263 85,-390z"/>
    <path class="fil13" d="M7564 15066c-12,-13 1,-51 12,-72 -15,-18 -24,-61 -38,-79 -41,123 -76,177 -78,193 -5,35 -6,54 22,51 27,-4 19,36 41,29 22,-7 20,39 40,22 20,-17 6,-69 6,-69 0,0 42,-26 -5,-75z"/>
    <path class="fil14" d="M7537 14192c-48,63 -65,842 -65,842l121 17c0,0 21,-171 51,-225 29,-54 37,-75 11,-143 -25,-67 75,-246 75,-333 -1,-88 -159,-202 -193,-158z"/>
    <path class="fil24" d="M7906 14874c-2,0 -4,-2 -5,-4l-45 -283c-1,0 -1,-1 0,-2l19 -47c1,-3 4,-4 7,-3 3,1 4,4 3,7l-19 45 45 281c1,3 -1,6 -4,6 0,0 0,0 -1,0z"/>
    <path class="fil24" d="M7657 14661c0,0 -1,0 -1,0 -3,0 -5,-3 -4,-6l27 -281c3,-27 6,-54 0,-81 -7,-29 -24,-51 -46,-60 -2,-1 -4,-4 -3,-7 1,-3 5,-4 7,-3 25,10 45,36 52,68 6,28 3,57 1,84l-28 281c0,3 -3,5 -5,5z"/>
    <path class="fil25" d="M7794 15587c-1,0 -3,0 -4,-2l-86 -119c-2,-3 -1,-6 1,-8 3,-1 6,-1 8,2l86 119c1,2 1,6 -1,7 -1,1 -2,1 -4,1z"/>
    <path class="fil11" d="M7690 14041c149,-89 216,-236 216,-236l-70 -103c0,0 -250,-74 -314,103 -64,178 168,236 168,236z"/>
   </g>
   <rect class="fil3 str3" transform="matrix(-2.08861E-014 0.3276 -1.34058 -1.34071E-013 13439 -5.87908)" width="20999" height="176"/>
  </g>
 </g>
</svg>
