<?xml version="1.0" encoding="UTF-8"?>
<!DOCTYPE svg PUBLIC "-//W3C//DTD SVG 1.1//EN" "http://www.w3.org/Graphics/SVG/1.1/DTD/svg11.dtd">
<!-- Creator: CorelDRAW X7 -->
<svg xmlns="http://www.w3.org/2000/svg" xml:space="preserve" width="200mm" height="200mm" version="1.1" style="shape-rendering:geometricPrecision; text-rendering:geometricPrecision; image-rendering:optimizeQuality; fill-rule:evenodd; clip-rule:evenodd"
viewBox="0 0 20000 20000"
 xmlns:xlink="http://www.w3.org/1999/xlink"
 xmlns:osb="http://www.openswatchbook.org/uri/2009/osb"
 xmlns:dc="http://purl.org/dc/elements/1.1/"
 xmlns:cc="http://creativecommons.org/ns#"
 xmlns:rdf="http://www.w3.org/1999/02/22-rdf-syntax-ns#"
 xmlns:svg="http://www.w3.org/2000/svg"
 xmlns:sodipodi="http://sodipodi.sourceforge.net/DTD/sodipodi-0.dtd"
 xmlns:inkscape="http://www.inkscape.org/namespaces/inkscape"
 inkscape:version="0.92.4 (5da689c313, 2019-01-14)"
 sodipodi:docname="krizovatka3.svg">
 <defs>
  <style type="text/css">
   <![CDATA[
    .str3 {stroke:#2B2A29;stroke-width:3.8}
    .str1 {stroke:#2B2A29;stroke-width:3.84}
    .str2 {stroke:#55D400;stroke-width:50}
    .str4 {stroke:red;stroke-width:50}
    .str0 {stroke:#E1BF9D;stroke-width:20}
    .fil8 {fill:none}
    .fil4 {fill:black}
    .fil0 {fill:#009846}
    .fil10 {fill:#338000}
    .fil7 {fill:#55D400}
    .fil5 {fill:maroon}
    .fil2 {fill:#999694}
    .fil6 {fill:#AA8800}
    .fil1 {fill:#E1BF9D}
    .fil3 {fill:#FEFEFE}
    .fil9 {fill:red}
   ]]>
  </style>
 </defs>
 <g id="Vrstva_x0020_1">
  <metadata id="CorelCorpID_0Corel-Layer"/>
  <sodipodi:namedview id="base" pagecolor="#ffffff" bordercolor="#666666" borderopacity="1.0" inkscape:pageopacity="0.0" inkscape:pageshadow="2" inkscape:zoom="0.49497475" inkscape:cx="605.69473" inkscape:cy="618.26729" inkscape:document-units="mm" inkscape:current-layer="layer1" showgrid="false" inkscape:window-width="960" inkscape:window-height="1001" inkscape:window-x="-9" inkscape:window-y="-9" inkscape:window-maximized="0"/>
  <sodipodi:namedview id="base" pagecolor="#ffffff" bordercolor="#666666" borderopacity="1.0" inkscape:pageopacity="0.0" inkscape:pageshadow="2" inkscape:zoom="0.49497475" inkscape:cx="661.57023" inkscape:cy="368.01998" inkscape:document-units="mm" inkscape:current-layer="layer1" showgrid="false" inkscape:window-width="958" inkscape:window-height="991" inkscape:window-x="-8" inkscape:window-y="0" inkscape:window-maximized="0"/>
  <sodipodi:namedview id="base" pagecolor="#ffffff" bordercolor="#666666" borderopacity="1.0" inkscape:pageopacity="0.0" inkscape:pageshadow="2" inkscape:zoom="0.49497475" inkscape:cx="686.24111" inkscape:cy="629.46196" inkscape:document-units="mm" inkscape:current-layer="layer1" showgrid="false" inkscape:window-width="960" inkscape:window-height="1001" inkscape:window-x="-9" inkscape:window-y="-9" inkscape:window-maximized="0" showguides="false"/>
  <sodipodi:namedview id="base" pagecolor="#ffffff" bordercolor="#666666" borderopacity="1.0" inkscape:pageopacity="0.0" inkscape:pageshadow="2" inkscape:zoom="0.49497475" inkscape:cx="605.69473" inkscape:cy="618.26729" inkscape:document-units="mm" inkscape:current-layer="layer1" showgrid="false" inkscape:window-width="960" inkscape:window-height="1001" inkscape:window-x="-9" inkscape:window-y="-9" inkscape:window-maximized="0"/>
  <sodipodi:namedview id="base" pagecolor="#ffffff" bordercolor="#666666" borderopacity="1.0" inkscape:pageopacity="0.0" inkscape:pageshadow="2" inkscape:zoom="0.49497475" inkscape:cx="661.57023" inkscape:cy="368.01998" inkscape:document-units="mm" inkscape:current-layer="layer1" showgrid="false" inkscape:window-width="958" inkscape:window-height="991" inkscape:window-x="-8" inkscape:window-y="0" inkscape:window-maximized="0"/>
  <sodipodi:namedview id="base" pagecolor="#ffffff" bordercolor="#666666" borderopacity="1.0" inkscape:pageopacity="0.0" inkscape:pageshadow="2" inkscape:zoom="0.49497475" inkscape:cx="686.24111" inkscape:cy="629.46196" inkscape:document-units="mm" inkscape:current-layer="layer1" showgrid="false" inkscape:window-width="960" inkscape:window-height="1001" inkscape:window-x="-9" inkscape:window-y="-9" inkscape:window-maximized="0" showguides="false"/>
  <g id="_2085256986752">
   <rect id="rect1753" class="fil0" x="9" y="16" width="5493" height="6560"/>
   <rect class="fil1 str0" x="9" y="4230" width="5288" height="2168"/>
   <rect class="fil1 str0" transform="matrix(-3.63461E-014 -0.304135 -0.632321 9.55907E-014 5295.98 6404.4)" width="21007" height="3781"/>
   <rect id="rect1759" class="fil0" x="14103" y="15" width="5879" height="6382"/>
   <rect class="fil1 str0" transform="matrix(2.04765E-014 0.303998 0.573463 -5.67576E-014 14154 15.28)" width="21007" height="3781"/>
   <rect class="fil1 str0" x="14148" y="4011" width="5829" height="2391"/>
   <rect id="rect1755" class="fil0" y="14990" width="5818" height="4992"/>
   <g id="_2394366138448">
    <rect class="fil1 str0" transform="matrix(-6.04539E-015 -0.240141 -0.52554 1.69976E-014 5340.11 19978.2)" width="21007" height="3781"/>
    <rect class="fil1 str0" y="14934" width="5387" height="2137"/>
   </g>
   <rect id="rect1757" class="fil0" x="14046" y="14955" width="5952" height="5001"/>
   <g id="_2394366135984">
    <rect class="fil1 str0" transform="matrix(6.50097E-015 -0.240141 0.565144 1.69976E-014 14253.9 19978.2)" width="21007" height="3781"/>
    <rect class="fil1 str0" x="14204" y="14934" width="5793" height="2137"/>
   </g>
   <rect id="rect42" class="fil2" x="5313" y="15" width="8919" height="19967"/>
   <rect id="rect106" class="fil3" x="9851" y="49" width="600" height="1764"/>
   <rect id="rect106-7" class="fil3" x="9859" y="2432" width="600" height="1764"/>
   <rect id="rect106-9" class="fil3" x="9860" y="4785" width="600" height="1764"/>
   <rect id="rect106-4" class="fil3" x="9850" y="17050" width="600" height="1764"/>
   <rect id="rect106-39" class="fil3" x="9851" y="19392" width="600" height="623"/>
   <rect id="rect42-8" class="fil2" transform="matrix(1.87128E-014 1 -0.99999 3.73647E-014 19997.1 6397.49)" width="8415" height="19997"/>
   <rect id="rect106-3-1-9" class="fil3" transform="matrix(2.80386E-014 -1 0.99999 2.49302E-014 147.442 10714.1)" width="566" height="1870"/>
   <rect id="rect106-7-1-1-8" class="fil3" transform="matrix(-2.81381E-014 1 -0.99999 -2.50298E-014 19912.8 10175.5)" width="566" height="1870"/>
   <rect id="rect106-4-0" class="fil3" x="9850" y="14358" width="600" height="1764"/>
   <rect id="rect106-4-4" class="fil3" transform="matrix(2.80386E-014 -1 0.99999 2.49302E-014 15330.8 10780.9)" width="566" height="1870"/>
   <rect id="rect106-4-42" class="fil3" transform="matrix(2.80386E-014 -1 0.99999 2.49302E-014 2821.53 10638.3)" width="566" height="1870"/>
   <rect id="rect74-9-2-7" class="fil4" transform="matrix(1.53821E-014 -1 0.99999 4.53583E-014 8.30165 6575.75)" width="178" height="5493"/>
   <rect id="rect74-9-2-7-9" class="fil4" transform="matrix(1.53821E-014 -1 0.99999 4.55804E-014 -0.536463 14990.3)" width="178" height="5483"/>
   <rect id="rect74-9-2-7-5" class="fil4" transform="matrix(1.51601E-014 -1 0.99999 4.62465E-014 14045.5 14954.6)" width="178" height="5954"/>
   <rect id="rect74-9-2-7-5-3" class="fil4" transform="matrix(1.51601E-014 -1 0.99999 4.60245E-014 14042.7 6575.75)" width="178" height="5939"/>
   <rect id="rect74-9-2-7-5-1" class="fil4" x="14043" y="15" width="189" height="6536"/>
   <rect id="rect74-9-2-7-5-1-2" class="fil4" x="5313" y="15" width="189" height="6536"/>
   <rect id="rect74-9-2-7-5-1-2-6" class="fil4" x="14043" y="14782" width="189" height="5200"/>
   <rect id="rect74-9-2-7-5-1-2-6-9" class="fil4" x="5294" y="14812" width="189" height="5200"/>
   <rect id="rect2421" class="fil4" x="14741" y="14287" width="1379" height="2540"/>
   <circle id="path2423" class="fil5" cx="15423" cy="14737" r="350"/>
   <circle id="path2423-7" class="fil6" cx="15418" cy="15534" r="350"/>
   <circle id="path2423-2" class="fil7" cx="15428" cy="16341" r="350"/>
   <rect id="rect3261" class="fil4 str1" x="15335" y="16816" width="292" height="618"/>
   <g id="_2394366122640">
    <ellipse class="fil8 str2" transform="matrix(-1.24253E-013 -1.52729 1.56237 -1.21463E-013 15430.7 16349.5)" rx="392" ry="384"/>
    <ellipse class="fil8 str2" transform="matrix(-1.59754E-013 -1.96364 2.00878 -1.56165E-013 15415.7 16343.2)" rx="392" ry="384"/>
    <ellipse class="fil8 str2" transform="matrix(-8.87524E-014 -1.0909 1.11599 -8.67568E-014 15430.7 16347.5)" rx="392" ry="384"/>
   </g>
   <g id="_2394366123920">
    <ellipse class="fil8 str2" transform="matrix(-1.68274E-013 -2.0684 2.11592 -1.64496E-013 3975 4860.53)" rx="392" ry="384"/>
    <ellipse class="fil8 str2" transform="matrix(-2.16354E-013 -2.65934 2.72047 -2.11493E-013 3954.59 4851.95)" rx="392" ry="384"/>
    <ellipse class="fil8 str2" transform="matrix(-1.20197E-013 -1.47739 1.51138 -1.17494E-013 3975 4857.75)" rx="392" ry="384"/>
   </g>
   <rect id="rect2421_0" class="fil4" x="3266" y="3001" width="1379" height="2540"/>
   <rect id="rect3261_1" class="fil4 str1" x="3860" y="5530" width="292" height="618"/>
   <g id="_2394366119408">
    <rect id="rect2421-2" class="fil4" transform="matrix(0.937837 -0.506519 0.00704021 1.06247 14644.7 2878.34)" width="1301" height="2692"/>
    <ellipse id="path2423-6" class="fil9" transform="matrix(0.884667 -0.477803 0.00703931 1.06234 15251.4 3058.99)" rx="370" ry="349"/>
    <ellipse id="path2423-7-9" class="fil6" transform="matrix(0.884667 -0.477803 0.00703931 1.06234 15252.8 3954.88)" rx="370" ry="349"/>
    <ellipse id="path2423-2-0" class="fil10" transform="matrix(0.884667 -0.477803 0.00703931 1.06234 15268 4863.22)" rx="370" ry="349"/>
    <rect id="rect3261-4" class="fil4 str3" transform="matrix(0.937837 -0.506519 0.00704021 1.06247 15188.8 5442.78)" width="275" height="655"/>
    <g>
     <ellipse class="fil8 str4" transform="matrix(-0.0107525 -1.62271 1.46528 -0.791383 15249.3 3067.85)" rx="392" ry="384"/>
     <ellipse class="fil8 str4" transform="matrix(-0.0138245 -2.08631 1.88392 -1.01749 15235.1 3068.75)" rx="392" ry="384"/>
     <ellipse class="fil8 str4" transform="matrix(-0.00768015 -1.15905 1.04663 -0.565277 15249.3 3065.66)" rx="392" ry="384"/>
    </g>
   </g>
   <rect id="rect3261-4_2" class="fil4 str3" transform="matrix(0.937837 -0.506519 0.00704021 1.06247 4135.08 16497.1)" width="275" height="655"/>
   <g id="_2394366116144">
    <ellipse class="fil8 str4" transform="matrix(-0.0145566 -2.1968 1.98366 -1.07136 4293.75 14460.8)" rx="392" ry="384"/>
    <ellipse class="fil8 str4" transform="matrix(-0.0187153 -2.82442 2.55043 -1.37747 4274.56 14462)" rx="392" ry="384"/>
    <ellipse class="fil8 str4" transform="matrix(-0.0103973 -1.5691 1.41692 -0.765264 4293.73 14457.8)" rx="392" ry="384"/>
   </g>
   <rect id="rect2421-2_3" class="fil4" transform="matrix(0.937837 -0.506519 0.00704021 1.06247 3591.02 13932.6)" width="1301" height="2692"/>
  </g>
 </g>
</svg>
