<?xml version="1.0" encoding="UTF-8"?>
<!DOCTYPE svg PUBLIC "-//W3C//DTD SVG 1.1//EN" "http://www.w3.org/Graphics/SVG/1.1/DTD/svg11.dtd">
<!-- Creator: CorelDRAW X7 -->
<svg xmlns="http://www.w3.org/2000/svg" xml:space="preserve" width="200mm" height="200mm" version="1.1" style="shape-rendering:geometricPrecision; text-rendering:geometricPrecision; image-rendering:optimizeQuality; fill-rule:evenodd; clip-rule:evenodd"
viewBox="0 0 20000 20000"
 xmlns:xlink="http://www.w3.org/1999/xlink"
 xmlns:osb="http://www.openswatchbook.org/uri/2009/osb"
 xmlns:dc="http://purl.org/dc/elements/1.1/"
 xmlns:cc="http://creativecommons.org/ns#"
 xmlns:rdf="http://www.w3.org/1999/02/22-rdf-syntax-ns#"
 xmlns:svg="http://www.w3.org/2000/svg"
 xmlns:sodipodi="http://sodipodi.sourceforge.net/DTD/sodipodi-0.dtd"
 xmlns:inkscape="http://www.inkscape.org/namespaces/inkscape"
 inkscape:version="0.92.4 (5da689c313, 2019-01-14)"
 sodipodi:docname="krizovatka1.svg">
 <defs>
  <style type="text/css">
   <![CDATA[
    .str0 {stroke:black;stroke-width:25}
    .fil2 {fill:black}
    .fil0 {fill:#009846}
    .fil7 {fill:#252422}
    .fil1 {fill:#999694}
    .fil4 {fill:#B3B3B3}
    .fil5 {fill:#E32124}
    .fil3 {fill:#FEFEFE}
    .fil6 {fill:white}
   ]]>
  </style>
 </defs>
 <g id="Vrstva_x0020_1">
  <metadata id="CorelCorpID_0Corel-Layer"/>
  <sodipodi:namedview id="base" pagecolor="#ffffff" bordercolor="#666666" borderopacity="1.0" inkscape:pageopacity="0.0" inkscape:pageshadow="2" inkscape:zoom="0.49497475" inkscape:cx="605.69473" inkscape:cy="618.26729" inkscape:document-units="mm" inkscape:current-layer="layer1" showgrid="false" inkscape:window-width="960" inkscape:window-height="1001" inkscape:window-x="-9" inkscape:window-y="-9" inkscape:window-maximized="0"/>
  <sodipodi:namedview id="base" pagecolor="#ffffff" bordercolor="#666666" borderopacity="1.0" inkscape:pageopacity="0.0" inkscape:pageshadow="2" inkscape:zoom="0.49497475" inkscape:cx="661.57023" inkscape:cy="368.01998" inkscape:document-units="mm" inkscape:current-layer="layer1" showgrid="false" inkscape:window-width="958" inkscape:window-height="991" inkscape:window-x="-8" inkscape:window-y="0" inkscape:window-maximized="0"/>
  <sodipodi:namedview id="base" pagecolor="#ffffff" bordercolor="#666666" borderopacity="1.0" inkscape:pageopacity="0.0" inkscape:pageshadow="2" inkscape:zoom="0.49497475" inkscape:cx="686.24111" inkscape:cy="629.46196" inkscape:document-units="mm" inkscape:current-layer="layer1" showgrid="false" inkscape:window-width="960" inkscape:window-height="1001" inkscape:window-x="-9" inkscape:window-y="-9" inkscape:window-maximized="0" showguides="false"/>
  <sodipodi:namedview id="base" pagecolor="#ffffff" bordercolor="#666666" borderopacity="1.0" inkscape:pageopacity="0.0" inkscape:pageshadow="2" inkscape:zoom="0.49497475" inkscape:cx="605.69473" inkscape:cy="618.26729" inkscape:document-units="mm" inkscape:current-layer="layer1" showgrid="false" inkscape:window-width="960" inkscape:window-height="1001" inkscape:window-x="-9" inkscape:window-y="-9" inkscape:window-maximized="0"/>
  <sodipodi:namedview id="base" pagecolor="#ffffff" bordercolor="#666666" borderopacity="1.0" inkscape:pageopacity="0.0" inkscape:pageshadow="2" inkscape:zoom="0.49497475" inkscape:cx="661.57023" inkscape:cy="368.01998" inkscape:document-units="mm" inkscape:current-layer="layer1" showgrid="false" inkscape:window-width="958" inkscape:window-height="991" inkscape:window-x="-8" inkscape:window-y="0" inkscape:window-maximized="0"/>
  <sodipodi:namedview id="base" pagecolor="#ffffff" bordercolor="#666666" borderopacity="1.0" inkscape:pageopacity="0.0" inkscape:pageshadow="2" inkscape:zoom="0.49497475" inkscape:cx="686.24111" inkscape:cy="629.46196" inkscape:document-units="mm" inkscape:current-layer="layer1" showgrid="false" inkscape:window-width="960" inkscape:window-height="1001" inkscape:window-x="-9" inkscape:window-y="-9" inkscape:window-maximized="0" showguides="false"/>
  <sodipodi:namedview id="base" pagecolor="#ffffff" bordercolor="#666666" borderopacity="1.0" inkscape:pageopacity="0.0" inkscape:pageshadow="2" inkscape:zoom="0.49497475" inkscape:cx="558.93182" inkscape:cy="357.98782" inkscape:document-units="mm" inkscape:current-layer="g2341-6" showgrid="false" inkscape:window-width="1920" inkscape:window-height="1001" inkscape:window-x="-9" inkscape:window-y="-9" inkscape:window-maximized="1"/>
  <sodipodi:namedview id="base" pagecolor="#ffffff" bordercolor="#666666" borderopacity="1.0" inkscape:pageopacity="0.0" inkscape:pageshadow="2" inkscape:zoom="0.49497475" inkscape:cx="605.69473" inkscape:cy="618.26729" inkscape:document-units="mm" inkscape:current-layer="layer1" showgrid="false" inkscape:window-width="960" inkscape:window-height="1001" inkscape:window-x="-9" inkscape:window-y="-9" inkscape:window-maximized="0"/>
  <g id="_1748639135616">
   <rect id="rect1834" class="fil0" width="3455" height="19931"/>
   <rect id="rect1840" class="fil0" x="12328" y="14901" width="7669" height="5026"/>
   <rect id="rect1836" class="fil0" x="12161" y="2" width="7839" height="6610"/>
   <rect id="rect42-94" class="fil1" x="3635" y="2" width="8516" height="19929"/>
   <rect id="rect74-7" class="fil2" x="3455" y="1" width="180" height="19935"/>
   <rect id="rect106-2" class="fil3" x="7787" y="44" width="573" height="1953"/>
   <rect id="rect106-7-1" class="fil3" x="7795" y="2682" width="573" height="1953"/>
   <rect id="rect106-9-8" class="fil3" x="7796" y="5287" width="573" height="1953"/>
   <rect id="rect106-3-1" class="fil3" x="7787" y="7912" width="573" height="1953"/>
   <rect id="rect106-0-8" class="fil3" x="7785" y="10623" width="573" height="1953"/>
   <rect id="rect106-1-1" class="fil3" x="7805" y="13379" width="573" height="1953"/>
   <rect id="rect106-5-6" class="fil3" x="7796" y="16132" width="573" height="1953"/>
   <rect id="rect106-4-2" class="fil3" x="7787" y="18866" width="573" height="1134"/>
   <rect id="rect42-94-7-3" class="fil1" transform="matrix(1.62705E-014 -1 1 4.29158E-014 11462.4 14736.3)" width="9316" height="8535"/>
   <rect id="rect74-9-2-5-0" class="fil2" x="11981" y="2" width="180" height="5599"/>
   <rect id="rect74-9-2-5-0-7" class="fil2" x="12151" y="14886" width="180" height="5045"/>
   <rect id="rect74-9-2-5-6" class="fil2" transform="matrix(1.49382E-014 -1 1 4.69126E-014 12151.2 14933.6)" width="197" height="7847"/>
   <rect id="rect74-9-2-5-6-7" class="fil2" transform="matrix(1.51603E-014 -1 1 4.62465E-014 11971.2 5600.4)" width="197" height="8027"/>
   <rect id="rect106-0-8-5-5" class="fil3" transform="matrix(2.42641E-014 -1 1 2.8927E-014 15510.8 10344.4)" width="627" height="1785"/>
   <rect id="rect106-1-1-8-6" class="fil3" transform="matrix(2.42641E-014 -1 1 2.8927E-014 18030.3 10323)" width="627" height="1785"/>
   <rect id="rect106-3-1-5-6" class="fil3" transform="matrix(2.42641E-014 -1 1 2.8927E-014 12737.8 10352.4)" width="627" height="1785"/>
   <rect id="rect4121-4" class="fil4" x="13443" y="2247" width="105" height="2541"/>
   <g id="_2406562864112">
    <polygon class="fil3" points="13533,2830 13808,1729 14083,627 13358,1249 12649,1856 13083,2350 "/>
    <path class="fil5" d="M13543 2828l8 -7 545 -2185 -16 -20 -715 612 2 16 696 -596 18 -16 -7 28 -531 2129 -3 13 3 26zm-17 -148l-42 -381 271 -1096 -359 307 -22 -205 621 -532 -469 1907zm-885 -798l883 962 19 -16 -3 -26 -4 15 -11 -13 -861 -936 -11 -13 18 -15 696 -596 -2 -16 -714 612 -10 42zm733 -577l22 205 -358 306 445 488 1 -5 42 381 -2 10 -772 -853 622 -532z"/>
    <path class="fil5" d="M13997 771l-621 532 23 205 358 -307 -271 1096 43 382 468 -1908zm-240 430l-358 307 355 -305 3 -2 -271 1096 271 -1096zm-381 102l-621 533 771 853 3 -10 -43 -382 -1 5 -444 -487 358 -307 -23 -205zm23 205l-358 307 443 485 1 2 1 -5 -1 5 -444 -487 358 -307z"/>
   </g>
   <g id="_2394295174096">
    <rect id="rect4121-4_0" class="fil4" x="13141" y="15415" width="101" height="2661"/>
    <g>
     <polygon id="path4088-9" class="fil6" points="12443,15509 13934,15503 13183,14234 " inkscape:connector-curvature="0"/>
     <g>
      <path class="fil5" d="M13179 15580l659 0c32,0 74,-3 102,-19 33,-20 49,-58 49,-95 1,-31 -8,-63 -25,-94l-666 -1146c-14,-24 -40,-59 -64,-73l0 0c-15,-9 -35,-13 -55,-13l0 112 702 1216 -702 0 0 112zm-660 0l660 0 0 -112 -703 0 703 -1216 0 -112c-21,0 -41,4 -56,13l0 0c-24,13 -50,49 -64,73l-666 1146c-32,56 -42,151 24,189 25,14 73,19 102,19z"/>
      <polygon class="fil7" points="13264,14940 13264,14730 13169,14638 13076,14730 13076,15331 13171,15243 13264,15331 13264,15035 13450,15035 13450,14940 "/>
     </g>
    </g>
   </g>
   <path class="fil3 str0" d="M1638 3580l660 0 0 -112 -4 -381 4 -835 0 -112c-20,0 -41,4 -56,13l0 0c-23,13 -50,49 -63,73l-666 1146c-32,56 -42,151 24,189 24,14 73,19 101,19z"/>
   <path class="fil3 str0" d="M2298 3580l660 0c32,0 74,-3 102,-19 33,-20 49,-58 49,-95 0,-31 -8,-63 -26,-94l-665 -1146c-14,-24 -40,-59 -64,-73l0 0c-15,-9 -35,-13 -56,-13l-33 4 -38 20 -450 752 -197 342 -67 114 -25 99 9 44 40 46 114 19 579 0 68 0z"/>
   <rect id="rect4121-4_1" class="fil4" x="2261" y="2738" width="101" height="3338"/>
  </g>
 </g>
</svg>
