<?xml version="1.0" encoding="UTF-8"?>
<!DOCTYPE svg PUBLIC "-//W3C//DTD SVG 1.1//EN" "http://www.w3.org/Graphics/SVG/1.1/DTD/svg11.dtd">
<!-- Creator: CorelDRAW X7 -->
<svg xmlns="http://www.w3.org/2000/svg" xml:space="preserve" width="210mm" height="297mm" version="1.1" style="shape-rendering:geometricPrecision; text-rendering:geometricPrecision; image-rendering:optimizeQuality; fill-rule:evenodd; clip-rule:evenodd"
viewBox="0 0 21000 29700"
 xmlns:xlink="http://www.w3.org/1999/xlink">
 <defs>
  <style type="text/css">
   <![CDATA[
    .str1 {stroke:#E1BF9D;stroke-width:20}
    .str0 {stroke:#009846;stroke-width:20}
    .str2 {stroke:#999694;stroke-width:20}
    .str3 {stroke:#FEFEFE;stroke-width:20;stroke-linejoin:round}
    .str4 {stroke:#266B47;stroke-width:20;stroke-linejoin:round}
    .fil3 {fill:#FEFEFE}
    .fil1 {fill:#E1BF9D}
    .fil4 {fill:#266B47}
    .fil0 {fill:#009846}
    .fil2 {fill:#999694}
   ]]>
  </style>
 </defs>
 <g id="Vrstva_x0020_1">
  <metadata id="CorelCorpID_0Corel-Layer"/>
  <rect class="fil0 str0" x="39" y="2922" width="20994" height="22221"/>
  <rect class="fil1 str1" x="30" y="7705" width="21003" height="2721"/>
  <rect class="fil1 str1" transform="matrix(6.33249E-015 -0.305966 0.892905 3.02614E-014 13794.6 25143.3)" width="21007" height="3781"/>
  <rect class="fil1 str1" x="39" y="17609" width="20989" height="3090"/>
  <rect class="fil1 str1" transform="matrix(5.42624E-015 -0.307578 0.76512 3.04208E-014 4123.33 25143.2)" width="21007" height="3781"/>
  <rect class="fil2 str2" x="39" y="10432" width="20994" height="7176"/>
  <rect class="fil2 str2" transform="matrix(-2.66454E-014 0.697331 -1.30437 -2.17603E-013 14260.9 10432.3)" width="21096" height="5786"/>
  <rect class="fil3 str3" x="43" y="17208" width="7135" height="236"/>
  <rect class="fil3 str3" transform="matrix(-2.08861E-014 0.377885 -1.34058 -1.54651E-013 7207.76 17208)" width="20999" height="176"/>
  <rect class="fil3 str3" x="13889" y="17208" width="7144" height="236"/>
  <rect class="fil3 str3" transform="matrix(-2.08861E-014 0.377885 -1.34058 -1.54651E-013 13967.1 17208)" width="20999" height="176"/>
  <rect class="fil3 str3" x="43" y="10675" width="20990" height="236"/>
  <rect class="fil3 str3" x="17319" y="13912" width="3714" height="236"/>
  <rect class="fil3 str3" x="12559" y="13912" width="3714" height="236"/>
  <rect class="fil3 str3" x="7887" y="13912" width="3714" height="236"/>
  <rect class="fil3 str3" x="3207" y="13912" width="3714" height="236"/>
  <rect class="fil3 str3" x="39" y="13912" width="2128" height="236"/>
  <rect class="fil4 str4" x="63" y="15860" width="7144" height="236"/>
  <rect class="fil4 str4" x="13888" y="15860" width="7144" height="236"/>
  <rect class="fil4 str4" x="10068" y="15860" width="866" height="236"/>
  <rect class="fil4 str4" x="12448" y="15860" width="866" height="236"/>
  <rect class="fil4 str4" x="11248" y="15860" width="866" height="236"/>
  <rect class="fil4 str4" x="8908" y="15860" width="866" height="236"/>
  <rect class="fil4 str4" x="7748" y="15860" width="866" height="236"/>
  <rect class="fil4 str4" x="10068" y="17260" width="866" height="236"/>
  <rect class="fil4 str4" x="12448" y="17260" width="866" height="236"/>
  <rect class="fil4 str4" x="11248" y="17260" width="866" height="236"/>
  <rect class="fil4 str4" x="8908" y="17260" width="866" height="236"/>
  <rect class="fil4 str4" x="7748" y="17260" width="866" height="236"/>
 </g>
</svg>
