<?xml version="1.0" encoding="UTF-8"?>
<!DOCTYPE svg PUBLIC "-//W3C//DTD SVG 1.1//EN" "http://www.w3.org/Graphics/SVG/1.1/DTD/svg11.dtd">
<!-- Creator: CorelDRAW X7 -->
<svg xmlns="http://www.w3.org/2000/svg" xml:space="preserve" width="210mm" height="297mm" version="1.1" style="shape-rendering:geometricPrecision; text-rendering:geometricPrecision; image-rendering:optimizeQuality; fill-rule:evenodd; clip-rule:evenodd"
viewBox="0 0 21000 29700"
 xmlns:xlink="http://www.w3.org/1999/xlink">
 <defs>
  <style type="text/css">
   <![CDATA[
    .str7 {stroke:#EF7F1A;stroke-width:20}
    .str6 {stroke:#E31E24;stroke-width:20}
    .str1 {stroke:#E1BF9D;stroke-width:20}
    .str5 {stroke:#575757;stroke-width:20}
    .str8 {stroke:#1F1B20;stroke-width:20}
    .str0 {stroke:#009846;stroke-width:20}
    .str2 {stroke:#999694;stroke-width:20}
    .str3 {stroke:#FEFEFE;stroke-width:20;stroke-linejoin:round}
    .str4 {stroke:#2B2A29;stroke-width:20;stroke-linejoin:round}
    .fil10 {fill:none}
    .fil3 {fill:#FEFEFE}
    .fil4 {fill:#2B2A29}
    .fil14 {fill:#FDC619}
    .fil24 {fill:#F6A30A}
    .fil13 {fill:#F18A69}
    .fil7 {fill:#EF7F1A}
    .fil18 {fill:#EC647A}
    .fil22 {fill:#EA5453}
    .fil6 {fill:#E31E24}
    .fil17 {fill:#F5E6DA}
    .fil19 {fill:#DF5068}
    .fil1 {fill:#E1BF9D}
    .fil25 {fill:#D4745A}
    .fil23 {fill:#BF4642}
    .fil15 {fill:#78BDE9}
    .fil5 {fill:#575757}
    .fil16 {fill:#489ED7}
    .fil20 {fill:#4D5882}
    .fil12 {fill:#4D4473}
    .fil21 {fill:#464E7A}
    .fil11 {fill:#423B64}
    .fil8 {fill:#1F1B20}
    .fil0 {fill:#009846}
    .fil2 {fill:#999694}
    .fil9 {fill:#009846;fill-rule:nonzero}
   ]]>
  </style>
 </defs>
 <g id="Vrstva_x0020_1">
  <metadata id="CorelCorpID_0Corel-Layer"/>
  <rect class="fil0 str0" x="-117" y="1275" width="20994" height="22221"/>
  <rect class="fil1 str1" x="-117" y="6064" width="20987" height="2721"/>
  <rect class="fil1 str1" transform="matrix(6.33249E-015 -0.305966 0.892905 3.02614E-014 13639 23495.9)" width="21007" height="3781"/>
  <rect class="fil1 str1" x="-117" y="15961" width="20994" height="3090"/>
  <rect class="fil1 str1" transform="matrix(5.42624E-015 -0.308586 0.76512 3.05205E-014 3967.77 23517)" width="21007" height="3781"/>
  <rect class="fil1 str1" transform="matrix(5.42624E-015 -0.303301 0.76512 2.99978E-014 4017.77 7649.24)" width="21007" height="3781"/>
  <rect class="fil1 str1" transform="matrix(6.33249E-015 -0.3027 0.892905 2.99383E-014 13409 7636.61)" width="21007" height="3781"/>
  <rect class="fil2 str2" x="-117" y="8785" width="20994" height="7176"/>
  <rect class="fil2 str2" transform="matrix(-2.66454E-014 1.05333 -1.30437 -3.28693E-013 14105.3 1274.62)" width="21096" height="5786"/>
  <rect class="fil3 str3" x="-113" y="15561" width="7135" height="236"/>
  <rect class="fil3 str3" transform="matrix(-2.08861E-014 0.370582 -1.34058 -1.51662E-013 7022.2 1277.92)" width="20999" height="176"/>
  <rect class="fil3 str3" transform="matrix(-2.08861E-014 0.377885 -1.34058 -1.54651E-013 7052.2 15560.6)" width="20999" height="176"/>
  <rect class="fil3 str3" x="13733" y="15561" width="7144" height="236"/>
  <rect class="fil3 str3" transform="matrix(-2.08861E-014 0.377885 -1.34058 -1.54651E-013 13811.6 15560.6)" width="20999" height="176"/>
  <rect class="fil3 str3" x="-113" y="9028" width="7135" height="236"/>
  <rect class="fil3 str3" x="13575" y="9028" width="7302" height="236"/>
  <g id="_2383128281024">
   <rect class="fil3 str3" transform="matrix(1.592E-014 -0.169886 4.74336 3.55046E-014 7349.07 8733.03)" width="20999" height="176"/>
   <rect class="fil3 str3" transform="matrix(1.592E-014 -0.169886 4.74336 3.55046E-014 8629.07 8733.03)" width="20999" height="176"/>
   <rect class="fil3 str3" transform="matrix(1.592E-014 -0.169886 4.74336 3.55046E-014 9910.19 8733.03)" width="20999" height="176"/>
   <rect class="fil3 str3" transform="matrix(1.592E-014 -0.169886 4.74336 3.55046E-014 11150.2 8733.03)" width="20999" height="176"/>
   <rect class="fil3 str3" transform="matrix(1.592E-014 -0.169886 4.74336 3.55046E-014 12410.2 8733.03)" width="20999" height="176"/>
  </g>
  <g id="_2383128279136">
   <rect class="fil3 str3" transform="matrix(1.592E-014 -0.169886 4.74336 3.55046E-014 7349.07 19553.5)" width="20999" height="176"/>
   <rect class="fil3 str3" transform="matrix(1.592E-014 -0.169886 4.74336 3.55046E-014 8629.07 19553.5)" width="20999" height="176"/>
   <rect class="fil3 str3" transform="matrix(1.592E-014 -0.169886 4.74336 3.55046E-014 9910.19 19553.5)" width="20999" height="176"/>
   <rect class="fil3 str3" transform="matrix(1.592E-014 -0.169886 4.74336 3.55046E-014 11150.2 19553.5)" width="20999" height="176"/>
   <rect class="fil3 str3" transform="matrix(1.592E-014 -0.169886 4.74336 3.55046E-014 12410.2 19553.5)" width="20999" height="176"/>
  </g>
  <g id="_2383128275072">
   <rect class="fil3 str3" x="14105" y="14502" width="3567" height="837"/>
   <rect class="fil3 str3" x="14105" y="13222" width="3567" height="837"/>
   <rect class="fil3 str3" x="14105" y="11941" width="3567" height="837"/>
   <rect class="fil3 str3" x="14105" y="10701" width="3567" height="837"/>
   <rect class="fil3 str3" x="14105" y="9441" width="3567" height="837"/>
  </g>
  <g id="_2383128275232">
   <rect class="fil3 str3" x="3005" y="14502" width="3567" height="837"/>
   <rect class="fil3 str3" x="3005" y="13222" width="3567" height="837"/>
   <rect class="fil3 str3" x="3005" y="11941" width="3567" height="837"/>
   <rect class="fil3 str3" x="3005" y="10701" width="3567" height="837"/>
   <rect class="fil3 str3" x="3005" y="9441" width="3567" height="837"/>
  </g>
  <g id="_2383127519248">
   <g>
    <path class="fil4 str4" d="M14641 16496c86,0 173,0 259,0 86,0 173,0 259,0l0 88 -518 0 0 -88z"/>
    <path class="fil4 str4" d="M14472 20380c0,-567 0,-1135 0,-1702 0,-568 0,-1135 0,-1703l177 0 0 3405 -177 0z"/>
    <g>
     <polygon class="fil5 str5" points="14238,16183 14873,16183 14873,18088 14238,18088 "/>
     <circle class="fil6 str6" cx="14555" cy="16569" r="203"/>
     <circle class="fil7 str7" cx="14555" cy="17169" r="203"/>
     <circle class="fil0 str0" cx="14555" cy="17729" r="203"/>
    </g>
    <g>
     <polygon class="fil5 str5" points="14957,16179 15592,16179 15592,16885 14957,16885 "/>
     <circle class="fil8 str8" cx="15273" cy="16525" r="203"/>
     <path class="fil9 str0" d="M15122 16572l157 0 0 46 157 -91 -157 -92 0 46 -157 0 0 91zm78 0m79 23m78 -23m0 -91m-78 -23m-79 23m-78 46"/>
    </g>
   </g>
   <g>
    <path class="fil10 str0" d="M15619 16247c168,0 304,131 304,293 0,162 -136,293 -304,293"/>
    <path class="fil10 str0" d="M15612 16144c212,0 384,176 384,393 0,217 -172,392 -384,392"/>
    <path class="fil10 str0" d="M15619 16327c119,0 216,95 216,212 0,117 -97,212 -216,212"/>
   </g>
   <g>
    <ellipse class="fil10 str6" transform="matrix(-7.25545E-014 -0.891819 0.912315 -7.09245E-014 14551.6 16569.9)" rx="392" ry="384"/>
    <ellipse class="fil10 str6" transform="matrix(-9.32846E-014 -1.14661 1.17298 -9.11878E-014 14542.8 16566.2)" rx="392" ry="384"/>
    <ellipse class="fil10 str6" transform="matrix(-5.18249E-014 -0.636998 0.651658 -5.06591E-014 14551.6 16568.7)" rx="392" ry="384"/>
   </g>
  </g>
  <g id="_2383127517456">
   <path class="fil4 str4" d="M15717 8161c0,-568 0,-1135 0,-1703 0,-567 0,-1135 0,-1702l176 0 0 3405 -176 0z"/>
   <g>
    <g>
     <polygon class="fil5 str5" points="15519,4106 16115,3790 16136,5809 15540,6125 "/>
     <circle class="fil6 str6" transform="matrix(1.30778 -0.693685 0.0152882 1.47773 15820.7 4356.85)" r="146"/>
     <circle class="fil7 str7" transform="matrix(1.30778 -0.693685 0.0152882 1.47773 15827.3 4992.91)" r="146"/>
     <circle class="fil0 str0" transform="matrix(1.30778 -0.693685 0.0152882 1.47773 15833.4 5586.55)" r="146"/>
    </g>
    <g>
     <ellipse class="fil10 str0" transform="matrix(-0.00978096 -0.945405 0.855907 -0.453999 15834.9 5585.61)" rx="392" ry="384"/>
     <ellipse class="fil10 str0" transform="matrix(-0.0125754 -1.21551 1.10046 -0.583714 15826.5 5586.18)" rx="392" ry="384"/>
     <ellipse class="fil10 str0" transform="matrix(-0.00698623 -0.675273 0.611366 -0.324287 15834.9 5584.38)" rx="392" ry="384"/>
    </g>
   </g>
  </g>
  <g id="_2383127514544">
   <ellipse class="fil10 str0" transform="matrix(-8.06161E-014 -0.99091 1.01368 -7.8805E-014 4781.06 14955.6)" rx="392" ry="384"/>
   <ellipse class="fil10 str0" transform="matrix(-1.0365E-013 -1.27402 1.30331 -1.0132E-013 4771.2 14951.6)" rx="392" ry="384"/>
   <ellipse class="fil10 str0" transform="matrix(-5.75833E-014 -0.707775 0.724064 -5.62879E-014 4781.06 14954.3)" rx="392" ry="384"/>
  </g>
  <polygon class="fil5 str5" points="4534,13634 5130,13276 5090,15329 4494,15687 "/>
  <path class="fil4 str4" d="M4691 17368c8,-567 17,-1135 26,-1702 8,-568 17,-1135 25,-1703l177 0 -52 3405 -176 0z"/>
  <g id="_2383127508432">
   <path class="fil11" d="M11661 16975l-51 141c0,0 -158,9 -162,18l226 57 60 -197 -73 -19z"/>
   <polygon class="fil11" points="12855,17203 12985,17203 13079,17137 12963,16962 12898,16998 12975,17128 12951,17180 "/>
   <polygon class="fil12" points="12062,15657 11600,17074 11731,17105 12092,16363 12291,16035 12492,16490 12929,17098 13026,17035 12689,16324 12580,15678 "/>
   <path class="fil11" d="M12278 15994c1,0 2,0 3,-1 3,-1 3,-5 2,-7 -11,-15 -29,-50 -46,-83 -18,-36 -36,-69 -47,-85 -1,-2 -5,-3 -8,-1 -2,1 -3,5 -1,7 10,15 28,50 45,83 19,36 36,69 47,85 1,1 3,2 5,2z"/>
   <path class="fil13" d="M12254 14737l-57 -118c0,0 -48,12 -69,-7 -8,-7 -16,-44 -21,-91 0,-6 0,-12 -1,-18 0,-6 -27,11 -27,5 0,-13 26,-49 26,-62 1,-59 11,-116 35,-138 55,-50 250,-57 276,29 26,87 2,184 -76,251l52 122 -138 27z"/>
   <path class="fil14" d="M12118 14259c-34,30 -54,74 -52,117 79,39 159,72 238,111 -11,110 3,226 61,324 58,98 165,175 286,185 121,10 250,-60 282,-167 26,-91 -16,-187 -81,-259 -65,-72 -151,-126 -229,-186 -75,-58 -146,-124 -237,-160 -91,-35 -197,-27 -268,35z"/>
   <path class="fil11" d="M12464 14726c0,0 120,53 190,132 69,80 69,574 36,590 -32,16 -194,32 -204,27 -10,-5 0,-152 0,-152l-22 -597z"/>
   <path class="fil15" d="M12565 15437l27 100c13,22 9,50 -10,69l0 0 -2 72 -518 -21 -35 -71 89 -389c0,0 -37,-105 -44,-156 -8,-51 173,-308 199,-339 26,-31 128,-37 171,0 43,37 91,155 101,189 10,34 22,546 22,546z"/>
   <path class="fil11" d="M12515 14819c0,0 -113,-106 -263,18 0,0 51,-172 212,-111 0,0 44,44 51,93z"/>
   <path class="fil12" d="M12614 15425c3,0 6,-2 6,-5 23,-182 29,-368 18,-552 -1,-3 -3,-5 -7,-5 -3,1 -5,3 -5,6 11,183 6,368 -18,550 0,3 2,6 6,6 0,0 0,0 0,0z"/>
   <path class="fil13" d="M11994 15709c19,-2 35,-40 42,-64 25,-3 64,-31 89,-36 -54,122 -63,187 -72,201 -22,31 -35,46 -56,26 -20,-21 -42,15 -56,-5 -14,-20 -45,18 -50,-8 -5,-27 44,-59 44,-59 0,0 -16,-48 59,-55z"/>
   <path class="fil15" d="M12479 14837c17,79 -370,879 -370,879l-129 -41c0,0 66,-165 64,-228 -2,-63 1,-86 61,-135 59,-49 59,-342 103,-421 45,-80 260,-110 271,-54z"/>
   <path class="fil16" d="M12113 15679c2,0 4,-1 5,-3 81,-154 259,-520 307,-671 1,-3 0,-6 -3,-7 -4,0 -7,1 -8,4 -48,150 -225,516 -307,669 -1,3 0,6 3,8 1,0 2,0 3,0z"/>
   <path class="fil16" d="M12172 15057l0 0c3,0 5,-2 5,-5 0,-72 27,-142 76,-198 2,-3 2,-6 -1,-8 -2,-1 -6,-1 -8,1 -51,58 -78,131 -78,205 0,3 2,5 6,5z"/>
  </g>
  <g id="_2383129426640">
   <path class="fil11" d="M7819 16303c-46,138 -43,294 18,427 62,132 183,238 325,271 83,20 173,14 250,-22 77,-37 140,-105 163,-187 23,-82 4,-177 -55,-238 -44,-47 -107,-73 -145,-125 -65,-88 -38,-220 -103,-309 -59,-81 -183,-95 -272,-50 -90,46 -149,137 -181,233z"/>
   <path class="fil17" d="M8543 18949l0 0c0,0 130,51 132,62l-194 0 -13 -122 75 60z"/>
   <path class="fil17" d="M7671 18670l-46 38c0,0 6,128 -2,136l-99 -161 99 -70 48 57z"/>
   <path class="fil13" d="M8178 17969c0,0 -34,304 -40,315 -7,12 -513,424 -513,424l-38 -69 358 -510 -51 -605 284 445z"/>
   <path class="fil13" d="M7882 17202c128,13 258,23 370,81l-31 99c0,0 177,512 183,554 7,43 139,1013 139,1013l-70 -9 -295 -948c0,0 -370,-439 -352,-612 8,-77 32,-136 56,-178z"/>
   <path class="fil18" d="M8343 17741c-53,-160 -122,-359 -122,-359l31 -99c-112,-58 -242,-68 -370,-81 -24,42 -48,101 -56,178 -6,55 27,135 74,220l23 264c45,-6 89,-16 133,-27 0,0 0,0 1,0 5,-1 9,-3 14,-4 6,-2 12,-3 17,-4l0 -1c43,-12 86,-25 129,-39 42,-14 84,-31 126,-48z"/>
   <path class="fil13" d="M8161 16591c0,0 -16,-139 9,-162 17,-14 72,8 88,-15 4,-7 -4,-59 -8,-94 -1,-9 27,2 25,-8 -1,-11 -47,-57 -45,-70 23,-188 -289,-193 -298,-46 -5,92 39,185 126,236l-51 98 154 61z"/>
   <path class="fil13" d="M8248 16931l137 221c0,0 293,147 310,153 17,6 105,80 115,97 11,18 -33,25 -41,25 -8,0 -35,-12 -35,-12 0,0 -52,31 -54,31 -3,-1 -37,-76 -37,-76 0,0 -342,-87 -369,-110 -27,-22 -133,-279 -133,-279l107 -50z"/>
   <path class="fil14" d="M8239 16878l138 293c0,0 133,-29 180,31 47,60 99,85 99,85l-13 83c0,0 -339,-31 -391,-87 -52,-56 -48,-361 -48,-361l35 -44z"/>
   <polygon class="fil17" points="8162,16595 8198,16531 8058,16432 8009,16505 "/>
   <path class="fil14" d="M7905 16583c0,0 88,-124 184,-81 23,11 210,253 214,294 3,40 -75,182 -75,182l81 478 -549 -152 121 -294c0,0 -38,-160 24,-427z"/>
   <path class="fil19" d="M8018 17783c-2,0 -3,-1 -4,-2 -37,-52 -71,-99 -101,-148 -1,-3 -1,-6 2,-7 2,-2 5,-1 7,1 30,49 63,96 100,148 2,2 1,5 -1,7 -1,1 -2,1 -3,1z"/>
   <path class="fil13" d="M9481 16519l31 -118c0,0 45,12 65,-7 8,-8 15,-43 19,-98 0,-6 22,6 22,0 0,-12 -39,-65 -36,-86 13,-80 6,-101 -17,-124 -51,-50 -230,-57 -254,30 -25,87 -17,129 27,253l-27 123 170 27z"/>
   <path class="fil17" d="M9922 18790l46 138c0,0 141,9 145,18l-203 56 -53 -194 65 -18z"/>
   <polygon class="fil17" points="8851,19014 8735,19014 8651,18949 8755,18777 8813,18812 8744,18940 8766,18991 "/>
   <path class="fil13" d="M9138 18121c-45,-9 -57,-8 -101,-20l-331 756 61 41 395 -606 61 -145c-30,-6 -54,-20 -85,-26z"/>
   <path class="fil13" d="M9721 18066c-69,26 -84,53 -155,73l11 51 307 716 72 -15 -235 -825z"/>
   <path class="fil20" d="M9767 18069l-142 -551 -527 0 -93 606c45,12 89,24 135,33 32,6 64,11 95,17l143 -369 152 354c73,-20 166,-63 237,-90z"/>
   <path class="fil15" d="M9308 16393c0,0 108,34 162,96 55,62 142,243 144,263 2,20 -27,243 -27,243l97 590c0,0 -416,65 -624,0l109 -487c0,0 -16,-172 -33,-192 -18,-20 13,-191 27,-270 13,-79 76,-169 97,-188 21,-18 48,-55 48,-55z"/>
   <path class="fil15" d="M9343 16406c-50,-33 -225,-39 -245,-26 -21,14 27,56 22,84 -5,28 -107,65 -73,126 35,62 137,135 137,135l159 -319z"/>
   <path class="fil21" d="M9394 17754c-1,0 -2,0 -3,-1 -2,-2 -3,-5 -1,-7l58 -91c1,-2 5,-3 7,-1 2,1 3,4 2,7l-59 90c-1,2 -2,3 -4,3z"/>
   <path class="fil11" d="M9600 15978c1,10 -4,21 -12,28 6,-19 -13,-38 -32,-38 -19,-1 -33,11 -44,27 5,-9 20,-6 24,3 4,8 -1,19 -9,25 -8,5 -18,6 -28,6 -23,0 -45,-6 -67,-12 -22,-6 -44,-12 -67,-12 -23,0 -47,7 -63,23 -16,15 -22,46 -11,66 -58,24 -18,124 0,168 17,44 47,107 47,107l59 -58c0,0 -45,-51 -25,-75 20,-23 40,13 40,13 0,0 7,111 22,117 15,7 105,72 144,57 38,-14 18,-127 18,-127l-57 -6c-52,-6 -90,-51 -89,-103l0 0c0,0 62,20 73,-32 43,-6 94,-23 110,-63 17,-40 4,-92 -33,-114z"/>
   <path class="fil22" d="M9509 16029c0,0 -97,220 -203,270 0,0 -82,-140 -80,-202 2,-62 47,-102 118,-107 71,-5 165,39 165,39z"/>
   <path class="fil13" d="M8829 17362c-9,-15 12,-49 27,-68 -12,-20 -12,-64 -23,-85 -64,112 -109,158 -114,174 -12,33 -17,52 11,54 27,2 12,39 35,37 23,-3 11,42 34,30 23,-13 20,-67 20,-67 0,0 46,-18 10,-75z"/>
   <path class="fil15" d="M9230 16490c-70,37 -470,796 -470,796l103 66c0,0 91,-148 140,-185 49,-36 65,-52 70,-124 5,-72 230,-250 266,-330 36,-80 -60,-249 -109,-223z"/>
   <path class="fil23" d="M9329 16237c-2,0 -3,-1 -4,-2 -2,-1 -2,-5 0,-7 44,-48 81,-103 109,-162 2,-2 5,-3 7,-2 3,1 4,4 3,7 -29,60 -67,115 -111,164 -1,1 -3,2 -4,2z"/>
   <path class="fil16" d="M9136 16911c-3,0 -5,-2 -5,-4 -30,-152 -10,-357 131,-477 2,-2 5,-2 7,1 2,2 2,5 0,7 -138,117 -157,318 -128,467 0,3 -2,5 -4,6 -1,0 -1,0 -1,0z"/>
   <path class="fil15" d="M9655 16915l-61 0c0,0 -148,-344 -199,-386 -52,-43 -65,360 19,480 85,121 105,122 267,58 163,-65 -26,-152 -26,-152z"/>
   <path class="fil13" d="M10138 16778c7,-15 3,-63 -3,-59 -6,5 -11,31 -11,31l-2 13c0,0 -10,-3 -11,0 0,4 -4,20 -4,20l-1 31 32 -36z"/>
   <polygon class="fil17" points="10063,16839 10100,16704 10130,16597 10169,16611 10097,16843 "/>
   <path class="fil13" d="M9679 16919l31 122c0,0 312,-122 328,-128 0,0 48,-38 58,-45 10,-8 40,-83 42,-90 3,-7 -55,-11 -55,-11 0,0 -2,-36 -5,-47 -2,-7 -15,-35 -21,-16l-13 56 -18 18c-10,13 -21,69 -21,69l-326 72z"/>
   <path class="fil15" d="M9655 16915c0,0 33,-92 94,-55 62,38 69,-9 69,-9l167 -46 53 108 -357 154 -26 -152z"/>
   <path class="fil16" d="M9514 17115c-21,0 -44,-8 -65,-23 -24,-18 -42,-42 -58,-65 -48,-70 -90,-144 -126,-220 -23,-50 -45,-104 -47,-162 -2,-53 13,-99 40,-123 20,-18 46,-25 76,-20 3,0 5,3 5,6 -1,3 -3,5 -6,4 -28,-4 -50,2 -68,18 -25,22 -39,65 -37,115 2,56 24,109 46,158 36,75 78,149 126,218 15,22 33,46 55,63 25,18 54,25 77,18 3,0 6,1 7,4 0,3 -1,6 -4,6 -7,2 -14,3 -21,3z"/>
   <path class="fil16" d="M9554 16885c0,0 0,0 0,0 -3,0 -5,-3 -5,-5 4,-45 5,-95 -27,-125 -6,-5 -13,-10 -20,-15 -7,-4 -13,-8 -19,-13 -20,-17 -31,-41 -43,-64 -13,-27 -25,-53 -49,-67 -3,-1 -4,-5 -2,-7 1,-3 4,-3 7,-2 27,15 41,44 54,71 10,23 21,46 40,61 5,5 11,9 17,13 8,4 15,9 22,16 35,32 34,85 31,132 -1,3 -3,5 -6,5z"/>
   <path class="fil17" d="M8260 17166l-512 -109 -96 373 523 125c34,-129 45,-262 85,-389z"/>
   <path class="fil13" d="M7932 17457c-12,-13 1,-51 12,-72 -15,-17 -24,-61 -38,-79 -41,123 -76,177 -78,193 -5,35 -6,54 21,51 28,-3 20,36 42,29 22,-7 20,39 40,22 19,-16 6,-68 6,-68 0,-1 42,-27 -5,-76z"/>
   <path class="fil14" d="M7905 16583c-48,63 -65,842 -65,842l121 17c0,0 21,-171 50,-225 30,-54 38,-75 12,-143 -25,-67 75,-246 74,-333 0,-88 -158,-202 -192,-158z"/>
   <path class="fil24" d="M8274 17265c-2,0 -5,-2 -5,-4l-46 -282c0,-1 0,-2 1,-3l19 -47c1,-3 4,-4 7,-3 3,1 4,4 3,7l-19 45 45 281c1,3 -1,6 -4,6 0,0 -1,0 -1,0z"/>
   <path class="fil24" d="M8025 17052c-1,0 -1,0 -1,0 -3,0 -5,-3 -5,-6l28 -281c3,-26 6,-54 -1,-81 -6,-29 -23,-51 -45,-60 -3,-1 -4,-4 -3,-7 1,-3 4,-4 7,-3 25,10 44,36 52,68 6,28 3,57 0,84l-27 281c-1,3 -3,5 -5,5z"/>
   <path class="fil25" d="M8162 17979c-1,0 -3,-1 -4,-3l-86 -119c-2,-3 -1,-6 1,-8 2,-1 6,-1 7,2l86 119c2,3 2,6 -1,8 -1,0 -2,1 -3,1z"/>
   <path class="fil11" d="M8058 16432c149,-89 216,-235 216,-235l-70 -104c0,0 -250,-74 -314,104 -64,177 168,235 168,235z"/>
  </g>
  <rect class="fil3 str3" transform="matrix(-2.08861E-014 0.370739 -1.34058 -1.51726E-013 13806.8 1274.62)" width="20999" height="176"/>
 </g>
</svg>
