<?xml version="1.0" encoding="UTF-8"?>
<!DOCTYPE svg PUBLIC "-//W3C//DTD SVG 1.1//EN" "http://www.w3.org/Graphics/SVG/1.1/DTD/svg11.dtd">
<!-- Creator: CorelDRAW X7 -->
<svg xmlns="http://www.w3.org/2000/svg" xml:space="preserve" width="210mm" height="297mm" version="1.1" style="shape-rendering:geometricPrecision; text-rendering:geometricPrecision; image-rendering:optimizeQuality; fill-rule:evenodd; clip-rule:evenodd"
viewBox="0 0 21000 29700"
 xmlns:xlink="http://www.w3.org/1999/xlink">
 <defs>
  <style type="text/css">
   <![CDATA[
    .str5 {stroke:#FEFEFE;stroke-width:20}
    .str6 {stroke:#2B2A29;stroke-width:20}
    .str8 {stroke:#2B2A29;stroke-width:20}
    .str1 {stroke:#E1BF9D;stroke-width:20}
    .str0 {stroke:#009846;stroke-width:20}
    .str7 {stroke:black;stroke-width:20}
    .str2 {stroke:#999694;stroke-width:20}
    .str3 {stroke:#FEFEFE;stroke-width:20;stroke-linejoin:round}
    .str4 {stroke:#2B2A29;stroke-width:20;stroke-linejoin:round}
    .fil3 {fill:#FEFEFE}
    .fil4 {fill:#2B2A29}
    .fil5 {fill:#E32124}
    .fil7 {fill:#FDFCFC}
    .fil1 {fill:#E1BF9D}
    .fil0 {fill:#009846}
    .fil6 {fill:#323B86}
    .fil2 {fill:#999694}
   ]]>
  </style>
 </defs>
 <g id="Vrstva_x0020_1">
  <metadata id="CorelCorpID_0Corel-Layer"/>
  <rect class="fil0 str0" x="70" y="2558" width="20994" height="22221"/>
  <rect class="fil1 str1" x="70" y="7347" width="20987" height="2721"/>
  <rect class="fil1 str1" transform="matrix(6.33249E-015 -0.305966 0.892905 3.02614E-014 13825.6 24779)" width="21007" height="3781"/>
  <rect class="fil1 str1" x="70" y="17244" width="20989" height="3090"/>
  <rect class="fil1 str1" transform="matrix(5.42624E-015 -0.308586 0.76512 3.05205E-014 4154.39 24800.1)" width="21007" height="3781"/>
  <rect class="fil1 str1" transform="matrix(5.42624E-015 -0.303301 0.76512 2.99978E-014 4204.39 8932.37)" width="21007" height="3781"/>
  <rect class="fil1 str1" transform="matrix(6.33249E-015 -0.3027 0.892905 2.99383E-014 13595.6 8919.74)" width="21007" height="3781"/>
  <rect class="fil2 str2" x="70" y="10068" width="20994" height="7176"/>
  <rect class="fil2 str2" transform="matrix(-2.66454E-014 1.05333 -1.30437 -3.28693E-013 14291.9 2557.75)" width="21096" height="5786"/>
  <rect class="fil3 str3" x="74" y="16704" width="7135" height="236"/>
  <rect class="fil3 str3" transform="matrix(-2.08861E-014 0.370582 -1.34058 -1.51662E-013 7208.82 2561.05)" width="20999" height="176"/>
  <rect class="fil3 str3" transform="matrix(-2.08861E-014 0.384552 -1.34058 -1.57379E-013 7238.82 16703.7)" width="20999" height="176"/>
  <rect class="fil3 str3" x="13920" y="16704" width="7144" height="236"/>
  <rect class="fil3 str3" transform="matrix(-2.08861E-014 0.384552 -1.34058 -1.57379E-013 13998.2 16703.7)" width="20999" height="176"/>
  <rect class="fil3 str3" x="97" y="10311" width="7111" height="236"/>
  <rect class="fil3 str3" x="13762" y="10311" width="7302" height="236"/>
  <g id="_2383019863456">
   <path class="fil4 str4" d="M15107 9910c0,-567 0,-1135 0,-1702 0,-568 0,-1135 0,-1703l177 0 0 3405 -177 0z"/>
   <g>
    <path class="fil5" d="M15212 5760c345,0 624,279 624,624 0,344 -279,624 -624,624 -344,0 -624,-280 -624,-624 0,-345 280,-624 624,-624z"/>
    <polygon class="fil3" points="14710,6502 15714,6502 15714,6266 14710,6266 "/>
   </g>
  </g>
  <g id="_2383019858656">
   <path class="fil4 str4" d="M14861 18369c0,-567 0,-1135 0,-1702 0,-568 0,-1135 0,-1703l176 0 0 3405 -176 0z"/>
   <g>
    <path class="fil6" d="M14964 16504c271,0 491,-220 491,-491 0,-271 -220,-492 -491,-492 -271,0 -492,221 -492,492 0,271 221,491 492,491z"/>
    <path class="fil3" d="M15146 15820c-156,2 -245,58 -245,175 0,113 2,149 2,262l105 0 0 -191c4,-106 9,-141 145,-141 35,-1 -18,93 -9,109 7,11 14,4 14,4l242 -170 -242 -169c0,0 -19,-8 -14,4 24,55 23,95 2,117z"/>
    <path class="fil3" d="M14766 15830c155,2 244,58 244,175 0,112 21,319 21,431l-151 -4 23 -356c-4,-106 -9,-142 -145,-141 -35,-1 18,92 9,109 -7,10 -14,3 -14,3l-242 -169 242 -169c0,0 19,-8 14,4 -24,55 -23,95 -1,117z"/>
   </g>
   <g>
    <polygon class="fil7 str5" points="14943,15361 15270,14746 15606,14089 15013,14081 14284,14086 14650,14811 "/>
    <g>
     <path class="fil5" d="M14946 15385l8 0 678 -1291 -12 -25 -674 0 0 12 656 0 18 0 -9 17 -661 1258 -4 8 0 21zm0 -122l0 -313 338 -650 -338 0 0 -168 586 0 -586 1131zm-687 -1169l669 1291 18 0 0 -21 -5 8 -9 -16 -652 -1258 -9 -17 18 0 657 0 0 -12 -675 0 -12 25zm687 38l0 168 -338 0 336 652 2 -2 0 313 -4 6 -583 -1137 587 0z"/>
     <path class="fil5" d="M15534 14132l-586 0 0 168 338 0 -338 650 0 314 586 -1132zm-248 168l-338 0 335 0 3 0 -338 650 338 -650zm-338 -168l-587 0 584 1138 3 -6 0 -314 -2 3 -336 -653 338 0 0 -168zm0 168l-338 0 335 650 1 3 2 -3 -2 3 -336 -653 338 0z"/>
    </g>
   </g>
  </g>
  <g id="_2383019858912">
   <polygon class="fil3 str6" points="5850,13691 6134,13918 6418,14145 6050,14764 5683,15382 5400,15155 5116,14928 5483,14310 "/>
   <path class="fil3 str7" d="M5591 16582c258,-81 550,-404 650,-719 99,-315 -30,-506 -288,-425 -259,81 -550,404 -650,719 -100,315 30,506 288,425z"/>
   <path class="fil4 str4" d="M5675 18335c0,-568 0,-1135 0,-1703 0,-567 0,-1135 0,-1702l177 0 0 3405 -177 0z"/>
  </g>
  <g id="_2383019856256">
   <polygon class="fil3 str8" points="5992,6827 6320,6212 6655,5555 6062,5547 5333,5552 5699,6277 "/>
   <rect class="fil3 str6" x="5491" y="6925" width="1002" height="974"/>
   <path class="fil4 str4" d="M5910 9745c0,-567 0,-1135 0,-1702 0,-568 0,-1135 0,-1703l176 0 0 3405 -176 0z"/>
  </g>
  <rect class="fil3 str3" x="4074" y="13465" width="3567" height="236"/>
  <rect class="fil3 str3" x="13484" y="13465" width="3567" height="236"/>
  <rect class="fil3 str3" transform="matrix(4.49934E-015 -0.105305 1.34058 2.20078E-014 10076 4769.05)" width="20999" height="176"/>
  <rect class="fil3 str3" transform="matrix(4.49934E-015 -0.169886 1.34058 3.55046E-014 10058.5 10776.2)" width="20999" height="176"/>
  <rect class="fil3 str3" transform="matrix(4.49934E-015 -0.169886 1.34058 3.55046E-014 10076 20501.5)" width="20999" height="176"/>
  <rect class="fil3 str3" transform="matrix(4.49934E-015 -0.142827 1.34058 2.98496E-014 10076 24779)" width="20999" height="176"/>
  <rect class="fil3 str3" x="18425" y="13432" width="2639" height="236"/>
  <rect class="fil3 str3" x="97" y="13465" width="2804" height="236"/>
  <rect class="fil3 str3" transform="matrix(-2.08861E-014 0.370582 -1.34058 -1.51662E-013 13998.2 2561.05)" width="20999" height="176"/>
 </g>
</svg>
