<?xml version="1.0" encoding="UTF-8"?>
<!DOCTYPE svg PUBLIC "-//W3C//DTD SVG 1.1//EN" "http://www.w3.org/Graphics/SVG/1.1/DTD/svg11.dtd">
<!-- Creator: CorelDRAW X7 -->
<svg xmlns="http://www.w3.org/2000/svg" xml:space="preserve" width="210mm" height="297mm" version="1.1" style="shape-rendering:geometricPrecision; text-rendering:geometricPrecision; image-rendering:optimizeQuality; fill-rule:evenodd; clip-rule:evenodd"
viewBox="0 0 21000 29700"
 xmlns:xlink="http://www.w3.org/1999/xlink">
 <defs>
  <style type="text/css">
   <![CDATA[
    .str4 {stroke:#E1BF9D;stroke-width:1000}
    .str5 {stroke:#FEFEFE;stroke-width:250}
    .str1 {stroke:#E1BF9D;stroke-width:20}
    .str0 {stroke:#009846;stroke-width:20}
    .str2 {stroke:#999694;stroke-width:20}
    .str3 {stroke:#FEFEFE;stroke-width:20;stroke-linejoin:round}
    .str6 {stroke:#2B2A29;stroke-width:20;stroke-linejoin:round}
    .str7 {stroke:#34302F;stroke-width:6.18}
    .fil4 {fill:none}
    .fil3 {fill:#FEFEFE}
    .fil5 {fill:#2B2A29}
    .fil7 {fill:#E32124}
    .fil1 {fill:#E1BF9D}
    .fil6 {fill:#252422}
    .fil0 {fill:#009846}
    .fil8 {fill:#323B86}
    .fil2 {fill:#999694}
   ]]>
  </style>
 </defs>
 <g id="Vrstva_x0020_1">
  <metadata id="CorelCorpID_0Corel-Layer"/>
  <rect class="fil0 str0" y="2200" width="20994" height="22221"/>
  <rect class="fil1 str1" y="6989" width="20987" height="2721"/>
  <rect class="fil1 str1" transform="matrix(6.33249E-015 -0.305966 0.892905 3.02614E-014 13756 24421.2)" width="21007" height="3781"/>
  <rect class="fil1 str1" y="16886" width="20989" height="3090"/>
  <rect class="fil1 str1" transform="matrix(5.42624E-015 -0.307578 0.76512 3.04208E-014 4084.82 24421.2)" width="21007" height="3781"/>
  <rect class="fil1 str1" transform="matrix(5.42624E-015 -0.303301 0.76512 2.99978E-014 4134.82 8574.62)" width="21007" height="3781"/>
  <rect class="fil1 str1" transform="matrix(6.33249E-015 -0.3027 0.892905 2.99383E-014 13526 8561.99)" width="21007" height="3781"/>
  <rect class="fil2 str2" y="9710" width="20994" height="7176"/>
  <rect class="fil2 str2" transform="matrix(-2.66454E-014 1.05333 -1.30437 -3.28693E-013 14222.4 2200)" width="21096" height="5786"/>
  <rect class="fil3 str3" x="4004" y="13107" width="3567" height="236"/>
  <rect class="fil3 str3" x="13414" y="13107" width="3567" height="236"/>
  <rect class="fil3 str3" transform="matrix(4.49934E-015 -0.169886 1.34058 3.55046E-014 9988.9 10418.4)" width="20999" height="176"/>
  <rect class="fil3 str3" transform="matrix(4.49934E-015 -0.169886 1.34058 3.55046E-014 10006.4 20143.7)" width="20999" height="176"/>
  <g id="_1460863212304">
   <circle class="fil2 str2" cx="10500" cy="13515" r="7180"/>
   <circle class="fil0 str4" cx="10500" cy="13515" r="2671"/>
  </g>
  <path class="fil4 str5" d="M13684 7922c951,548 1746,1330 2311,2271"/>
  <path class="fil4 str5" d="M4903 10193c546,-908 1306,-1668 2214,-2214"/>
  <path class="fil4 str5" d="M7214 19129c-1116,-645 -2015,-1609 -2580,-2767"/>
  <path class="fil4 str5" d="M16265 16362c-565,1158 -1464,2122 -2581,2767"/>
  <rect class="fil3 str3" transform="matrix(-2.08861E-014 0.257198 -1.34058 -1.05259E-013 13868.6 19020.3)" width="20999" height="176"/>
  <rect class="fil3 str3" x="16173" y="16306" width="4822" height="236"/>
  <rect class="fil3 str3" x="15894" y="10013" width="5098" height="236"/>
  <rect class="fil3 str3" transform="matrix(-2.08861E-014 0.27747 -1.34058 -1.13555E-013 13868.7 2203.3)" width="20999" height="176"/>
  <rect class="fil3 str3" transform="matrix(-2.08861E-014 0.25783 -1.34058 -1.05518E-013 7269.25 19007)" width="20999" height="176"/>
  <rect class="fil3 str3" y="16306" width="4739" height="236"/>
  <rect class="fil3 str3" transform="matrix(-2.08861E-014 0.279852 -1.34058 -1.14531E-013 7179.25 2200)" width="20999" height="176"/>
  <rect class="fil3 str3" x="8" y="10013" width="4998" height="236"/>
  <g id="_1460863209264">
   <rect class="fil3 str3" transform="matrix(6.92607E-015 -0.19321 1.34058 2.62313E-014 10348.7 24036.5)" width="20999" height="176"/>
   <rect class="fil3 str3" x="10349" y="19732" width="3269" height="236"/>
  </g>
  <g id="_1460863207184">
   <path class="fil5 str6" d="M15011 20357c0,-568 0,-1135 0,-1703 0,-567 0,-1135 0,-1702l176 0 0 3405 -176 0z"/>
   <g>
    <polygon class="fil6 str7" points="14852,15886 15421,15890 15820,16296 15815,16865 15409,17264 14840,17259 14441,16853 14446,16284 "/>
    <polygon class="fil3 str7" points="14858,15901 15136,15904 15414,15906 15609,16104 15804,16303 15802,16581 15799,16859 15601,17053 15403,17248 15125,17246 14847,17244 14652,17045 14457,16847 14459,16569 14462,16291 14660,16096 "/>
    <path class="fil7" d="M15511 16571c13,-4 22,-12 22,-23l0 -117c0,-11 -9,-18 -22,-22l0 162zm0 508l0 -421c32,-3 50,-12 62,-22 16,-14 26,-49 26,-81l0 -135c0,-35 -3,-58 -22,-69 -16,-9 -38,-15 -66,-17l0 -263 245 245 0 517 -245 246zm-23 -674l0 169c8,0 16,-1 23,-3l0 -162c-7,-2 -15,-4 -23,-4l0 0zm23 -334l0 263c-7,0 -14,0 -22,0l-71 0 0 486 64 0 0 -161c10,0 20,-1 29,-1l0 421 -121 121 -136 0 0 -376c32,-4 60,-8 71,-22 16,-20 26,-37 26,-65l0 -314c0,-59 -33,-90 -97,-93l0 -380 136 0 121 121zm-257 686l0 0c10,0 24,-5 24,-15l0 -331c0,-10 -14,-15 -24,-15l0 0 0 361zm0 -807l0 380c-4,-1 -7,-1 -11,-1 -72,0 -86,30 -86,93l0 313c5,56 52,93 86,90l11 -1 0 376 -254 0 0 -364 28 0 0 -452 62 0 0 -50 -90 0 0 -384 254 0zm0 446c-11,0 -25,5 -25,15l0 331c0,10 14,15 25,15l0 -361zm-254 -446l0 384 -90 0 0 48 53 0 0 454 37 0 0 364 -129 0 -84 -84 0 -274c71,-1 78,-46 78,-110l0 -62c0,-21 4,-41 -7,-58l-57 -58c-6,-7 -11,-14 -14,-21l0 -122c11,-16 33,0 33,17l0 51 60 0 0 -44c0,-59 -20,-106 -90,-106l-3 0 0 -295 84 -84 129 0zm-213 811c4,-5 6,-14 6,-28l0 -53 -6 -19 0 100zm0 -727l0 295c-71,1 -78,46 -78,110l0 63c0,21 -4,40 7,57 11,17 18,19 57,62l14 40 0 100c-11,16 -33,-1 -33,-17l0 -51 -59 0 0 44c0,58 19,105 90,105l2 0 0 274 -282 -283 0 -517 282 -282zm0 377c-4,5 -6,14 -6,28l0 53c0,12 -1,26 6,41l0 -122z"/>
    <path class="fil4 str7" d="M15488 16405l0 169c21,0 45,-9 45,-26l0 -117c0,-17 -24,-26 -45,-26l0 0zm-234 -9c-11,0 -25,5 -25,15l0 331c0,10 14,15 25,15 10,0 24,-5 24,-15l0 -331c0,-10 -14,-15 -24,-15l0 0zm136 -446l-519 0 -366 366 0 517 366 367 519 0 366 -367 0 -517 -366 -366zm-233 472c0,-63 14,-93 86,-93 72,0 108,32 108,94l0 314c0,28 -10,45 -26,65 -12,16 -46,19 -82,23 -34,3 -81,-34 -86,-90l0 -313zm261 398l0 -486 71 0c39,0 69,5 88,17 19,11 22,34 22,69l0 135c0,32 -10,67 -26,81 -16,13 -40,23 -91,23l0 161 -64 0zm-508 -486l180 0 0 50 -62 0 0 452 -65 0 0 -454 -53 0 0 -48zm-30 101l0 44 -60 0 0 -51c0,-22 -39,-45 -39,11l0 53c0,18 -1,39 20,62l57 58c11,17 7,37 7,58l0 62c0,65 -7,110 -80,110 -71,0 -90,-47 -90,-105l0 -44 59 0 0 51c0,22 39,44 39,-11l0 -53 -20 -59c-39,-43 -46,-45 -57,-62 -11,-17 -7,-36 -7,-57l0 -63c0,-64 7,-110 81,-110 70,0 90,47 90,106z"/>
   </g>
   <g>
    <path class="fil8" d="M15098 18496c271,0 492,-221 492,-491 0,-271 -221,-492 -492,-492 -270,0 -491,221 -491,492 0,270 221,491 491,491z"/>
    <path class="fil3" d="M15383 17818l-116 222 0 15c8,4 26,6 35,3 54,-20 37,-37 58,-19 11,69 -20,134 -93,189l0 85c127,-79 167,-149 186,-277 4,-33 79,-3 94,-6 10,-2 -2,-29 -2,-29l-162 -183zm-116 -43l0 -82c13,7 27,15 41,24l-38 60 -3 -2zm0 265l-5 9c-1,2 1,4 5,6l0 -15zm0 188c-13,9 -27,18 -41,27l36 61 5 -3 0 -85zm0 -535l0 82c-99,-64 -185,-68 -251,-22 -7,27 1,4 44,44 9,8 17,39 9,39l-261 -5 91 -226c0,0 19,-23 26,-15 9,12 16,92 47,82 111,-37 187,-37 295,21l0 0zm-284 432c-5,-7 -25,18 -26,30 -8,58 16,51 -11,61 -76,-27 -123,-100 -128,-219l-71 4c10,153 53,222 160,299 26,19 -35,71 -39,85 -3,11 27,13 27,13l237 -59 -149 -214z"/>
   </g>
  </g>
 </g>
</svg>
