<?xml version="1.0" encoding="UTF-8"?>
<!DOCTYPE svg PUBLIC "-//W3C//DTD SVG 1.1//EN" "http://www.w3.org/Graphics/SVG/1.1/DTD/svg11.dtd">
<!-- Creator: CorelDRAW X7 -->
<svg xmlns="http://www.w3.org/2000/svg" xml:space="preserve" width="25mm" height="100mm" version="1.1" style="shape-rendering:geometricPrecision; text-rendering:geometricPrecision; image-rendering:optimizeQuality; fill-rule:evenodd; clip-rule:evenodd"
viewBox="0 0 2500 10000"
 xmlns:xlink="http://www.w3.org/1999/xlink">
 <defs>
  <style type="text/css">
   <![CDATA[
    .fil0 {fill:#151515}
    .fil4 {fill:#2B2A29}
    .fil2 {fill:#5B5B5B}
    .fil3 {fill:#B2B3B3}
    .fil1 {fill:#E31E24}
    .fil5 {fill:#FEFEFE}
   ]]>
  </style>
 </defs>
 <g id="Vrstva_x0020_1">
  <metadata id="CorelCorpID_0Corel-Layer"/>
  <g id="_1548138121392">
   <g id="_1979944208224">
    <path class="fil0" d="M425 9903c-12,-106 -70,-36 -147,-92 12,-111 63,-215 102,-293 43,58 168,378 250,457 44,43 765,22 921,22 411,0 252,-16 532,-509 54,51 108,218 123,323 -84,61 -146,-17 -144,89 41,21 266,-38 342,-54 60,-11 83,3 91,-67 -55,-18 -101,10 -166,11 -35,-229 -164,-471 -166,-485 -3,-36 63,-167 67,-264 4,-114 0,-242 0,-357l0 -7057c0,-425 -36,-860 -189,-1179 -153,-319 -395,-445 -805,-446 -415,0 -646,104 -812,422 -162,312 -203,739 -203,1159l0 7072c0,371 -30,352 68,628 32,89 -28,149 -61,241 -30,84 -59,172 -72,267 -50,-3 -118,-33 -161,-10 0,72 50,60 200,89 58,12 182,46 230,33z"/>
    <path class="fil1" d="M280 7892c42,177 313,804 396,838 22,10 979,13 1068,6 86,-7 193,-262 237,-355 59,-130 132,-292 181,-445 39,-119 18,-1084 18,-1298 0,-96 14,-5178 -7,-5285 -32,-164 -326,-803 -396,-835 -23,-10 -1003,-18 -1074,-7 -116,19 -376,670 -417,810 -34,116 -16,3645 -16,3938 0,306 -15,2532 10,2633z"/>
    <path class="fil0" d="M467 3608c14,145 3,3111 3,3475 0,469 -61,842 191,1164 188,239 429,195 721,195 324,0 546,-294 584,-656 17,-157 7,-1144 7,-1385 0,-924 -1,-1849 0,-2773 21,-39 50,-18 98,-43 17,-52 24,-121 8,-188l-106 -5 0 -861c0,-458 -231,-804 -604,-804l-302 0c-383,0 -596,359 -597,834l0 826c-88,17 -125,-30 -118,107 6,101 34,106 115,114z"/>
    <path class="fil2" d="M1920 3607l-133 -1c-7,73 -9,95 -32,138l-201 12 -6 461c99,-4 161,-1 171,108 8,89 1,232 1,327 0,150 17,1194 -17,1252 -49,82 -373,46 -479,46 -607,0 -501,104 -501,-661l0 -950c8,-123 76,-119 168,-125l2 -458c-80,-5 -158,10 -219,-18l-17 -128 -131 -5c-18,115 -5,3165 -5,3508 0,426 -64,863 222,1138 142,137 271,126 481,126 198,0 341,10 472,-123 288,-290 227,-677 227,-1127 0,-362 12,-3378 -3,-3520z"/>
    <path class="fil2" d="M1924 3393c-1,-295 28,-949 -45,-1174 -136,-420 -383,-429 -655,-429 -164,0 -299,-17 -428,83 -374,288 -275,912 -275,1518l1403 2z"/>
    <path class="fil1" d="M341 9263c62,-49 38,-91 20,-129 -36,-78 -29,-84 -29,-183 1,-119 -9,-348 7,-446 62,9 107,141 163,249 48,94 98,185 147,279 81,152 92,120 63,342 -13,109 -20,317 -60,387 -72,-25 -113,-264 -190,-372l-43 65c30,91 191,418 238,459 53,45 755,20 918,20 128,0 195,35 260,-72 79,-132 116,-232 178,-360 25,-54 49,-75 10,-117 -57,78 -124,354 -192,377 -40,-74 -45,-266 -58,-372 -31,-228 -27,-187 58,-348l255 -488c24,-44 17,-42 61,-50 9,53 15,524 -1,583 -18,59 -63,84 -26,144 87,-127 60,-364 60,-547 0,-205 5,-419 -1,-623 -21,32 -180,419 -283,601 -88,154 -80,139 -272,139l-787 0c-225,0 -221,26 -426,-425 -48,-104 -90,-225 -139,-315 -6,209 -1,428 -1,638 0,237 -26,377 70,564z"/>
    <path class="fil0" d="M805 1415c70,16 809,16 875,-1 25,-123 44,-257 62,-383l49 -354c0,-4 -1,-8 -1,-11 -1,-4 -2,-9 -3,-11l-9 -22c-40,-18 -998,-17 -1087,-2 -2,82 90,701 114,784z"/>
    <path class="fil0" d="M703 9831c50,15 1038,14 1078,-1l-76 -638c-22,-154 4,-153 -142,-153l-666 -1c-133,0 -85,-42 -146,342l-52 339c-7,44 -13,75 4,112z"/>
    <path class="fil3" d="M1736 9775c-7,-108 -69,-594 -103,-657 -24,-17 8,-6 -35,-11l-349 -1c-87,0 -341,-22 -398,10 -19,40 -102,586 -104,655l989 4z"/>
    <polygon class="fil3" points="845,1357 1635,1360 1739,690 745,690 "/>
    <path class="fil4" d="M1671 5719c0,-323 11,-1160 -7,-1427l-115 -13 -1 1202c0,188 0,142 -166,142l-483 -3 -6 -1334c-92,-12 -119,-20 -119,99l0 1364c0,196 11,139 462,139 476,0 435,49 435,-169z"/>
    <path class="fil4" d="M2153 1133c10,-288 -135,-637 -240,-796 -150,-227 -450,-272 -689,-272 -438,0 -711,152 -846,615 -34,117 -81,320 -80,454 21,-79 89,-212 126,-294 212,-462 214,-394 425,-394l750 0c167,1 199,-27 281,110 102,168 192,376 273,577z"/>
    <path class="fil0" d="M2149 1957l5 -434c0,-143 0,-126 -48,-235l-169 -400c-25,-61 -50,-169 -108,-181 -41,75 -45,275 -58,375 -29,220 -21,190 64,345l249 480c27,49 16,42 65,50z"/>
    <path class="fil0" d="M341 1950c57,3 103,-124 163,-242 49,-95 94,-183 146,-280 76,-142 91,-124 64,-331 -13,-97 -22,-316 -59,-389 -52,7 -54,51 -78,111 -18,46 -36,88 -57,138 -40,92 -79,177 -117,271 -62,149 -71,128 -70,325 0,81 -11,339 8,397z"/>
    <path class="fil5" d="M2033 3538l4 -73c-33,-17 -1517,-27 -1628,-5l0 70c53,23 1482,23 1624,8z"/>
    <path class="fil3" d="M2100 1811c9,-85 4,-213 4,-304 0,-133 -86,-297 -152,-446 -26,-58 -66,-163 -100,-210 -11,99 -24,199 -36,298 -21,158 71,260 174,459 25,47 97,168 110,203z"/>
    <path class="fil3" d="M618 851c-47,159 -232,486 -236,627 -1,105 1,214 1,319 3,-3 4,-7 9,-9l111 -199c172,-328 203,-278 137,-668l-22 -70z"/>
    <polygon class="fil2" points="1397,5560 1397,4609 1297,4608 1295,5560 "/>
    <polygon class="fil2" points="1147,5557 1146,4613 1048,4609 1046,5556 "/>
    <path class="fil5" d="M1728 3683l3 -78 -1019 1 -1 72c56,20 924,19 1017,5z"/>
    <path class="fil5" d="M970 5559c41,-26 24,-20 23,-196l0 -1409c0,-42 19,-200 -23,-200 -44,-1 -23,375 -23,423 0,158 0,317 0,475l0 696c0,119 -14,163 23,211z"/>
    <path class="fil5" d="M1224 5560c38,-32 20,-49 20,-197l0 -1171c0,-59 19,-438 -21,-438 -45,-1 -23,375 -23,423l2 1348c11,43 1,8 22,35z"/>
    <path class="fil5" d="M1466 5560c42,-20 29,25 33,-76 2,-31 -2,-87 -2,-121l-2 -1571c-15,-44 9,-17 -29,-38 -2,4 -8,10 -5,12 3,3 -3,10 -4,13l-8 1718c0,88 4,43 17,63z"/>
    <path class="fil2" d="M1393 4217c9,-83 12,-389 -3,-463l-89 0 -6 463 98 0z"/>
    <path class="fil3" d="M2059 9134c2,-3 2,-8 6,-9 58,-21 38,-424 39,-469 -27,27 -159,270 -170,331 77,59 71,91 125,147z"/>
    <polygon class="fil2" points="1144,4215 1146,3757 1050,3754 1047,4214 "/>
    <path class="fil3" d="M426 9134c2,-2 3,-6 7,-8l52 -73c22,-31 42,-41 65,-87 -32,-71 -130,-264 -165,-300 -3,129 -26,377 41,468z"/>
    <path class="fil3" d="M625 9614c19,-55 27,-161 35,-229 14,-111 30,-136 -5,-224 -44,23 -123,125 -153,165 24,70 90,230 123,288z"/>
    <path class="fil3" d="M1857 9614l125 -288c-23,-37 -112,-147 -152,-167 -40,92 -21,97 -8,216 10,82 16,160 35,239z"/>
    <path class="fil5" d="M2265 9806c8,-12 26,26 -7,-105 -48,-194 -258,-607 -356,-664l-37 60c36,59 86,93 127,144 31,38 83,111 112,159 131,220 109,281 161,406z"/>
    <path class="fil5" d="M220 9806c60,-163 32,-189 157,-396 85,-141 141,-195 241,-311l-33 -65c-5,4 -12,7 -10,8l-29 26c-16,18 -14,19 -28,40 -20,32 -40,55 -61,88 -45,70 -289,522 -237,610z"/>
    <polygon class="fil4" points="1395,4547 1397,4282 1297,4282 1295,4546 "/>
    <polygon class="fil4" points="1146,4545 1146,4287 1048,4283 1047,4542 "/>
   </g>
  </g>
 </g>
</svg>
