<?xml version="1.0" encoding="UTF-8"?>
<!DOCTYPE svg PUBLIC "-//W3C//DTD SVG 1.1//EN" "http://www.w3.org/Graphics/SVG/1.1/DTD/svg11.dtd">
<!-- Creator: CorelDRAW X7 -->
<svg xmlns="http://www.w3.org/2000/svg" xml:space="preserve" width="210mm" height="297mm" version="1.1" style="shape-rendering:geometricPrecision; text-rendering:geometricPrecision; image-rendering:optimizeQuality; fill-rule:evenodd; clip-rule:evenodd"
viewBox="0 0 21000 29700"
 xmlns:xlink="http://www.w3.org/1999/xlink">
 <defs>
  <style type="text/css">
   <![CDATA[
    .fil3 {fill:#B2B3B3}
    .fil2 {fill:#5B5B5B}
    .fil4 {fill:#2B2A29}
    .fil1 {fill:#E31E24}
    .fil0 {fill:#151515}
    .fil5 {fill:#FEFEFE}
   ]]>
  </style>
 </defs>
 <g id="Vrstva_x0020_1">
  <metadata id="CorelCorpID_0Corel-Layer"/>
  <g id="_1979944208224">
   <path class="fil0" d="M2104 3796c189,-27 65,-153 165,-322 198,25 383,138 522,223 -103,93 -675,367 -816,546 -77,97 -39,1674 -39,2014 0,900 29,551 909,1164 -92,118 -390,237 -576,268 -109,-183 30,-318 -159,-315 -38,91 68,583 95,748 21,133 -5,182 120,199 33,-119 -18,-220 -19,-362 408,-76 841,-360 866,-363 63,-6 297,138 471,146 202,10 432,0 637,0l12594 0c759,0 1534,-79 2103,-413 570,-335 795,-864 796,-1760 1,-907 -185,-1414 -752,-1776 -557,-354 -1320,-445 -2068,-445l-12621 2c-663,0 -629,-66 -1121,147 -159,70 -266,-61 -431,-133 -150,-66 -306,-129 -477,-157 6,-109 60,-258 19,-353 -129,0 -107,111 -159,437 -21,128 -83,400 -59,505z"/>
   <path class="fil1" d="M5693 3477c-316,92 -1435,685 -1496,866 -17,50 -23,2142 -10,2337 12,188 467,422 634,517 231,130 520,289 793,397 212,84 1935,38 2317,38 172,0 9241,32 9432,-14 293,-70 1432,-714 1489,-867 18,-49 33,-2193 13,-2347 -33,-255 -1196,-824 -1446,-914 -206,-74 -6504,-33 -7028,-33 -545,0 -4518,-33 -4698,20z"/>
   <path class="fil0" d="M13339 3886c-260,32 -5552,7 -6202,7 -837,0 -1503,-134 -2078,419 -427,411 -347,937 -347,1575 0,710 524,1194 1170,1279 281,37 2041,14 2472,14 1649,0 3299,-1 4948,0 70,47 32,110 78,215 93,36 216,52 334,17l10 -231 1536 -1c817,1 1436,-504 1436,-1320l0 -661c0,-838 -642,-1303 -1489,-1306l-1475 0c-29,-193 55,-273 -191,-257 -180,12 -189,73 -202,250z"/>
   <path class="fil2" d="M13340 7064l2 -290c-131,-15 -170,-20 -247,-71l-21 -438 -823 -14c8,217 3,353 -193,374 -159,17 -413,2 -582,2 -269,0 -2132,38 -2236,-38 -145,-106 -82,-814 -82,-1046 0,-1327 -185,-1097 1181,-1097l1695 0c219,19 212,167 222,368l818 4c9,-174 -17,-344 33,-478l228 -37 9 -286c-206,-41 -5648,-12 -6260,-12 -761,0 -1541,-139 -2031,485 -245,312 -226,593 -226,1053 1,433 -18,745 219,1032 519,629 1209,496 2012,496 647,0 6029,27 6282,-7z"/>
   <path class="fil2" d="M13722 7072c526,-1 1694,62 2096,-98 748,-297 764,-837 764,-1431 0,-360 31,-654 -147,-937 -514,-817 -1628,-601 -2709,-601l-4 3067z"/>
   <path class="fil1" d="M3247 3611c86,137 162,83 229,45 139,-79 150,-65 327,-64 213,2 621,-21 796,15 -17,135 -252,233 -444,356 -168,106 -330,214 -498,322 -272,176 -214,200 -611,138 -194,-29 -565,-44 -690,-131 45,-158 471,-248 664,-416l-116 -95c-162,66 -747,419 -819,521 -81,116 -37,1651 -37,2008 0,280 -61,427 129,568 235,173 414,255 643,389 96,56 133,107 208,22 -138,-124 -632,-270 -672,-420 131,-86 475,-97 663,-127 407,-66 334,-58 622,127l870 558c79,53 75,37 89,134 -93,20 -935,33 -1039,-3 -106,-38 -150,-138 -257,-57 226,191 648,131 976,131 366,1 748,11 1112,-2 -58,-46 -749,-393 -1073,-618 -275,-192 -248,-176 -248,-596l0 -1720c0,-491 -46,-483 758,-932 186,-104 401,-197 563,-304 -373,-13 -764,-2 -1139,-2 -424,0 -673,-56 -1006,153z"/>
   <path class="fil0" d="M17252 4627c-28,153 -28,1768 2,1912 220,55 458,96 683,136l632 108c7,-1 14,-2 20,-4 7,-1 15,-4 20,-6l38 -19c33,-87 31,-2182 5,-2377 -148,-4 -1251,197 -1400,250z"/>
   <path class="fil0" d="M2233 4404c-28,109 -25,2269 2,2357l1138 -166c274,-49 273,7 273,-311l1 -1456c0,-291 75,-187 -609,-319l-606 -114c-79,-15 -134,-30 -199,9z"/>
   <path class="fil3" d="M2333 6663c192,-17 1059,-153 1172,-226 30,-52 10,17 20,-76l1 -765c0,-190 40,-745 -17,-870 -72,-41 -1047,-223 -1170,-226l-6 2163z"/>
   <polygon class="fil3" points="17356,4714 17351,6442 18546,6669 18545,4494 "/>
   <path class="fil4" d="M9571 6519c577,0 2071,25 2547,-14l22 -251 -2145 -3c-334,0 -253,0 -252,-364l4 -1055 2382 -13c20,-202 35,-261 -177,-261l-2434 0c-351,0 -248,25 -248,1011 0,1041 -88,950 301,950z"/>
   <path class="fil4" d="M17756 7573c513,22 1136,-294 1419,-523 406,-328 486,-986 486,-1507 0,-958 -271,-1555 -1097,-1850 -209,-74 -572,-178 -810,-176 141,47 378,194 525,276 823,464 702,468 702,930l0 1640c-1,365 49,434 -196,614 -300,222 -671,420 -1029,596z"/>
   <path class="fil0" d="M16285 7565l774 10c255,0 226,0 420,-104l714 -370c109,-55 301,-109 322,-235 -134,-90 -490,-98 -669,-127 -392,-64 -339,-46 -616,139l-856 545c-87,58 -75,36 -89,142z"/>
   <path class="fil0" d="M16298 3611c-7,124 221,226 431,357 169,106 326,205 500,319 254,167 221,199 591,139 173,-28 564,-47 694,-127 -13,-115 -92,-120 -198,-172 -82,-40 -157,-78 -246,-125 -165,-87 -317,-172 -485,-256 -265,-134 -228,-154 -579,-153 -145,0 -605,-23 -708,18z"/>
   <path class="fil5" d="M13464 7311l129 9c31,-73 48,-3317 10,-3559l-125 -2c-42,118 -42,3242 -14,3552z"/>
   <path class="fil3" d="M16545 7458c152,20 381,8 542,8 239,1 530,-188 796,-332 105,-56 292,-144 375,-218 -176,-24 -354,-52 -532,-80 -281,-45 -463,156 -818,382 -85,54 -301,212 -363,240z"/>
   <path class="fil3" d="M18258 4218c-284,-104 -866,-509 -1118,-516 -187,-4 -382,2 -570,2 5,6 13,7 16,18l355 244c586,376 497,444 1192,300l125 -48z"/>
   <polygon class="fil2" points="9855,5920 11552,5920 11553,5703 9855,5698 "/>
   <polygon class="fil2" points="9860,5373 11545,5372 11551,5158 9862,5154 "/>
   <path class="fil5" d="M13204 6645l139 5 -1 -2227 -129 -2c-36,123 -34,2019 -9,2224z"/>
   <path class="fil5" d="M9856 4987c46,90 37,52 350,51l2514 0c75,0 358,40 358,-51 1,-97 -670,-50 -755,-50 -282,-1 -565,0 -847,0l-1243 0c-212,0 -290,-32 -377,50z"/>
   <path class="fil5" d="M9855 5543c56,82 88,44 351,44l2090 0c105,0 781,40 782,-46 1,-99 -669,-52 -755,-52l-2405 5c-78,25 -16,2 -63,49z"/>
   <path class="fil5" d="M9855 6072c35,91 -45,62 136,72 55,3 154,-4 215,-4l2804 -6c78,-32 31,21 68,-62 -7,-5 -18,-18 -22,-11 -5,7 -17,-8 -23,-10l-3065 -16c-158,0 -77,9 -113,37z"/>
   <path class="fil2" d="M12252 5912c148,19 694,26 826,-6l-1 -195 -826 -13 1 214z"/>
   <path class="fil3" d="M3477 7368c5,5 13,5 16,14 37,127 757,83 837,84 -49,-58 -482,-347 -591,-372 -106,169 -162,157 -262,274z"/>
   <polygon class="fil2" points="12255,5368 13073,5371 13077,5162 12257,5155 "/>
   <path class="fil3" d="M3476 3797c4,5 11,6 14,15l131 114c56,49 73,92 156,142 126,-70 471,-284 534,-360 -230,-6 -673,-57 -835,89z"/>
   <path class="fil3" d="M2620 4232c98,43 287,60 409,78 198,29 243,64 400,-12 -41,-97 -224,-269 -295,-334 -126,52 -410,197 -514,268z"/>
   <path class="fil3" d="M2619 6926l514 273c67,-50 263,-243 298,-332 -163,-86 -172,-45 -384,-16 -147,20 -287,34 -428,75z"/>
   <path class="fil5" d="M2277 7818c22,18 -46,57 188,-14 346,-105 1083,-565 1185,-779l-108 -80c-104,78 -166,187 -256,277 -68,68 -198,182 -284,245 -393,286 -501,237 -725,351z"/>
   <path class="fil5" d="M2277 3347c291,132 338,69 707,343 251,187 347,308 555,527l115 -72c-6,-11 -12,-27 -13,-23l-47 -63c-32,-35 -34,-31 -72,-60 -57,-45 -97,-87 -156,-134 -125,-99 -931,-633 -1089,-518z"/>
   <polygon class="fil4" points="11663,5917 12136,5920 12135,5703 11664,5698 "/>
   <polygon class="fil4" points="11666,5372 12126,5371 12134,5157 11671,5155 "/>
  </g>
 </g>
</svg>
