<?xml version="1.0" encoding="UTF-8"?>
<!DOCTYPE svg PUBLIC "-//W3C//DTD SVG 1.1//EN" "http://www.w3.org/Graphics/SVG/1.1/DTD/svg11.dtd">
<!-- Creator: CorelDRAW X7 -->
<svg xmlns="http://www.w3.org/2000/svg" xml:space="preserve" width="25mm" height="50mm" version="1.1" style="shape-rendering:geometricPrecision; text-rendering:geometricPrecision; image-rendering:optimizeQuality; fill-rule:evenodd; clip-rule:evenodd"
viewBox="0 0 2500 5000"
 xmlns:xlink="http://www.w3.org/1999/xlink">
 <defs>
  <style type="text/css">
   <![CDATA[
    .fil6 {fill:black}
    .fil0 {fill:#011721}
    .fil5 {fill:#1C3345}
    .fil1 {fill:#2A2F31}
    .fil3 {fill:#2A4961}
    .fil7 {fill:#3D5B72}
    .fil13 {fill:#595959}
    .fil12 {fill:#6D523A}
    .fil14 {fill:#7A8994}
    .fil2 {fill:#9A7552}
    .fil9 {fill:#A5AEBD}
    .fil10 {fill:#CEC7BD}
    .fil11 {fill:#D5D5D5}
    .fil8 {fill:#E6ECF2}
    .fil4 {fill:#F8E5C8}
   ]]>
  </style>
 </defs>
 <g id="Vrstva_x0020_1">
  <metadata id="CorelCorpID_0Corel-Layer"/>
  <g id="_2217253950896">
   <g id="_1979888529616">
    <path class="fil0" d="M2325 2495l-176 10 -69 9c-10,56 -3,106 -5,160 -2,48 -31,82 -40,138 -5,32 2,71 -31,91 10,19 -4,10 13,18 -19,89 -29,195 -78,278 -34,57 -83,189 -106,252 -12,64 -26,149 -74,191 -26,22 -49,37 -77,62 -30,27 -38,51 -58,71l-6 12c-4,29 -9,64 -10,93 0,14 3,37 2,49 -3,32 21,14 -16,36 -28,79 -158,134 -323,126 -207,-9 -285,-19 -357,-116l-73 -142c14,-63 69,-129 54,-186 -48,-68 -75,-37 -167,-94 -43,-26 -99,-124 -100,-151 -2,-48 68,-63 21,-124 -52,-3 -59,-12 -71,-96 -5,-41 -1,-90 -7,-135 -12,-86 5,-137 -5,-194l-26 -58c-8,-56 -89,-216 -141,-243l-136 -33 -70 6c-43,97 49,26 -49,127 -94,95 -119,210 -88,323 26,93 -20,101 45,177 94,112 28,408 83,536 13,30 7,14 8,32 2,28 -15,-1 7,40 61,116 292,201 243,333 -34,90 -79,43 0,145 35,47 49,106 84,150 22,30 29,30 60,54 40,33 27,37 54,68 63,71 273,116 404,136 236,35 104,15 272,7l198 12c99,30 303,-27 375,-58 88,-38 61,-29 125,-76 39,-28 76,-47 121,-79 43,-30 110,-191 113,-254 3,-77 -47,-58 16,-130 41,-44 27,-73 -12,-115 -105,-112 -76,-111 14,-221 55,-67 90,-158 125,-235 48,-106 36,-180 60,-290 18,-82 27,-244 53,-278l0 -34c-66,-50 53,-114 -92,-311 -12,-18 -21,-30 -33,-44 -6,-8 -16,-19 -21,-24 -24,-20 0,-6 -33,-21z"/>
    <path class="fil0" d="M1856 2283c-39,-6 -35,-6 -68,-28 -25,-17 -33,-24 -46,-42 -40,-13 -64,-36 -82,-66 -52,-15 -160,-52 -118,32 42,23 40,60 37,108 -113,8 -55,-20 -168,-15l0 -292c-36,-19 -53,-2 -66,-29 -49,-2 -64,-6 -111,4 -39,8 -5,12 -65,13l-7 306c4,-1 14,-3 12,-4 -31,-10 350,-73 230,117 -44,9 -154,11 -200,0l-42 -16 7 547 -62 3c17,36 24,17 24,54 -1,24 -13,62 -18,87l56 2 5 330 20 -19c124,2 150,42 218,73l-3 -755 -1 -152c4,-183 -9,-118 81,-143 47,-12 13,-10 63,-27 99,7 69,28 138,43 61,12 112,-7 171,-8 18,-17 12,-1 13,-23 1,-17 -2,-8 -10,-26 -20,-45 -18,-25 -8,-74z"/>
    <path class="fil1" d="M1319 4l-53 0c-114,48 -85,47 -86,206 -2,226 24,597 0,792l5 606c84,4 135,-12 204,10 -15,-83 -28,-569 5,-625 -26,-26 -12,-654 -12,-774 0,-156 27,-166 -63,-215z"/>
    <path class="fil2" d="M903 3777c51,-21 11,-7 27,0 -9,22 -18,31 -3,54 86,139 154,21 181,115l-149 -38 19 60c-55,-3 -36,-7 -64,7 72,97 150,107 357,116 165,8 295,-47 323,-126l-7 -9c-43,-39 -21,-12 -38,-73 -20,-70 -20,-39 -65,-78l70 -53c27,13 35,20 64,35l6 -12 -12 -36 -12 16c-66,-73 -234,-121 -363,-135 -165,-19 -303,78 -334,157z"/>
    <path class="fil3" d="M1107 2921c-9,-8 -29,-24 -38,-33 -21,-19 -15,-18 -32,-36 -24,-25 -62,-41 -113,-44l-116 113c-10,12 -50,99 -157,83 -24,-117 37,-175 106,-232 -120,-20 -139,3 -217,23l26 58c10,57 -7,108 5,194 6,45 2,94 7,135 12,84 19,93 71,96 92,21 -33,32 86,102 115,67 220,2 272,-74l83 -99 23 -145c5,-25 17,-63 18,-87 0,-37 -7,-18 -24,-54z"/>
    <path class="fil0" d="M1394 993c-33,56 -20,542 -5,625 -2,37 31,64 -39,78 -29,6 -143,1 -180,0l0 227 212 2 23 0c11,-68 -15,-168 13,-230 11,23 35,64 48,89 9,17 17,31 26,49l37 48 -1 -70c-5,-145 -16,-291 -24,-434 -11,-186 12,-139 -44,-311 -14,-43 -3,-67 -66,-73z"/>
    <path class="fil4" d="M1591 3685c-37,-45 -41,-47 -40,-103 -46,-3 -13,14 -43,-28 -12,-17 -14,-24 -27,-39 -25,-31 -46,-38 -69,-67 -68,-31 -94,-71 -218,-73l-20 19c-40,24 -66,42 -110,64 -50,80 -85,47 -134,134l-30 49c-1,1 -3,4 -5,6 15,57 -40,123 -54,186 36,-13 28,-28 62,-56 31,-79 169,-176 334,-157 129,14 297,62 363,135l12 -16 -21 -54z"/>
    <path class="fil4" d="M670 2223c-77,14 -20,-19 -69,2 -21,9 -25,23 -31,46 -22,-12 -19,-13 -57,-18l-26 43c-37,-38 -18,-27 -68,-15 -70,18 -119,-36 -132,28 -36,52 -62,30 -70,118 8,30 10,57 3,77 48,13 45,2 43,15l136 33c8,-22 14,-28 87,-40 90,-15 206,-33 257,-92l-80 -3c-34,-74 -10,-124 7,-194z"/>
    <path class="fil0" d="M1026 1885l35 -24c-2,-64 104,-185 124,-253l-5 -606c-35,-15 -6,-9 -54,-4 -74,82 -72,318 -78,428 -9,134 -36,329 -22,459z"/>
    <path class="fil5" d="M649 3278c47,61 -23,76 -21,124 1,27 57,125 100,151 92,57 119,26 167,94 2,-2 4,-5 5,-6l30 -49c49,-87 84,-54 134,-134 10,-61 24,-43 17,-121 -4,-43 5,-87 9,-130l-83 99c-52,76 -157,141 -272,74 -119,-70 6,-81 -86,-102z"/>
    <path class="fil4" d="M2316 2311c-80,-1 -55,0 -100,-38 -98,-84 -138,-47 -172,-35 -79,28 -53,-5 -128,28 -89,39 64,-16 -24,11 -3,1 -32,6 -36,6 -10,49 -12,29 8,74 8,18 11,9 10,26 -1,22 5,6 -13,23 61,5 22,-11 52,4 33,17 15,24 57,34 100,25 42,-29 184,14l173 -24 3 -17c-5,-23 -13,-34 -23,-57 -16,-40 -22,-22 9,-49z"/>
    <path class="fil3" d="M1885 2959c-56,17 -102,45 -137,77 -46,42 -55,71 -85,121 63,1 71,30 90,115 15,66 -72,323 -135,390l-27 23 21 54 12 36c20,-20 28,-44 58,-71 28,-25 51,-40 77,-62 48,-42 62,-127 74,-191 -45,-11 -8,-168 -14,-254 -4,-60 -4,-88 32,-131 26,-31 41,-77 69,-102 -26,-8 27,-16 -35,-5z"/>
    <path class="fil6" d="M1408 2541l1 152c225,-25 147,-69 303,156 12,17 23,40 39,56 91,-8 174,1 253,-2 33,-20 26,-59 31,-91 -42,11 -47,22 -89,22 -56,0 -94,-4 -156,-2 9,-67 -51,-151 -103,-202 -67,-66 -129,-91 -279,-89z"/>
    <path class="fil0" d="M1126 2290l-276 0c1,-92 31,-59 82,-99 16,-31 11,-32 -33,-43 -33,-9 -56,-5 -91,0l-46 74 -79 1 -13 0c-17,70 -41,120 -7,194l80 3c83,-10 120,-34 192,-41 70,-8 143,9 200,-15 8,-41 10,-39 -9,-74z"/>
    <path class="fil5" d="M1663 3157c-36,73 -62,120 -86,205 -11,42 -27,70 -31,113 -5,37 14,73 5,107 -1,56 3,58 40,103l27 -23c63,-67 150,-324 135,-390 -19,-85 -27,-114 -90,-115z"/>
    <path class="fil1" d="M1316 4653c-6,54 -35,299 41,342l20 9 79 0c51,-25 44,-6 52,-57 4,-29 1,-64 1,-93 -2,-62 2,-126 5,-189l-198 -12z"/>
    <path class="fil7" d="M1885 2959c62,-11 9,-3 35,5 -28,25 -43,71 -69,102 -36,43 -36,71 -32,131 6,86 -31,243 14,254 23,-63 72,-195 106,-252 49,-83 59,-189 78,-278 -33,2 -40,1 -73,10 -7,1 -20,5 -28,9 -25,11 -17,7 -31,19z"/>
    <path class="fil8" d="M1389 1618c-69,-22 -120,-6 -204,-10 -20,68 -126,189 -124,253l85 34 -16 81 39 -8c60,-1 26,-5 65,-13 47,-10 62,-6 111,-4 42,-7 19,0 37,-26l-212 -2 0 -227c37,1 151,6 180,0 70,-14 37,-41 39,-78z"/>
    <path class="fil0" d="M4 2371l0 22c54,31 120,33 213,34 8,-88 34,-66 70,-118 -154,-36 -47,-115 -195,-121 -36,46 -41,142 -88,183z"/>
    <path class="fil0" d="M2316 2311c-31,27 -25,9 -9,49 10,23 18,34 23,57 216,0 163,-26 78,-187 -35,-68 -56,-118 -169,-69 -7,65 124,144 77,150z"/>
    <path class="fil7" d="M757 2772c-69,57 -130,115 -106,232 107,16 147,-71 157,-83l116 -113c-29,-21 -32,-18 -80,-25 -31,-5 -56,-7 -87,-11z"/>
    <path class="fil9" d="M1162 2274c-17,28 12,36 -36,16 19,35 17,33 9,74l27 7 42 16c46,11 156,9 200,0 120,-190 -261,-127 -230,-117 2,1 -8,3 -12,4z"/>
    <path class="fil10" d="M1677 2102l-17 45c18,30 42,53 82,66 81,-79 406,-6 345,-173 -65,13 -84,51 -167,70 -54,13 -189,3 -243,-8z"/>
    <path class="fil11" d="M1528 1811l1 70 -37 -48c-9,-18 -17,-32 -26,-49 -13,-25 -37,-66 -48,-89 -28,62 -2,162 -13,230 13,19 9,30 34,52 55,-15 101,-33 105,-62l5 -76c-9,-27 3,-12 -21,-28z"/>
    <path class="fil10" d="M683 2223l79 -1 46 -74 -4 -42c-450,71 -280,-44 -411,-38 13,67 227,112 337,136l-47 19z"/>
    <path class="fil12" d="M903 3777c-34,28 -26,43 -62,56l73 142c28,-14 9,-10 64,-7l-19 -60 149 38c-27,-94 -95,24 -181,-115 -15,-23 -6,-32 3,-54 -16,-7 24,-21 -27,0z"/>
    <path class="fil12" d="M1594 3965c37,-22 13,-4 16,-36 1,-12 -2,-35 -2,-49 1,-29 6,-64 10,-93 -29,-15 -37,-22 -64,-35l-70 53c45,39 45,8 65,78 17,61 -5,34 38,73l7 9z"/>
    <path class="fil13" d="M804 2106l4 42c35,-5 58,-9 91,0 44,11 49,12 33,43l134 -6c-12,-86 -140,-67 -262,-79z"/>
    <path class="fil13" d="M1542 2179c-42,-84 66,-47 118,-32l17 -45 -167 -1c-43,16 -66,48 -65,81l97 -3z"/>
    <path class="fil10" d="M1061 1861l-35 24 -11 38c48,28 43,34 115,53l16 -81 -85 -34z"/>
    <polygon class="fil14" points="2154,2458 2149,2505 2325,2495 2327,2434 "/>
   </g>
  </g>
 </g>
</svg>
