<?xml version="1.0" encoding="UTF-8"?>
<!DOCTYPE svg PUBLIC "-//W3C//DTD SVG 1.1//EN" "http://www.w3.org/Graphics/SVG/1.1/DTD/svg11.dtd">
<!-- Creator: CorelDRAW X7 -->
<svg xmlns="http://www.w3.org/2000/svg" xml:space="preserve" width="210mm" height="297mm" version="1.1" style="shape-rendering:geometricPrecision; text-rendering:geometricPrecision; image-rendering:optimizeQuality; fill-rule:evenodd; clip-rule:evenodd"
viewBox="0 0 21000 29700"
 xmlns:xlink="http://www.w3.org/1999/xlink">
 <defs>
  <style type="text/css">
   <![CDATA[
    .fil6 {fill:black}
    .fil0 {fill:#011721}
    .fil5 {fill:#1C3345}
    .fil1 {fill:#2A2F31}
    .fil3 {fill:#2A4961}
    .fil7 {fill:#3D5B72}
    .fil13 {fill:#595959}
    .fil12 {fill:#6D523A}
    .fil14 {fill:#7A8994}
    .fil2 {fill:#9A7552}
    .fil9 {fill:#A5AEBD}
    .fil10 {fill:#CEC7BD}
    .fil11 {fill:#D5D5D5}
    .fil8 {fill:#E6ECF2}
    .fil4 {fill:#F8E5C8}
   ]]>
  </style>
 </defs>
 <g id="Vrstva_x0020_1">
  <metadata id="CorelCorpID_0Corel-Layer"/>
  <g id="_1979888529616">
   <path class="fil0" d="M10468 15814l40 438 32 170c211,26 399,8 604,14 182,5 309,76 520,99 120,13 266,-6 344,76 69,-25 38,10 67,-32 336,47 733,72 1047,194 217,85 712,205 948,262 244,31 563,66 721,186 84,64 140,121 233,190 101,75 194,95 270,145l43 13c109,11 242,24 352,25 51,1 139,-7 182,-4 121,8 55,-53 137,40 299,69 504,393 477,801 -34,515 -73,709 -439,888l-534 181c-240,-36 -488,-172 -700,-133 -257,118 -140,185 -355,414 -100,106 -468,246 -568,249 -184,5 -238,-170 -469,-52 -13,128 -45,146 -363,174 -155,13 -337,3 -506,18 -324,31 -516,-13 -732,14l-217 63c-211,20 -816,221 -918,350l-123 339 23 173c365,108 98,-121 477,123 359,232 792,295 1218,218 350,-64 379,48 666,-111 423,-234 1537,-72 2018,-208 114,-32 53,-17 123,-20 105,-4 -3,37 151,-16 436,-151 756,-725 1254,-603 340,83 162,196 547,0 175,-89 397,-124 566,-209 112,-56 110,-73 203,-149 123,-100 137,-67 256,-136 268,-155 436,-676 511,-1003 134,-586 56,-258 26,-675l47 -492c112,-246 -102,-753 -218,-930 -144,-220 -109,-152 -287,-312 -105,-95 -177,-189 -299,-301 -114,-105 -718,-271 -955,-279 -290,-9 -221,117 -490,-41 -168,-100 -277,-67 -435,31 -421,260 -417,189 -832,-34 -253,-137 -596,-225 -886,-312 -400,-120 -677,-88 -1092,-149 -308,-45 -921,-66 -1047,-132l-128 0c-190,165 -429,-130 -1174,229 -65,31 -110,52 -166,82 -27,14 -72,39 -88,52 -77,60 -23,0 -82,82z"/>
   <path class="fil0" d="M9671 16979c-23,96 -22,88 -105,169 -64,62 -91,81 -160,114 -49,100 -133,160 -248,204 -54,130 -195,397 120,292 87,-104 226,-99 410,-91 30,280 -79,136 -58,418l-1102 0c-72,88 -6,130 -108,164 -9,122 -21,157 17,276 30,95 45,12 47,161l1154 16c-5,-10 -14,-34 -17,-28 -38,76 -273,-871 443,-572 33,109 41,383 0,497l-60 104 2061 -17 10 154c137,-44 63,-61 204,-60 91,1 232,31 328,44l8 -138 1241 -12 -71 -50c7,-309 159,-374 277,-543l-2845 7 -572 4c-690,-10 -447,21 -539,-202 -47,-115 -38,-32 -105,-157 28,-244 109,-170 162,-341 46,-153 -24,-278 -29,-425 -64,-45 -3,-30 -86,-32 -63,-2 -32,5 -100,24 -169,50 -94,45 -277,20z"/>
   <path class="fil1" d="M1084 18313l0 131c180,284 179,212 776,215 853,4 2251,-60 2985,-1l2281 -13c15,-207 -43,-334 39,-505 -311,36 -2145,68 -2353,-14 -98,64 -2467,31 -2916,31 -591,0 -626,-68 -812,156z"/>
   <path class="fil2" d="M15301 19346c-81,-126 -28,-28 0,-67 83,23 115,44 204,8 522,-215 79,-383 433,-451l-145 370 227 -46c-10,136 -25,89 26,159 366,-179 405,-373 439,-888 27,-408 -178,-732 -477,-801l-33 18c-147,105 -45,51 -275,94 -265,49 -146,48 -293,162l-200 -175c47,-68 74,-86 130,-160l-43 -13 -137 29 61 31c-274,162 -455,579 -511,900 -70,409 295,752 594,830z"/>
   <path class="fil3" d="M12075 18840c-30,21 -91,71 -124,94 -73,51 -70,36 -136,78 -93,61 -154,154 -167,282l428 288c46,24 373,123 313,389 -444,60 -660,-91 -876,-262 -76,297 10,345 89,538l217 -63c216,-27 408,17 732,-14 169,-15 351,-5 506,-18 318,-28 350,-46 363,-174 78,-229 120,81 383,-214 255,-286 7,-546 -276,-677l-376 -206 -544 -57c-96,-13 -237,-43 -328,-44 -141,-1 -67,16 -204,60z"/>
   <path class="fil0" d="M4812 18126c208,82 2042,50 2353,14 139,3 243,-79 295,96 21,73 3,354 -2,447l858 0 8 -526 -1 -58c-257,-28 -634,38 -868,-33 89,-26 240,-86 337,-119 63,-22 117,-41 183,-64l183 -93 -265 3c-548,14 -1096,40 -1635,61 -700,27 -525,-31 -1171,108 -162,35 -252,7 -275,164z"/>
   <path class="fil4" d="M14952 17638c-168,90 -174,102 -387,98 -10,114 54,32 -106,108 -63,30 -90,35 -147,66 -116,62 -141,114 -250,171 -118,169 -270,234 -277,543l71 50c93,97 158,164 241,271 304,125 178,211 507,333l183 75c6,3 17,8 25,14 212,-39 460,97 700,133 -51,-89 -106,-70 -211,-154 -299,-78 -664,-421 -594,-830 56,-321 237,-738 511,-900l-61 -31 -205 53z"/>
   <path class="fil4" d="M9445 19925c54,192 -72,50 9,171 34,52 86,61 172,77 -47,54 -50,47 -69,141l162 65c-144,91 -102,44 -55,168 68,176 -136,297 105,329 196,88 112,153 444,174 114,-19 215,-25 290,-8 50,-120 8,-111 58,-106l123 -339c-81,-19 -106,-35 -150,-216 -55,-223 -126,-510 -347,-637l-12 197c-279,86 -466,25 -730,-16z"/>
   <path class="fil0" d="M8170 19041l-90 -87c-239,4 -697,-260 -954,-309l-2281 13c-57,88 -34,16 -17,133 312,186 1200,179 1615,196 505,20 1239,89 1727,54z"/>
   <path class="fil5" d="M13420 19978c231,-118 285,57 469,52 100,-3 468,-143 568,-249 215,-229 98,-296 355,-414 -8,-6 -19,-11 -25,-14l-183 -75c-329,-122 -203,-208 -507,-333 -229,-23 -160,-59 -453,-41 -162,11 -329,-12 -493,-23l376 206c283,131 531,391 276,677 -263,295 -305,-15 -383,214z"/>
   <path class="fil4" d="M9777 15836c-4,199 -1,137 -145,249 -314,243 -176,342 -130,428 105,195 -18,131 106,318 147,221 -63,-160 42,59 4,8 20,80 21,89 183,25 108,30 277,-20 68,-19 37,-26 100,-24 83,2 22,-13 86,32 20,-151 -40,-56 16,-129 63,-82 89,-38 128,-143 94,-248 -111,-104 51,-455l-89 -430 -63 -9c-86,13 -130,33 -215,57 -152,41 -82,55 -185,-22z"/>
   <path class="fil3" d="M12219 16908c63,137 168,252 288,339 160,115 269,138 458,211 3,-155 111,-175 432,-223 249,-37 1216,178 1469,334l86 69 205 -53 137 -29c-76,-50 -169,-70 -270,-145 -93,-69 -149,-126 -233,-190 -158,-120 -477,-155 -721,-186 -38,112 -630,20 -955,36 -227,11 -330,9 -493,-80 -118,-64 -290,-101 -384,-171 -33,65 -60,-67 -19,88z"/>
   <path class="fil6" d="M10645 18092l572 -4c-94,-557 -260,-363 586,-752 64,-29 152,-57 213,-97 -32,-226 1,-431 -8,-628 -78,-82 -224,-63 -344,-76 43,103 85,116 83,220 -1,140 -16,234 -9,387 -250,-21 -568,128 -759,256 -250,167 -343,320 -334,694z"/>
   <path class="fil0" d="M9697 18793l-1 684c-346,-1 -222,-77 -370,-202 -117,-41 -122,-29 -164,81 -32,81 -17,139 2,226l279 113 3 198 -1 32c264,41 451,102 730,16l12 -197c-37,-208 -128,-298 -156,-478 -27,-174 34,-355 -54,-496 -157,-21 -147,-26 -280,23z"/>
   <path class="fil5" d="M12965 17458c274,90 453,155 773,213 156,29 262,67 423,79 142,11 278,-36 404,-14 213,4 219,-8 387,-98l-86 -69c-253,-156 -1220,-371 -1469,-334 -321,48 -429,68 -432,223z"/>
   <path class="fil1" d="M18600 18320c205,15 1126,88 1290,-101l33 -50 0 -197c-93,-125 -22,-110 -215,-129 -109,-10 -239,-2 -350,-1 -235,3 -476,-5 -711,-14l-47 492z"/>
   <path class="fil7" d="M12219 16908c-41,-155 -14,-23 19,-88 94,70 266,107 384,171 163,89 266,91 493,80 325,-16 917,76 955,-36 -236,-57 -731,-177 -948,-262 -314,-122 -711,-147 -1047,-194 8,81 5,100 36,181 7,19 22,49 36,71 42,62 25,42 72,77z"/>
   <path class="fil8" d="M7165 18140c-82,171 -24,298 -39,505 257,49 715,313 954,309l129 -212 304 39 -29 -95c-2,-149 -17,-66 -47,-161 -38,-119 -26,-154 -17,-276 -28,-105 0,-49 -96,-92l-8 526 -858 0c5,-93 23,-374 2,-447 -52,-175 -156,-93 -295,-96z"/>
   <path class="fil0" d="M10003 21578l81 0c119,-134 126,-297 129,-528 -332,-21 -248,-86 -444,-174 -137,382 -435,116 -454,484 171,89 535,101 688,218z"/>
   <path class="fil0" d="M9777 15836c103,77 33,63 185,22 85,-24 129,-44 215,-57 -1,-536 -98,-404 -706,-194 -255,89 -444,140 -260,420 244,17 544,-308 566,-191z"/>
   <path class="fil7" d="M11513 19709c216,171 432,322 876,262 60,-266 -267,-365 -313,-389l-428 -288c-77,72 -67,80 -94,198 -17,77 -27,139 -41,217z"/>
   <path class="fil9" d="M9638 18702c105,42 133,-30 59,91 133,-49 123,-44 280,-23l27 -67 60 -104c41,-114 33,-388 0,-497 -716,-299 -481,648 -443,572 3,-6 12,18 17,28z"/>
   <path class="fil10" d="M8988 17424l170 42c115,-44 199,-104 248,-204 -296,-200 -20,-1009 -652,-857 52,162 192,208 266,414 48,134 12,471 -32,605z"/>
   <path class="fil11" d="M7893 17793l265 -3 -183 93c-66,23 -120,42 -183,64 -97,33 -248,93 -337,119 234,71 611,5 868,33 71,-31 113,-21 196,-84 -56,-138 -126,-250 -235,-262l-285 -11c-104,22 -47,-9 -106,51z"/>
   <path class="fil10" d="M9446 19893l-3 -198 -279 -113 -160 10c266,1117 -164,696 -144,1020 253,-31 423,-564 515,-837l71 118z"/>
   <path class="fil12" d="M15301 19346c105,84 160,65 211,154l534 -181c-51,-70 -36,-23 -26,-159l-227 46 145 -370c-354,68 89,236 -433,451 -89,36 -121,15 -204,-8 -28,39 -81,-59 0,67z"/>
   <path class="fil12" d="M16008 17630c-82,-93 -16,-32 -137,-40 -43,-3 -131,5 -182,4 -110,-1 -243,-14 -352,-25 -56,74 -83,92 -130,160l200 175c147,-114 28,-113 293,-162 230,-43 128,11 275,-94l33 -18z"/>
   <path class="fil13" d="M9004 19592l160 -10c-19,-87 -34,-145 -2,-226 42,-110 47,-122 164,-81l-24 -334c-326,31 -251,349 -298,651z"/>
   <path class="fil13" d="M9278 17758c-315,105 -174,-162 -120,-292l-170 -42 -1 415c57,105 178,164 304,161l-13 -242z"/>
   <path class="fil10" d="M8080 18954l90 87 146 27c104,-119 125,-108 197,-287l-304 -39 -129 212z"/>
   <polygon class="fil14" points="10329,16240 10508,16252 10468,15814 10240,15810 "/>
  </g>
 </g>
</svg>
