<?xml version="1.0" encoding="UTF-8"?>
<!DOCTYPE svg PUBLIC "-//W3C//DTD SVG 1.1//EN" "http://www.w3.org/Graphics/SVG/1.1/DTD/svg11.dtd">
<!-- Creator: CorelDRAW X7 -->
<svg xmlns="http://www.w3.org/2000/svg" xml:space="preserve" width="35mm" height="70mm" version="1.1" style="shape-rendering:geometricPrecision; text-rendering:geometricPrecision; image-rendering:optimizeQuality; fill-rule:evenodd; clip-rule:evenodd"
viewBox="0 0 3500 7000"
 xmlns:xlink="http://www.w3.org/1999/xlink">
 <defs>
  <style type="text/css">
   <![CDATA[
    .fil1 {fill:#282829}
    .fil0 {fill:#2B2A29}
    .fil2 {fill:#514F51}
    .fil4 {fill:#E74129}
    .fil3 {fill:#FCFDFE}
   ]]>
  </style>
 </defs>
 <g id="Vrstva_x0020_1">
  <metadata id="CorelCorpID_0Corel-Layer"/>
  <g id="_2712177368272">
   <g id="_1745327408528">
    <path class="fil0" d="M918 7005l1661 0c332,0 601,-267 601,-597l0 -5339c0,-587 -479,-1064 -1070,-1064l-722 0c-591,0 -1070,477 -1070,1064l0 5339c0,330 269,597 600,597z"/>
    <path class="fil1" d="M713 5180l46 -2382 -379 -1594c0,-588 478,-1064 1069,-1064l600 0c591,0 1070,476 1070,1064l-379 1594 45 2382c0,560 -2072,560 -2072,0z"/>
    <path class="fil0" d="M372 1987c79,-14 54,140 0,174 -54,35 -373,105 -373,105 0,0 0,-217 373,-279z"/>
    <path class="fil0" d="M3126 1987c-79,-14 -54,140 0,174 54,35 373,105 373,105 0,0 0,-217 -373,-279z"/>
    <path class="fil2" d="M422 1832c0,0 217,1088 239,1296 21,209 42,2801 0,2894 -42,94 -108,73 -108,73 0,0 -131,-541 -131,-1814 0,-1275 0,-2449 0,-2449z"/>
    <path class="fil2" d="M3076 1832c0,0 -217,1088 -238,1296 -21,209 -43,2801 0,2894 42,94 106,73 106,73 0,0 132,-541 132,-1814 0,-1275 0,-2449 0,-2449z"/>
    <path class="fil2" d="M759 3021c0,0 -249,-1095 -206,-1296 44,-202 592,-354 1196,-354 604,0 1152,152 1195,354 44,201 -204,1296 -204,1296 0,0 -335,-65 -991,-65 -656,0 -990,65 -990,65z"/>
    <path class="fil3" d="M1056 355c-3,-51 -35,-98 -76,-127l-1 -1c-176,71 -324,196 -426,356 123,38 260,25 373,-37 70,-40 135,-109 130,-191z"/>
    <path class="fil3" d="M2442 355c4,-51 35,-98 77,-127l1 -1c176,71 324,196 424,356 -122,38 -259,25 -371,-37 -71,-40 -136,-109 -131,-191z"/>
    <path class="fil4" d="M779 6801c-90,-28 -172,-75 -239,-139 -18,-17 -36,-35 -57,-46 -16,-7 -33,-9 -50,-5 95,129 240,219 406,240l0 -2c-1,-27 -34,-41 -60,-48z"/>
    <path class="fil4" d="M2720 6801c89,-28 172,-75 239,-139 18,-17 34,-35 57,-46 14,-7 33,-9 49,-5 -95,129 -240,219 -406,240l0 -2c0,-27 34,-41 61,-48z"/>
    <path class="fil2" d="M2648 5611c0,0 -376,189 -899,189 -522,0 -899,-189 -899,-189 -73,209 -102,490 -112,641 -5,67 31,130 92,160 158,78 493,213 919,213 425,0 761,-135 919,-213 61,-30 97,-93 93,-160 -11,-151 -39,-432 -113,-641z"/>
   </g>
  </g>
 </g>
</svg>
