<?xml version="1.0" encoding="UTF-8"?>
<!DOCTYPE svg PUBLIC "-//W3C//DTD SVG 1.1//EN" "http://www.w3.org/Graphics/SVG/1.1/DTD/svg11.dtd">
<!-- Creator: CorelDRAW X7 -->
<svg xmlns="http://www.w3.org/2000/svg" xml:space="preserve" width="210mm" height="297mm" version="1.1" style="shape-rendering:geometricPrecision; text-rendering:geometricPrecision; image-rendering:optimizeQuality; fill-rule:evenodd; clip-rule:evenodd"
viewBox="0 0 21000 29700"
 xmlns:xlink="http://www.w3.org/1999/xlink">
 <defs>
  <style type="text/css">
   <![CDATA[
    .fil0 {fill:#2B2A29}
    .fil4 {fill:#E74129}
    .fil3 {fill:#FCFDFE}
    .fil2 {fill:#514F51}
    .fil1 {fill:#282829}
   ]]>
  </style>
 </defs>
 <g id="Vrstva_x0020_1">
  <metadata id="CorelCorpID_0Corel-Layer"/>
  <g id="_1745327408528">
   <path class="fil0" d="M16822 8351l1702 0c340,0 615,-276 615,-616l0 -5499c0,-605 -490,-1096 -1096,-1096l-740 0c-605,0 -1096,491 -1096,1096l0 5499c0,340 276,616 615,616z"/>
   <path class="fil1" d="M16612 6470l47 -2453 -389 -1642c0,-606 490,-1096 1096,-1096l615 0c605,0 1096,490 1096,1096l-389 1642 47 2453c0,577 -2123,577 -2123,0z"/>
   <path class="fil0" d="M16262 3181c81,-14 56,144 0,180 -55,36 -382,108 -382,108 0,0 0,-224 382,-288z"/>
   <path class="fil0" d="M19084 3181c-81,-14 -55,144 0,180 55,36 382,108 382,108 0,0 0,-224 -382,-288z"/>
   <path class="fil2" d="M16314 3022c0,0 222,1120 244,1335 22,215 43,2885 0,2981 -43,97 -110,75 -110,75 0,0 -134,-557 -134,-1869 0,-1313 0,-2522 0,-2522z"/>
   <path class="fil2" d="M19033 3022c0,0 -223,1120 -244,1335 -22,215 -44,2885 0,2981 43,97 109,75 109,75 0,0 135,-557 135,-1869 0,-1313 0,-2522 0,-2522z"/>
   <path class="fil2" d="M16659 4246c0,0 -255,-1128 -211,-1335 45,-208 606,-364 1225,-364 619,0 1180,156 1225,364 45,207 -210,1335 -210,1335 0,0 -343,-67 -1015,-67 -672,0 -1014,67 -1014,67z"/>
   <path class="fil3" d="M16963 1500c-3,-53 -36,-101 -78,-131l-1 -1c-180,73 -332,202 -436,367 126,39 266,26 382,-38 72,-41 138,-112 133,-197z"/>
   <path class="fil3" d="M18383 1500c4,-53 36,-101 79,-131l1 -1c180,73 332,202 435,367 -125,39 -266,26 -381,-38 -72,-41 -139,-112 -134,-197z"/>
   <path class="fil4" d="M16679 8140c-92,-28 -176,-77 -245,-143 -18,-17 -36,-36 -58,-47 -16,-7 -34,-10 -51,-5 97,132 246,225 416,247l0 -2c-1,-28 -35,-42 -62,-50z"/>
   <path class="fil4" d="M18668 8140c91,-28 176,-77 245,-143 18,-17 35,-36 58,-47 15,-7 34,-10 50,-5 -97,132 -245,225 -415,247l-1 -2c1,-28 35,-42 63,-50z"/>
   <path class="fil2" d="M18594 6914c0,0 -385,195 -921,195 -535,0 -921,-195 -921,-195 -75,216 -104,505 -115,661 -5,69 32,134 95,165 161,80 505,219 941,219 436,0 780,-139 942,-219 62,-31 99,-96 95,-165 -11,-156 -40,-445 -116,-661z"/>
  </g>
 </g>
</svg>
