<?xml version="1.0" encoding="UTF-8"?>
<!DOCTYPE svg PUBLIC "-//W3C//DTD SVG 1.1//EN" "http://www.w3.org/Graphics/SVG/1.1/DTD/svg11.dtd">
<!-- Creator: CorelDRAW X7 -->
<svg xmlns="http://www.w3.org/2000/svg" xml:space="preserve" width="35mm" height="70mm" version="1.1" style="shape-rendering:geometricPrecision; text-rendering:geometricPrecision; image-rendering:optimizeQuality; fill-rule:evenodd; clip-rule:evenodd"
viewBox="0 0 3500 7000"
 xmlns:xlink="http://www.w3.org/1999/xlink">
 <defs>
  <style type="text/css">
   <![CDATA[
    .fil2 {fill:#514F51}
    .fil0 {fill:#5E90C0}
    .fil1 {fill:#71A3D1}
    .fil4 {fill:#E74129}
    .fil3 {fill:#FCFDFE}
   ]]>
  </style>
 </defs>
 <g id="Vrstva_x0020_1">
  <metadata id="CorelCorpID_0Corel-Layer"/>
  <g id="_2712184081472">
   <g id="_1664049809040">
    <path class="fil0" d="M915 7003l1659 0c332,0 601,-268 601,-598l0 -5338c0,-587 -479,-1064 -1069,-1064l-723 0c-590,0 -1069,477 -1069,1064l0 5338c0,330 269,598 601,598z"/>
    <path class="fil1" d="M709 5177l46 -2381 -380 -1594c0,-588 479,-1064 1069,-1064l600 0c591,0 1070,476 1070,1064l-380 1594 46 2381c0,560 -2071,560 -2071,0z"/>
    <path class="fil0" d="M368 1985c79,-14 54,139 0,174 -54,35 -374,105 -374,105 0,0 0,-217 374,-279z"/>
    <path class="fil0" d="M3122 1985c-80,-14 -55,139 0,174 53,35 372,105 372,105 0,0 0,-217 -372,-279z"/>
    <path class="fil2" d="M418 1830c0,0 218,1087 238,1296 21,209 43,2801 0,2894 -42,94 -106,73 -106,73 0,0 -132,-541 -132,-1815 0,-1274 0,-2448 0,-2448z"/>
    <path class="fil2" d="M3071 1830c0,0 -217,1087 -238,1296 -22,209 -42,2801 0,2894 42,94 106,73 106,73 0,0 132,-541 132,-1815 0,-1274 0,-2448 0,-2448z"/>
    <path class="fil2" d="M755 3018c0,0 -249,-1095 -205,-1296 43,-201 590,-353 1195,-353 604,0 1151,152 1194,353 44,201 -205,1296 -205,1296 0,0 -333,-65 -989,-65 -656,0 -990,65 -990,65z"/>
    <path class="fil3" d="M1051 353c-3,-52 -35,-98 -76,-127l-1 -1c-176,70 -324,196 -424,356 122,38 259,25 371,-38 71,-39 136,-109 130,-190z"/>
    <path class="fil3" d="M2438 353c3,-52 35,-98 76,-127l1 -1c175,70 324,196 424,356 -122,38 -259,25 -372,-38 -70,-39 -135,-109 -129,-190z"/>
    <path class="fil4" d="M774 6798c-89,-27 -172,-74 -239,-138 -18,-17 -34,-35 -57,-46 -14,-7 -33,-10 -48,-5 94,128 239,219 405,240l1 -2c-1,-27 -35,-41 -62,-49z"/>
    <path class="fil4" d="M2715 6798c89,-27 172,-74 239,-138 17,-17 35,-35 56,-46 16,-7 34,-10 49,-5 -93,128 -239,219 -405,240l0 -2c1,-27 34,-41 61,-49z"/>
    <path class="fil2" d="M2644 5608c0,0 -377,190 -899,190 -523,0 -900,-190 -900,-190 -73,210 -101,491 -112,642 -4,67 32,130 93,160 157,78 494,213 919,213 424,0 761,-135 918,-213 61,-30 98,-93 93,-160 -11,-151 -39,-432 -112,-642z"/>
   </g>
  </g>
 </g>
</svg>
