<?xml version="1.0" encoding="UTF-8"?>
<!DOCTYPE svg PUBLIC "-//W3C//DTD SVG 1.1//EN" "http://www.w3.org/Graphics/SVG/1.1/DTD/svg11.dtd">
<!-- Creator: CorelDRAW X7 -->
<svg xmlns="http://www.w3.org/2000/svg" xml:space="preserve" width="210mm" height="297mm" version="1.1" style="shape-rendering:geometricPrecision; text-rendering:geometricPrecision; image-rendering:optimizeQuality; fill-rule:evenodd; clip-rule:evenodd"
viewBox="0 0 21000 29700"
 xmlns:xlink="http://www.w3.org/1999/xlink">
 <defs>
  <style type="text/css">
   <![CDATA[
    .fil4 {fill:#E74129}
    .fil3 {fill:#FCFDFE}
    .fil1 {fill:#71A3D1}
    .fil0 {fill:#5E90C0}
    .fil2 {fill:#514F51}
   ]]>
  </style>
 </defs>
 <g id="Vrstva_x0020_1">
  <metadata id="CorelCorpID_0Corel-Layer"/>
  <g id="_1664049809040">
   <path class="fil0" d="M5300 8332l1701 0c340,0 616,-276 616,-616l0 -5499c0,-605 -491,-1096 -1096,-1096l-741 0c-605,0 -1096,491 -1096,1096l0 5499c0,340 276,616 616,616z"/>
   <path class="fil1" d="M5089 6451l47 -2453 -389 -1642c0,-606 491,-1096 1096,-1096l615 0c605,0 1096,490 1096,1096l-389 1642 47 2453c0,577 -2123,577 -2123,0z"/>
   <path class="fil0" d="M4740 3162c81,-14 55,144 0,180 -56,36 -383,108 -383,108 0,0 0,-224 383,-288z"/>
   <path class="fil0" d="M7562 3162c-82,-14 -56,144 0,180 55,36 382,108 382,108 0,0 0,-224 -382,-288z"/>
   <path class="fil2" d="M4791 3003c0,0 223,1120 244,1335 22,215 44,2885 0,2981 -43,97 -109,75 -109,75 0,0 -135,-557 -135,-1869 0,-1313 0,-2522 0,-2522z"/>
   <path class="fil2" d="M7510 3003c0,0 -222,1120 -244,1335 -22,215 -43,2885 0,2981 43,97 109,75 109,75 0,0 135,-557 135,-1869 0,-1313 0,-2522 0,-2522z"/>
   <path class="fil2" d="M5136 4227c0,0 -255,-1128 -210,-1335 44,-208 605,-364 1225,-364 619,0 1180,156 1224,364 45,207 -210,1335 -210,1335 0,0 -342,-67 -1014,-67 -672,0 -1015,67 -1015,67z"/>
   <path class="fil3" d="M5440 1481c-3,-53 -36,-101 -78,-131l-1 -1c-180,73 -332,202 -435,367 125,39 266,26 381,-39 72,-40 139,-112 133,-196z"/>
   <path class="fil3" d="M6861 1481c3,-53 36,-101 78,-131l1 -1c180,73 332,202 435,367 -125,39 -266,26 -381,-39 -72,-40 -139,-112 -133,-196z"/>
   <path class="fil4" d="M5156 8121c-91,-28 -176,-77 -245,-143 -18,-17 -35,-36 -58,-47 -15,-7 -34,-10 -50,-5 97,132 245,225 415,247l1 -2c-1,-28 -35,-42 -63,-50z"/>
   <path class="fil4" d="M7145 8121c91,-28 176,-77 245,-143 18,-17 36,-36 58,-47 16,-7 34,-10 50,-5 -96,132 -245,225 -415,247l0 -2c1,-28 35,-42 62,-50z"/>
   <path class="fil2" d="M7072 6895c0,0 -386,195 -921,195 -536,0 -922,-195 -922,-195 -75,216 -104,505 -115,661 -4,69 33,134 95,165 161,80 506,219 942,219 435,0 780,-139 941,-219 62,-31 100,-96 95,-165 -11,-156 -40,-445 -115,-661z"/>
  </g>
 </g>
</svg>
