<?xml version="1.0" encoding="UTF-8"?>
<!DOCTYPE svg PUBLIC "-//W3C//DTD SVG 1.1//EN" "http://www.w3.org/Graphics/SVG/1.1/DTD/svg11.dtd">
<!-- Creator: CorelDRAW X7 -->
<svg xmlns="http://www.w3.org/2000/svg" xml:space="preserve" width="35mm" height="70mm" version="1.1" style="shape-rendering:geometricPrecision; text-rendering:geometricPrecision; image-rendering:optimizeQuality; fill-rule:evenodd; clip-rule:evenodd"
viewBox="0 0 3500 7000"
 xmlns:xlink="http://www.w3.org/1999/xlink">
 <defs>
  <style type="text/css">
   <![CDATA[
    .fil0 {fill:#009846}
    .fil1 {fill:#26AC68}
    .fil2 {fill:#514F51}
    .fil4 {fill:#E74129}
    .fil3 {fill:#FCFDFE}
   ]]>
  </style>
 </defs>
 <g id="Vrstva_x0020_1">
  <metadata id="CorelCorpID_0Corel-Layer"/>
  <g id="_2712184096256">
   <path class="fil0" d="M371 1977c79,-13 53,140 0,175 -54,36 -373,106 -373,106 0,0 0,-218 373,-281z"/>
   <g id="_1970186572560">
    <path class="fil0" d="M917 6997l1661 0c332,0 601,-267 601,-598l0 -5338c0,-589 -480,-1064 -1070,-1064l-722 0c-592,0 -1070,475 -1070,1064l0 5338c0,331 268,598 600,598z"/>
    <path class="fil1" d="M711 5171l47 -2381 -381 -1595c0,-588 480,-1064 1070,-1064l600 0c592,0 1070,476 1070,1064l-380 1595 47 2381c0,560 -2073,560 -2073,0z"/>
    <path class="fil0" d="M3125 1977c-79,-13 -54,140 0,175 54,36 373,106 373,106 0,0 0,-218 -373,-281z"/>
    <path class="fil2" d="M421 1823c0,0 217,1087 238,1297 21,209 42,2801 0,2894 -42,94 -107,72 -107,72 0,0 -131,-540 -131,-1815 0,-1274 0,-2448 0,-2448z"/>
    <path class="fil2" d="M3074 1823c0,0 -217,1087 -238,1297 -21,209 -42,2801 0,2894 42,94 107,72 107,72 0,0 131,-540 131,-1815 0,-1274 0,-2448 0,-2448z"/>
    <path class="fil2" d="M758 3011c0,0 -250,-1094 -206,-1296 44,-201 592,-352 1196,-352 604,0 1151,151 1195,352 43,202 -206,1296 -206,1296 0,0 -333,-65 -989,-65 -656,0 -990,65 -990,65z"/>
    <path class="fil3" d="M1055 346c-4,-51 -35,-98 -77,-127l0 -1c-176,70 -325,196 -426,356 122,38 260,25 372,-38 70,-38 136,-108 131,-190z"/>
    <path class="fil3" d="M2441 346c3,-51 35,-98 76,-127l1 -1c175,70 324,196 425,356 -123,38 -259,25 -372,-38 -70,-38 -135,-108 -130,-190z"/>
    <path class="fil4" d="M777 6793c-89,-28 -172,-76 -240,-139 -17,-18 -34,-35 -56,-46 -15,-7 -33,-10 -49,-5 95,128 239,218 406,240l0 -2c-1,-28 -34,-41 -61,-48z"/>
    <path class="fil4" d="M2718 6793c90,-28 172,-76 240,-139 18,-18 34,-35 56,-46 15,-7 34,-10 49,-5 -94,128 -239,218 -406,240l0 -2c1,-28 35,-41 61,-48z"/>
    <path class="fil2" d="M2647 5602c0,0 -377,189 -899,189 -523,0 -899,-189 -899,-189 -74,210 -103,491 -112,642 -5,67 31,130 91,160 158,78 494,213 920,213 425,0 761,-135 919,-213 61,-30 97,-93 92,-160 -11,-151 -39,-432 -112,-642z"/>
   </g>
  </g>
 </g>
</svg>
