<?xml version="1.0" encoding="UTF-8"?>
<!DOCTYPE svg PUBLIC "-//W3C//DTD SVG 1.1//EN" "http://www.w3.org/Graphics/SVG/1.1/DTD/svg11.dtd">
<!-- Creator: CorelDRAW X7 -->
<svg xmlns="http://www.w3.org/2000/svg" xml:space="preserve" width="35mm" height="70mm" version="1.1" style="shape-rendering:geometricPrecision; text-rendering:geometricPrecision; image-rendering:optimizeQuality; fill-rule:evenodd; clip-rule:evenodd"
viewBox="0 0 3500 7000"
 xmlns:xlink="http://www.w3.org/1999/xlink">
 <defs>
  <style type="text/css">
   <![CDATA[
    .fil2 {fill:#514F51}
    .fil0 {fill:#C5C6C6}
    .fil1 {fill:#D9DADA}
    .fil4 {fill:#E74129}
    .fil3 {fill:#FCFDFE}
   ]]>
  </style>
 </defs>
 <g id="Vrstva_x0020_1">
  <metadata id="CorelCorpID_0Corel-Layer"/>
  <g id="_2192136831760">
   <g id="_2534503083936">
    <path class="fil0" d="M913 7009l1661 0c332,0 601,-267 601,-597l0 -5338c0,-588 -480,-1064 -1070,-1064l-722 0c-592,0 -1070,476 -1070,1064l0 5338c0,330 268,597 600,597z"/>
    <path class="fil1" d="M707 5184l47 -2382 -381 -1594c0,-587 480,-1063 1070,-1063l600 0c592,0 1070,476 1070,1063l-380 1594 47 2382c0,560 -2073,560 -2073,0z"/>
    <path class="fil0" d="M367 1991c79,-14 53,139 0,174 -54,35 -373,105 -373,105 0,0 0,-216 373,-279z"/>
    <path class="fil0" d="M3121 1991c-79,-14 -54,139 0,174 54,35 373,105 373,105 0,0 0,-216 -373,-279z"/>
    <path class="fil2" d="M417 1836c0,0 217,1087 239,1296 20,209 42,2801 0,2894 -43,94 -108,72 -108,72 0,0 -131,-539 -131,-1814 0,-1274 0,-2448 0,-2448z"/>
    <path class="fil2" d="M3070 1836c0,0 -216,1087 -238,1296 -20,209 -42,2801 0,2894 42,94 107,72 107,72 0,0 131,-539 131,-1814 0,-1274 0,-2448 0,-2448z"/>
    <path class="fil2" d="M754 3024c0,0 -250,-1093 -206,-1295 44,-202 592,-353 1196,-353 604,0 1152,151 1195,353 43,202 -206,1295 -206,1295 0,0 -333,-65 -989,-65 -656,0 -990,65 -990,65z"/>
    <path class="fil3" d="M1051 360c-4,-51 -35,-98 -77,-128l0 0c-177,70 -325,195 -426,355 122,39 260,26 372,-37 70,-39 136,-108 131,-190z"/>
    <path class="fil3" d="M2437 360c3,-51 35,-98 76,-128l1 0c176,70 324,195 425,355 -123,39 -259,26 -371,-37 -71,-39 -136,-108 -131,-190z"/>
    <path class="fil4" d="M773 6804c-89,-26 -172,-75 -239,-139 -18,-16 -35,-34 -57,-45 -15,-7 -33,-9 -49,-4 95,128 239,217 406,239l0 -2c-1,-28 -34,-40 -61,-49z"/>
    <path class="fil4" d="M2714 6804c90,-26 172,-75 240,-139 17,-16 34,-34 56,-45 15,-7 34,-9 49,-4 -94,128 -239,217 -406,239l0 -2c1,-28 35,-40 61,-49z"/>
    <path class="fil2" d="M2643 5614c0,0 -377,189 -899,189 -523,0 -899,-189 -899,-189 -74,210 -103,491 -112,642 -5,67 31,131 91,161 159,77 494,212 920,212 425,0 761,-135 919,-212 61,-30 97,-94 92,-161 -11,-151 -39,-432 -112,-642z"/>
   </g>
   <path class="fil3" d="M1068 379c-3,-52 -35,-98 -76,-129l-1 0c-176,70 -324,196 -426,356 123,39 260,26 372,-37 70,-39 136,-109 131,-190z"/>
   <path class="fil3" d="M2454 379c4,-52 35,-98 77,-129l0 0c177,70 325,196 425,356 -122,39 -259,26 -371,-37 -71,-39 -136,-109 -131,-190z"/>
  </g>
 </g>
</svg>
