<?xml version="1.0" encoding="UTF-8"?>
<!DOCTYPE svg PUBLIC "-//W3C//DTD SVG 1.1//EN" "http://www.w3.org/Graphics/SVG/1.1/DTD/svg11.dtd">
<!-- Creator: CorelDRAW X7 -->
<svg xmlns="http://www.w3.org/2000/svg" xml:space="preserve" width="210mm" height="297mm" version="1.1" style="shape-rendering:geometricPrecision; text-rendering:geometricPrecision; image-rendering:optimizeQuality; fill-rule:evenodd; clip-rule:evenodd"
viewBox="0 0 21000 29700"
 xmlns:xlink="http://www.w3.org/1999/xlink">
 <defs>
  <style type="text/css">
   <![CDATA[
    .fil1 {fill:#D9DADA}
    .fil0 {fill:#C5C6C6}
    .fil4 {fill:#E74129}
    .fil3 {fill:#FCFDFE}
    .fil2 {fill:#514F51}
   ]]>
  </style>
 </defs>
 <g id="Vrstva_x0020_1">
  <metadata id="CorelCorpID_0Corel-Layer"/>
  <g id="_2534503083936">
   <path class="fil0" d="M12836 8280l1702 0c340,0 615,-275 615,-615l0 -5500c0,-605 -491,-1096 -1096,-1096l-740 0c-606,0 -1096,491 -1096,1096l0 5500c0,340 275,615 615,615z"/>
   <path class="fil1" d="M12625 6400l48 -2454 -390 -1642c0,-605 491,-1096 1096,-1096l615 0c606,0 1096,491 1096,1096l-389 1642 48 2454c0,577 -2124,577 -2124,0z"/>
   <path class="fil0" d="M12276 3110c81,-14 55,144 0,180 -55,36 -382,108 -382,108 0,0 0,-223 382,-288z"/>
   <path class="fil0" d="M15098 3110c-81,-14 -55,144 0,180 55,36 382,108 382,108 0,0 0,-223 -382,-288z"/>
   <path class="fil2" d="M12328 2951c0,0 222,1120 244,1335 21,215 43,2886 0,2982 -44,96 -110,74 -110,74 0,0 -134,-556 -134,-1869 0,-1313 0,-2522 0,-2522z"/>
   <path class="fil2" d="M15046 2951c0,0 -222,1120 -244,1335 -21,215 -43,2886 0,2982 43,96 110,74 110,74 0,0 134,-556 134,-1869 0,-1313 0,-2522 0,-2522z"/>
   <path class="fil2" d="M12673 4175c0,0 -256,-1127 -211,-1335 45,-208 606,-363 1225,-363 619,0 1180,155 1225,363 44,208 -211,1335 -211,1335 0,0 -342,-67 -1014,-67 -672,0 -1014,67 -1014,67z"/>
   <path class="fil3" d="M12977 1430c-4,-53 -36,-101 -79,-132l0 0c-181,72 -333,201 -436,366 125,40 266,27 381,-38 72,-41 139,-112 134,-196z"/>
   <path class="fil3" d="M14397 1430c3,-53 36,-101 78,-132l1 0c180,72 332,201 436,366 -126,40 -266,27 -381,-38 -72,-41 -139,-112 -134,-196z"/>
   <path class="fil4" d="M12692 8069c-91,-27 -176,-77 -245,-143 -18,-17 -35,-35 -58,-46 -15,-8 -34,-10 -50,-5 97,132 245,224 416,247l0 -2c-1,-29 -35,-42 -63,-51z"/>
   <path class="fil4" d="M14681 8069c92,-27 176,-77 246,-143 17,-17 35,-35 57,-46 16,-8 35,-10 51,-5 -97,132 -245,224 -416,247l0 -2c1,-29 35,-42 62,-51z"/>
   <path class="fil2" d="M14608 6843c0,0 -386,195 -921,195 -536,0 -921,-195 -921,-195 -76,216 -105,506 -115,662 -5,69 32,134 94,165 162,80 506,219 942,219 436,0 780,-139 942,-219 62,-31 99,-96 94,-165 -11,-156 -40,-446 -115,-662z"/>
  </g>
  <path class="fil3" d="M13012 9050c-3,-53 -36,-101 -78,-132l-1 0c-180,72 -332,201 -436,366 126,40 266,27 381,-38 72,-40 139,-112 134,-196z"/>
  <path class="fil3" d="M14432 9050c4,-53 36,-101 79,-132l0 0c181,72 333,201 436,366 -125,40 -266,27 -381,-38 -72,-40 -139,-112 -134,-196z"/>
 </g>
</svg>
