<?xml version="1.0" encoding="UTF-8"?>
<!DOCTYPE svg PUBLIC "-//W3C//DTD SVG 1.1//EN" "http://www.w3.org/Graphics/SVG/1.1/DTD/svg11.dtd">
<!-- Creator: CorelDRAW X7 -->
<svg xmlns="http://www.w3.org/2000/svg" xml:space="preserve" width="210mm" height="297mm" version="1.1" style="shape-rendering:geometricPrecision; text-rendering:geometricPrecision; image-rendering:optimizeQuality; fill-rule:evenodd; clip-rule:evenodd"
viewBox="0 0 21000 29700"
 xmlns:xlink="http://www.w3.org/1999/xlink">
 <defs>
  <style type="text/css">
   <![CDATA[
    .fil0 {fill:#F18A19}
    .fil4 {fill:#E74129}
    .fil3 {fill:#FCFDFE}
    .fil1 {fill:#F3A24A}
    .fil2 {fill:#514F51}
   ]]>
  </style>
 </defs>
 <g id="Vrstva_x0020_1">
  <metadata id="CorelCorpID_0Corel-Layer"/>
  <g id="_1552062370896">
   <path class="fil0" d="M1419 8332l1702 0c340,0 615,-276 615,-616l0 -5499c0,-605 -490,-1096 -1096,-1096l-740 0c-605,0 -1096,491 -1096,1096l0 5499c0,340 275,616 615,616z"/>
   <path class="fil1" d="M1208 6451l48 -2453 -389 -1642c0,-606 490,-1096 1096,-1096l615 0c605,0 1096,490 1096,1096l-390 1642 48 2453c0,577 -2124,577 -2124,0z"/>
   <path class="fil0" d="M859 3162c81,-14 55,144 0,180 -55,36 -382,108 -382,108 0,0 0,-224 382,-288z"/>
   <path class="fil0" d="M3681 3162c-81,-14 -55,144 0,180 55,36 382,108 382,108 0,0 0,-224 -382,-288z"/>
   <path class="fil2" d="M911 3003c0,0 222,1120 244,1335 21,215 43,2885 0,2981 -44,97 -110,75 -110,75 0,0 -134,-557 -134,-1869 0,-1313 0,-2522 0,-2522z"/>
   <path class="fil2" d="M3629 3003c0,0 -222,1120 -244,1335 -21,215 -43,2885 0,2981 44,97 110,75 110,75 0,0 134,-557 134,-1869 0,-1313 0,-2522 0,-2522z"/>
   <path class="fil2" d="M1256 4227c0,0 -255,-1128 -211,-1335 45,-208 606,-364 1225,-364 619,0 1180,156 1225,364 45,207 -211,1335 -211,1335 0,0 -342,-67 -1014,-67 -672,0 -1014,67 -1014,67z"/>
   <path class="fil3" d="M1560 1481c-3,-53 -36,-101 -78,-131l-1 -1c-180,73 -333,202 -436,367 125,39 266,26 381,-39 72,-40 139,-112 134,-196z"/>
   <path class="fil3" d="M2980 1481c4,-53 36,-101 78,-131l1 -1c180,73 333,202 436,367 -125,39 -266,26 -381,-39 -72,-40 -139,-112 -134,-196z"/>
   <path class="fil4" d="M1275 8121c-91,-28 -176,-77 -245,-143 -18,-17 -35,-36 -57,-47 -16,-7 -35,-10 -51,-5 97,132 245,225 416,247l0 -2c-1,-28 -35,-42 -63,-50z"/>
   <path class="fil4" d="M3265 8121c91,-28 176,-77 245,-143 18,-17 35,-36 58,-47 15,-7 34,-10 50,-5 -97,132 -245,225 -416,247l0 -2c1,-28 35,-42 63,-50z"/>
   <path class="fil2" d="M3191 6895c0,0 -386,195 -921,195 -535,0 -921,-195 -921,-195 -75,216 -105,505 -115,661 -5,69 32,134 94,165 162,80 506,219 942,219 436,0 780,-139 942,-219 62,-31 99,-96 94,-165 -10,-156 -39,-445 -115,-661z"/>
  </g>
 </g>
</svg>
