<?xml version="1.0" encoding="UTF-8"?>
<!DOCTYPE svg PUBLIC "-//W3C//DTD SVG 1.1//EN" "http://www.w3.org/Graphics/SVG/1.1/DTD/svg11.dtd">
<!-- Creator: CorelDRAW X7 -->
<svg xmlns="http://www.w3.org/2000/svg" xml:space="preserve" width="35mm" height="70mm" version="1.1" style="shape-rendering:geometricPrecision; text-rendering:geometricPrecision; image-rendering:optimizeQuality; fill-rule:evenodd; clip-rule:evenodd"
viewBox="0 0 3500 7000"
 xmlns:xlink="http://www.w3.org/1999/xlink">
 <defs>
  <style type="text/css">
   <![CDATA[
    .fil2 {fill:#514F51}
    .fil4 {fill:#E74129}
    .fil0 {fill:#F18A19}
    .fil1 {fill:#F3A24A}
    .fil3 {fill:#FCFDFE}
   ]]>
  </style>
 </defs>
 <g id="Vrstva_x0020_1">
  <metadata id="CorelCorpID_0Corel-Layer"/>
  <g id="_2712184061088">
   <g id="_1552062370896">
    <path class="fil0" d="M920 7006l1661 0c332,0 600,-268 600,-598l0 -5338c0,-588 -478,-1064 -1069,-1064l-723 0c-590,0 -1069,476 -1069,1064l0 5338c0,330 268,598 600,598z"/>
    <path class="fil1" d="M714 5180l47 -2382 -380 -1594c0,-588 478,-1063 1070,-1063l600 0c591,0 1070,475 1070,1063l-381 1594 47 2382c0,560 -2073,560 -2073,0z"/>
    <path class="fil0" d="M373 1987c79,-14 54,140 0,175 -53,35 -372,104 -372,104 0,0 0,-217 372,-279z"/>
    <path class="fil0" d="M3128 1987c-79,-14 -54,140 0,175 53,35 373,104 373,104 0,0 0,-217 -373,-279z"/>
    <path class="fil2" d="M424 1833c0,0 217,1087 238,1295 21,209 42,2801 0,2894 -43,94 -107,73 -107,73 0,0 -131,-541 -131,-1814 0,-1275 0,-2448 0,-2448z"/>
    <path class="fil2" d="M3077 1833c0,0 -217,1087 -238,1295 -21,209 -42,2801 0,2894 43,94 107,73 107,73 0,0 131,-541 131,-1814 0,-1275 0,-2448 0,-2448z"/>
    <path class="fil2" d="M761 3021c0,0 -249,-1095 -206,-1296 44,-202 591,-354 1196,-354 604,0 1151,152 1195,354 44,201 -206,1296 -206,1296 0,0 -334,-65 -989,-65 -656,0 -990,65 -990,65z"/>
    <path class="fil3" d="M1058 355c-3,-51 -36,-98 -77,-127l0 -1c-176,71 -326,196 -426,356 122,38 260,25 372,-38 70,-38 135,-108 131,-190z"/>
    <path class="fil3" d="M2444 355c3,-51 35,-98 76,-127l1 -1c175,71 325,196 425,356 -122,38 -259,25 -372,-38 -70,-38 -135,-108 -130,-190z"/>
    <path class="fil4" d="M779 6801c-88,-27 -171,-75 -239,-139 -17,-17 -34,-35 -55,-46 -16,-6 -34,-9 -50,-4 95,128 239,218 406,239l0 -2c-1,-27 -34,-40 -62,-48z"/>
    <path class="fil4" d="M2722 6801c89,-27 172,-75 239,-139 17,-17 34,-35 56,-46 15,-6 34,-9 49,-4 -94,128 -239,218 -406,239l0 -2c1,-27 34,-40 62,-48z"/>
    <path class="fil2" d="M2649 5611c0,0 -376,189 -898,189 -523,0 -899,-189 -899,-189 -74,209 -103,490 -113,641 -4,67 32,130 92,161 158,77 494,212 920,212 425,0 761,-135 919,-212 61,-31 97,-94 92,-161 -10,-151 -38,-432 -113,-641z"/>
   </g>
  </g>
 </g>
</svg>
