<?xml version="1.0" encoding="UTF-8"?>
<!DOCTYPE svg PUBLIC "-//W3C//DTD SVG 1.1//EN" "http://www.w3.org/Graphics/SVG/1.1/DTD/svg11.dtd">
<!-- Creator: CorelDRAW X7 -->
<svg xmlns="http://www.w3.org/2000/svg" xml:space="preserve" width="210mm" height="297mm" version="1.1" style="shape-rendering:geometricPrecision; text-rendering:geometricPrecision; image-rendering:optimizeQuality; fill-rule:evenodd; clip-rule:evenodd"
viewBox="0 0 21000 29700"
 xmlns:xlink="http://www.w3.org/1999/xlink">
 <defs>
  <style type="text/css">
   <![CDATA[
    .fil4 {fill:#E74129}
    .fil3 {fill:#FCFDFE}
    .fil0 {fill:#E52084}
    .fil1 {fill:#E4609E}
    .fil2 {fill:#514F51}
   ]]>
  </style>
 </defs>
 <g id="Vrstva_x0020_1">
  <metadata id="CorelCorpID_0Corel-Layer"/>
  <g id="_1804462704800">
   <path class="fil0" d="M6597 8946l1701 0c340,0 616,-275 616,-615l0 -5500c0,-605 -491,-1096 -1096,-1096l-741 0c-605,0 -1096,491 -1096,1096l0 5500c0,340 276,615 616,615z"/>
   <path class="fil1" d="M6386 7066l47 -2453 -389 -1643c0,-605 491,-1096 1096,-1096l615 0c605,0 1096,491 1096,1096l-389 1643 47 2453c0,577 -2123,577 -2123,0z"/>
   <path class="fil0" d="M6036 3776c82,-14 56,144 0,180 -55,36 -382,109 -382,109 0,0 0,-224 382,-289z"/>
   <path class="fil0" d="M8858 3776c-81,-14 -55,144 0,180 56,36 383,109 383,109 0,0 0,-224 -383,-289z"/>
   <path class="fil2" d="M6088 3617c0,0 222,1120 244,1335 22,216 43,2886 0,2982 -43,96 -109,74 -109,74 0,0 -135,-556 -135,-1869 0,-1313 0,-2522 0,-2522z"/>
   <path class="fil2" d="M8807 3617c0,0 -223,1120 -244,1335 -22,216 -44,2886 0,2982 43,96 109,74 109,74 0,0 135,-556 135,-1869 0,-1313 0,-2522 0,-2522z"/>
   <path class="fil2" d="M6433 4841c0,0 -255,-1127 -210,-1335 44,-208 605,-363 1224,-363 620,0 1181,155 1225,363 45,208 -210,1335 -210,1335 0,0 -343,-67 -1015,-67 -672,0 -1014,67 -1014,67z"/>
   <path class="fil3" d="M6737 2096c-3,-53 -36,-101 -78,-131l-1 -1c-180,72 -332,202 -435,367 125,39 266,26 381,-39 72,-40 139,-112 133,-196z"/>
   <path class="fil3" d="M8158 2096c3,-53 36,-101 78,-131l1 -1c180,72 332,202 435,367 -125,39 -266,26 -381,-39 -72,-40 -139,-112 -133,-196z"/>
   <path class="fil4" d="M6453 8735c-91,-27 -176,-77 -245,-142 -18,-18 -36,-36 -58,-47 -16,-7 -34,-10 -50,-5 96,132 245,224 415,247l0 -2c-1,-29 -35,-42 -62,-51z"/>
   <path class="fil4" d="M8442 8735c91,-27 176,-77 245,-142 18,-18 35,-36 58,-47 15,-7 34,-10 50,-5 -97,132 -245,224 -415,247l0 -2c0,-29 34,-42 62,-51z"/>
   <path class="fil2" d="M8369 7509c0,0 -386,195 -922,195 -535,0 -921,-195 -921,-195 -75,216 -104,506 -115,662 -5,69 33,134 95,165 161,80 506,219 941,219 436,0 781,-139 942,-219 62,-31 99,-96 95,-165 -11,-156 -40,-446 -115,-662z"/>
  </g>
 </g>
</svg>
