<?xml version="1.0" encoding="UTF-8"?>
<!DOCTYPE svg PUBLIC "-//W3C//DTD SVG 1.1//EN" "http://www.w3.org/Graphics/SVG/1.1/DTD/svg11.dtd">
<!-- Creator: CorelDRAW X7 -->
<svg xmlns="http://www.w3.org/2000/svg" xml:space="preserve" width="35mm" height="70mm" version="1.1" style="shape-rendering:geometricPrecision; text-rendering:geometricPrecision; image-rendering:optimizeQuality; fill-rule:evenodd; clip-rule:evenodd"
viewBox="0 0 3500 7000"
 xmlns:xlink="http://www.w3.org/1999/xlink">
 <defs>
  <style type="text/css">
   <![CDATA[
    .fil2 {fill:#514F51}
    .fil1 {fill:#E4609E}
    .fil0 {fill:#E52084}
    .fil4 {fill:#E74129}
    .fil3 {fill:#FCFDFE}
   ]]>
  </style>
 </defs>
 <g id="Vrstva_x0020_1">
  <metadata id="CorelCorpID_0Corel-Layer"/>
  <g id="_2712185729664">
   <g id="_1804462704800">
    <path class="fil0" d="M914 7006l1659 0c332,0 601,-267 601,-597l0 -5339c0,-587 -479,-1064 -1069,-1064l-723 0c-590,0 -1069,477 -1069,1064l0 5339c0,330 269,597 601,597z"/>
    <path class="fil1" d="M708 5181l46 -2381 -380 -1595c0,-587 479,-1064 1069,-1064l601 0c590,0 1069,477 1069,1064l-380 1595 46 2381c0,560 -2071,560 -2071,0z"/>
    <path class="fil0" d="M366 1988c80,-14 55,139 0,174 -53,35 -372,106 -372,106 0,0 0,-217 372,-280z"/>
    <path class="fil0" d="M3120 1988c-79,-14 -54,139 0,174 54,35 374,106 374,106 0,0 0,-217 -374,-280z"/>
    <path class="fil2" d="M417 1833c0,0 217,1087 238,1296 22,210 42,2802 0,2895 -42,93 -106,72 -106,72 0,0 -132,-540 -132,-1815 0,-1274 0,-2448 0,-2448z"/>
    <path class="fil2" d="M3070 1833c0,0 -218,1087 -238,1296 -21,210 -43,2802 0,2895 42,93 106,72 106,72 0,0 132,-540 132,-1815 0,-1274 0,-2448 0,-2448z"/>
    <path class="fil2" d="M754 3021c0,0 -249,-1094 -205,-1296 43,-201 590,-352 1194,-352 605,0 1152,151 1195,352 44,202 -205,1296 -205,1296 0,0 -334,-65 -990,-65 -656,0 -989,65 -989,65z"/>
    <path class="fil3" d="M1050 357c-3,-52 -35,-98 -76,-127l-1 -1c-175,69 -324,196 -424,356 122,38 259,25 371,-38 71,-39 136,-109 130,-190z"/>
    <path class="fil3" d="M2437 357c3,-52 35,-98 76,-127l1 -1c176,69 324,196 424,356 -122,38 -259,25 -371,-38 -71,-39 -136,-109 -130,-190z"/>
    <path class="fil4" d="M773 6801c-89,-26 -172,-74 -239,-137 -17,-18 -35,-35 -56,-46 -16,-7 -34,-10 -49,-5 93,128 239,218 405,240l0 -2c-1,-28 -34,-41 -61,-50z"/>
    <path class="fil4" d="M2714 6801c89,-26 172,-74 239,-137 18,-18 34,-35 57,-46 14,-7 33,-10 48,-5 -94,128 -239,218 -405,240l0 -2c0,-28 34,-41 61,-50z"/>
    <path class="fil2" d="M2643 5611c0,0 -377,190 -900,190 -522,0 -899,-190 -899,-190 -73,210 -101,491 -112,643 -5,67 32,130 93,160 157,78 494,213 918,213 425,0 762,-135 919,-213 61,-30 97,-93 93,-160 -11,-152 -39,-433 -112,-643z"/>
   </g>
  </g>
 </g>
</svg>
