<?xml version="1.0" encoding="UTF-8"?>
<!DOCTYPE svg PUBLIC "-//W3C//DTD SVG 1.1//EN" "http://www.w3.org/Graphics/SVG/1.1/DTD/svg11.dtd">
<!-- Creator: CorelDRAW X7 -->
<svg xmlns="http://www.w3.org/2000/svg" xml:space="preserve" width="35mm" height="70mm" version="1.1" style="shape-rendering:geometricPrecision; text-rendering:geometricPrecision; image-rendering:optimizeQuality; fill-rule:evenodd; clip-rule:evenodd"
viewBox="0 0 3500 7000"
 xmlns:xlink="http://www.w3.org/1999/xlink">
 <defs>
  <style type="text/css">
   <![CDATA[
    .fil2 {fill:#514F51}
    .fil0 {fill:#E31E24}
    .fil1 {fill:#E63A40}
    .fil4 {fill:#E74129}
    .fil3 {fill:#FCFDFE}
   ]]>
  </style>
 </defs>
 <g id="Vrstva_x0020_1">
  <metadata id="CorelCorpID_0Corel-Layer"/>
  <g id="_2712178642624">
   <g id="_2334726707616">
    <path class="fil0" d="M917 7010l1661 0c332,0 601,-267 601,-597l0 -5339c0,-589 -479,-1064 -1070,-1064l-722 0c-591,0 -1070,475 -1070,1064l0 5339c0,330 269,597 600,597z"/>
    <path class="fil1" d="M712 5184l46 -2381 -380 -1595c0,-588 479,-1064 1070,-1064l600 0c591,0 1070,476 1070,1064l-380 1595 46 2381c0,561 -2072,561 -2072,0z"/>
    <path class="fil0" d="M371 1990c79,-13 54,140 0,175 -54,36 -373,106 -373,106 0,0 0,-218 373,-281z"/>
    <path class="fil0" d="M3125 1990c-79,-13 -54,140 0,175 54,36 373,106 373,106 0,0 0,-218 -373,-281z"/>
    <path class="fil2" d="M421 1836c0,0 217,1087 239,1297 21,209 42,2801 0,2894 -42,94 -108,72 -108,72 0,0 -131,-540 -131,-1815 0,-1274 0,-2448 0,-2448z"/>
    <path class="fil2" d="M3075 1836c0,0 -217,1087 -238,1297 -21,209 -43,2801 0,2894 42,94 106,72 106,72 0,0 132,-540 132,-1815 0,-1274 0,-2448 0,-2448z"/>
    <path class="fil2" d="M758 3024c0,0 -249,-1094 -206,-1296 44,-201 592,-352 1196,-352 604,0 1152,151 1195,352 44,202 -205,1296 -205,1296 0,0 -334,-65 -990,-65 -656,0 -990,65 -990,65z"/>
    <path class="fil3" d="M1055 359c-3,-51 -35,-98 -76,-127l-1 -1c-176,70 -324,196 -426,356 123,38 260,26 372,-38 71,-38 136,-108 131,-190z"/>
    <path class="fil3" d="M2441 359c4,-51 35,-98 77,-127l0 -1c177,70 325,196 425,356 -122,38 -259,26 -371,-38 -71,-38 -136,-108 -131,-190z"/>
    <path class="fil4" d="M778 6806c-90,-27 -172,-76 -239,-139 -18,-18 -36,-35 -57,-46 -16,-7 -33,-9 -50,-5 95,129 240,218 406,240l0 -2c-1,-28 -34,-41 -60,-48z"/>
    <path class="fil4" d="M2719 6806c89,-27 172,-76 239,-139 18,-18 34,-35 57,-46 14,-7 33,-9 48,-5 -94,129 -239,218 -405,240l-1 -2c1,-28 35,-41 62,-48z"/>
    <path class="fil2" d="M2647 5615c0,0 -376,189 -899,189 -522,0 -899,-189 -899,-189 -73,210 -102,491 -112,642 -5,67 31,130 91,160 159,78 494,213 920,213 425,0 761,-135 919,-213 61,-30 97,-93 93,-160 -11,-151 -39,-432 -113,-642z"/>
   </g>
  </g>
 </g>
</svg>
