<?xml version="1.0" encoding="UTF-8"?>
<!DOCTYPE svg PUBLIC "-//W3C//DTD SVG 1.1//EN" "http://www.w3.org/Graphics/SVG/1.1/DTD/svg11.dtd">
<!-- Creator: CorelDRAW X7 -->
<svg xmlns="http://www.w3.org/2000/svg" xml:space="preserve" width="210mm" height="297mm" version="1.1" style="shape-rendering:geometricPrecision; text-rendering:geometricPrecision; image-rendering:optimizeQuality; fill-rule:evenodd; clip-rule:evenodd"
viewBox="0 0 21000 29700"
 xmlns:xlink="http://www.w3.org/1999/xlink">
 <defs>
  <style type="text/css">
   <![CDATA[
    .fil4 {fill:#E74129}
    .fil0 {fill:#E31E24}
    .fil1 {fill:#E63A40}
    .fil3 {fill:#FCFDFE}
    .fil2 {fill:#514F51}
   ]]>
  </style>
 </defs>
 <g id="Vrstva_x0020_1">
  <metadata id="CorelCorpID_0Corel-Layer"/>
  <g id="_2334726707616">
   <path class="fil0" d="M10606 9002l1702 0c340,0 615,-275 615,-615l0 -5499c0,-606 -490,-1096 -1096,-1096l-740 0c-605,0 -1096,490 -1096,1096l0 5499c0,340 276,615 615,615z"/>
   <path class="fil1" d="M10396 7122l47 -2453 -389 -1643c0,-605 490,-1096 1096,-1096l615 0c605,0 1096,491 1096,1096l-389 1643 47 2453c0,577 -2123,577 -2123,0z"/>
   <path class="fil0" d="M10046 3832c81,-14 56,144 0,180 -55,37 -382,109 -382,109 0,0 0,-224 382,-289z"/>
   <path class="fil0" d="M12868 3832c-81,-14 -55,144 0,180 55,37 382,109 382,109 0,0 0,-224 -382,-289z"/>
   <path class="fil2" d="M10098 3673c0,0 222,1120 244,1336 22,215 43,2885 0,2981 -43,97 -110,74 -110,74 0,0 -134,-556 -134,-1869 0,-1313 0,-2522 0,-2522z"/>
   <path class="fil2" d="M12817 3673c0,0 -223,1120 -244,1336 -22,215 -44,2885 0,2981 43,97 109,74 109,74 0,0 135,-556 135,-1869 0,-1313 0,-2522 0,-2522z"/>
   <path class="fil2" d="M10443 4897c0,0 -255,-1127 -211,-1335 45,-207 606,-363 1225,-363 619,0 1180,156 1225,363 45,208 -210,1335 -210,1335 0,0 -343,-67 -1015,-67 -672,0 -1014,67 -1014,67z"/>
   <path class="fil3" d="M10747 2152c-3,-53 -36,-101 -78,-131l-1 -1c-180,72 -332,202 -436,367 126,39 266,26 381,-39 73,-40 139,-112 134,-196z"/>
   <path class="fil3" d="M12167 2152c4,-53 36,-101 79,-131l0 -1c181,72 333,202 436,367 -125,39 -266,26 -381,-39 -72,-40 -139,-112 -134,-196z"/>
   <path class="fil4" d="M10463 8792c-92,-28 -176,-78 -245,-143 -18,-18 -36,-36 -58,-47 -16,-7 -34,-10 -51,-5 97,132 246,224 416,247l0 -2c-1,-29 -35,-42 -62,-50z"/>
   <path class="fil4" d="M12452 8792c91,-28 176,-78 245,-143 18,-18 35,-36 58,-47 15,-7 34,-10 50,-5 -97,132 -245,224 -415,247l-1 -2c1,-29 35,-42 63,-50z"/>
   <path class="fil2" d="M12378 7566c0,0 -385,194 -921,194 -535,0 -921,-194 -921,-194 -75,216 -104,505 -115,661 -5,69 32,134 94,165 162,80 506,219 942,219 436,0 780,-139 942,-219 62,-31 99,-96 95,-165 -11,-156 -40,-445 -116,-661z"/>
  </g>
 </g>
</svg>
