<?xml version="1.0" encoding="UTF-8"?>
<!DOCTYPE svg PUBLIC "-//W3C//DTD SVG 1.1//EN" "http://www.w3.org/Graphics/SVG/1.1/DTD/svg11.dtd">
<!-- Creator: CorelDRAW X7 -->
<svg xmlns="http://www.w3.org/2000/svg" xml:space="preserve" width="35mm" height="70mm" version="1.1" style="shape-rendering:geometricPrecision; text-rendering:geometricPrecision; image-rendering:optimizeQuality; fill-rule:evenodd; clip-rule:evenodd"
viewBox="0 0 3500 7000"
 xmlns:xlink="http://www.w3.org/1999/xlink">
 <defs>
  <style type="text/css">
   <![CDATA[
    .str1 {stroke:#FFAB01;stroke-width:50}
    .str0 {stroke:#2B2A29;stroke-width:10}
    .fil0 {fill:none}
    .fil4 {fill:none;fill-rule:nonzero}
    .fil2 {fill:#FEFEFE}
    .fil3 {fill:#E31E24}
    .fil1 {fill:#FFAB01}
   ]]>
  </style>
 </defs>
 <g id="Vrstva_x0020_1">
  <metadata id="CorelCorpID_0Corel-Layer"/>
  <path class="fil0 str0" d="M915 7003l1659 0c332,0 601,-268 601,-598l0 -5338c0,-587 -479,-1064 -1069,-1064l-723 0c-590,0 -1069,477 -1069,1064l0 5338c0,330 269,598 601,598z"/>
  <path class="fil1" d="M1051 353c-3,-52 -35,-98 -76,-127l-1 -1c-176,70 -324,196 -424,356 122,38 259,25 371,-38 71,-39 136,-109 130,-190z"/>
  <path class="fil2" d="M2438 353c3,-52 35,-98 76,-127l1 -1c175,70 324,196 424,356 -122,38 -259,25 -372,-38 -70,-39 -135,-109 -129,-190z"/>
  <path class="fil1" d="M774 6798c-89,-27 -172,-74 -239,-138 -18,-17 -34,-35 -57,-46 -14,-7 -33,-10 -48,-5 94,128 239,219 405,240l1 -2c-1,-27 -35,-41 -62,-49z"/>
  <path class="fil3" d="M2715 6798c89,-27 172,-74 239,-138 17,-17 35,-35 56,-46 16,-7 34,-10 49,-5 -93,128 -239,219 -405,240l0 -2c1,-27 34,-41 61,-49z"/>
  <g id="_2161281684656">
   <path class="fil4 str1" d="M325 817c-176,-114 -232,-346 -125,-517 109,-171 340,-217 516,-102"/>
   <path class="fil4 str1" d="M265 932c-224,-145 -289,-449 -144,-678 145,-230 444,-299 668,-153"/>
   <path class="fil4 str1" d="M379 733c-126,-82 -165,-247 -86,-371 78,-124 243,-159 368,-77"/>
  </g>
  <g id="_2161281681136">
   <path class="fil4 str1" d="M481 6879c-152,53 -318,-21 -371,-166 -53,-146 27,-306 178,-360"/>
   <path class="fil4 str1" d="M522 6969c-193,67 -406,-35 -477,-230 -72,-195 26,-408 219,-475"/>
   <path class="fil4 str1" d="M454 6807c-108,38 -226,-16 -264,-121 -38,-105 17,-221 125,-259"/>
  </g>
 </g>
</svg>
