<?xml version="1.0" encoding="UTF-8"?>
<!DOCTYPE svg PUBLIC "-//W3C//DTD SVG 1.1//EN" "http://www.w3.org/Graphics/SVG/1.1/DTD/svg11.dtd">
<!-- Creator: CorelDRAW X7 -->
<svg xmlns="http://www.w3.org/2000/svg" xml:space="preserve" width="210mm" height="297mm" version="1.1" style="shape-rendering:geometricPrecision; text-rendering:geometricPrecision; image-rendering:optimizeQuality; fill-rule:evenodd; clip-rule:evenodd"
viewBox="0 0 21000 29700"
 xmlns:xlink="http://www.w3.org/1999/xlink">
 <defs>
  <style type="text/css">
   <![CDATA[
    .fil0 {fill:#FFED00}
    .fil4 {fill:#E74129}
    .fil3 {fill:#FCFDFE}
    .fil1 {fill:#FDEE4E}
    .fil2 {fill:#514F51}
   ]]>
  </style>
 </defs>
 <g id="Vrstva_x0020_1">
  <metadata id="CorelCorpID_0Corel-Layer"/>
  <g id="_1192605646320">
   <path class="fil0" d="M2227 3948c81,-14 55,144 0,180 -56,36 -383,108 -383,108 0,0 0,-223 383,-288z"/>
   <path class="fil0" d="M2787 9118l1701 0c340,0 616,-275 616,-615l0 -5500c0,-605 -491,-1096 -1096,-1096l-741 0c-605,0 -1096,491 -1096,1096l0 5500c0,340 276,615 616,615z"/>
   <path class="fil1" d="M2576 7237l47 -2453 -389 -1642c0,-606 491,-1096 1096,-1096l615 0c605,0 1096,490 1096,1096l-389 1642 47 2453c0,578 -2123,578 -2123,0z"/>
   <path class="fil0" d="M5048 3948c-81,-14 -55,144 0,180 56,36 383,108 383,108 0,0 0,-223 -383,-288z"/>
   <path class="fil2" d="M2278 3789c0,0 223,1120 244,1335 22,215 43,2885 0,2982 -43,96 -109,74 -109,74 0,0 -135,-556 -135,-1869 0,-1313 0,-2522 0,-2522z"/>
   <path class="fil2" d="M4997 3789c0,0 -223,1120 -244,1335 -22,215 -43,2885 0,2982 43,96 109,74 109,74 0,0 135,-556 135,-1869 0,-1313 0,-2522 0,-2522z"/>
   <path class="fil2" d="M2623 5013c0,0 -255,-1128 -210,-1335 44,-208 605,-364 1224,-364 620,0 1181,156 1225,364 45,207 -210,1335 -210,1335 0,0 -342,-67 -1015,-67 -672,0 -1014,67 -1014,67z"/>
   <path class="fil3" d="M2927 2267c-3,-53 -36,-100 -78,-131l-1 0c-180,72 -332,201 -435,366 125,39 266,26 381,-38 72,-41 139,-112 133,-197z"/>
   <path class="fil3" d="M4348 2267c3,-53 36,-100 78,-131l1 0c180,72 332,201 435,366 -125,39 -266,26 -381,-38 -72,-41 -139,-112 -133,-197z"/>
   <path class="fil4" d="M2643 8907c-91,-28 -176,-77 -245,-143 -18,-17 -36,-36 -58,-46 -15,-8 -34,-10 -50,-6 96,133 245,225 415,247l0 -1c-1,-29 -35,-43 -62,-51z"/>
   <path class="fil4" d="M4632 8907c91,-28 176,-77 245,-143 18,-17 36,-36 58,-46 16,-8 34,-10 50,-6 -96,133 -245,225 -415,247l0 -1c1,-29 35,-43 62,-51z"/>
   <path class="fil2" d="M4559 7681c0,0 -386,195 -922,195 -535,0 -921,-195 -921,-195 -75,216 -104,505 -115,661 -5,69 33,135 95,165 161,80 506,220 941,220 436,0 781,-140 942,-220 62,-30 100,-96 95,-165 -11,-156 -40,-445 -115,-661z"/>
  </g>
 </g>
</svg>
