<?xml version="1.0" encoding="UTF-8"?>
<!DOCTYPE svg PUBLIC "-//W3C//DTD SVG 1.1//EN" "http://www.w3.org/Graphics/SVG/1.1/DTD/svg11.dtd">
<!-- Creator: CorelDRAW X7 -->
<svg xmlns="http://www.w3.org/2000/svg" xml:space="preserve" width="35mm" height="70mm" version="1.1" style="shape-rendering:geometricPrecision; text-rendering:geometricPrecision; image-rendering:optimizeQuality; fill-rule:evenodd; clip-rule:evenodd"
viewBox="0 0 3500 7000"
 xmlns:xlink="http://www.w3.org/1999/xlink">
 <defs>
  <style type="text/css">
   <![CDATA[
    .fil2 {fill:#514F51}
    .fil4 {fill:#E74129}
    .fil3 {fill:#FCFDFE}
    .fil1 {fill:#FDEE4E}
    .fil0 {fill:#FFED00}
   ]]>
  </style>
 </defs>
 <g id="Vrstva_x0020_1">
  <metadata id="CorelCorpID_0Corel-Layer"/>
  <g id="_2712184451856">
   <g id="_1192605646320">
    <path class="fil0" d="M374 1979c79,-14 54,140 0,175 -55,35 -374,104 -374,104 0,0 0,-216 374,-279z"/>
    <path class="fil0" d="M920 6998l1660 0c332,0 601,-267 601,-597l0 -5339c0,-588 -479,-1064 -1069,-1064l-723 0c-591,0 -1070,476 -1070,1064l0 5339c0,330 270,597 601,597z"/>
    <path class="fil1" d="M714 5172l46 -2382 -379 -1594c0,-588 479,-1063 1069,-1063l600 0c591,0 1070,475 1070,1063l-380 1594 46 2382c0,561 -2072,561 -2072,0z"/>
    <path class="fil0" d="M3127 1979c-80,-14 -54,140 0,175 54,35 373,104 373,104 0,0 0,-216 -373,-279z"/>
    <path class="fil2" d="M424 1825c0,0 217,1087 238,1295 21,209 42,2801 0,2895 -42,93 -107,72 -107,72 0,0 -131,-540 -131,-1814 0,-1275 0,-2448 0,-2448z"/>
    <path class="fil2" d="M3077 1825c0,0 -218,1087 -238,1295 -22,209 -42,2801 0,2895 42,93 106,72 106,72 0,0 132,-540 132,-1814 0,-1275 0,-2448 0,-2448z"/>
    <path class="fil2" d="M760 3013c0,0 -248,-1095 -205,-1296 43,-202 591,-354 1195,-354 605,0 1152,152 1195,354 44,201 -205,1296 -205,1296 0,0 -334,-65 -990,-65 -656,0 -990,65 -990,65z"/>
    <path class="fil3" d="M1057 347c-3,-51 -35,-97 -76,-127l-1 0c-176,70 -324,195 -425,355 122,38 260,25 372,-37 70,-39 136,-108 130,-191z"/>
    <path class="fil3" d="M2444 347c2,-51 35,-97 76,-127l1 0c175,70 324,195 424,355 -122,38 -260,25 -372,-37 -70,-39 -135,-108 -129,-191z"/>
    <path class="fil4" d="M780 6793c-89,-27 -172,-75 -239,-139 -18,-17 -35,-35 -57,-45 -14,-7 -33,-9 -49,-5 94,129 239,218 405,239l0 -1c-1,-28 -34,-41 -60,-49z"/>
    <path class="fil4" d="M2721 6793c88,-27 171,-75 239,-139 17,-17 35,-35 56,-45 16,-7 33,-9 49,-5 -94,129 -239,218 -405,239l0 -1c1,-28 34,-41 61,-49z"/>
    <path class="fil2" d="M2649 5603c0,0 -376,189 -899,189 -522,0 -899,-189 -899,-189 -73,209 -101,490 -112,641 -5,67 32,131 93,161 157,77 493,213 918,213 425,0 762,-136 919,-213 60,-30 97,-94 93,-161 -11,-151 -39,-432 -113,-641z"/>
   </g>
  </g>
 </g>
</svg>
