<?xml version="1.0" encoding="UTF-8"?>
<!DOCTYPE svg PUBLIC "-//W3C//DTD SVG 1.1//EN" "http://www.w3.org/Graphics/SVG/1.1/DTD/svg11.dtd">
<!-- Creator: CorelDRAW X7 -->
<svg xmlns="http://www.w3.org/2000/svg" xml:space="preserve" width="210mm" height="297mm" version="1.1" style="shape-rendering:geometricPrecision; text-rendering:geometricPrecision; image-rendering:optimizeQuality; fill-rule:evenodd; clip-rule:evenodd"
viewBox="0 0 21000 29700"
 xmlns:xlink="http://www.w3.org/1999/xlink">
 <defs>
  <style type="text/css">
   <![CDATA[
    .fil1 {fill:#060607}
    .fil0 {fill:#313333}
    .fil7 {fill:#5E615F}
    .fil4 {fill:#700500}
    .fil3 {fill:#878984}
    .fil5 {fill:#A90000}
    .fil2 {fill:#EBD200}
    .fil6 {fill:#FD2A2A}
   ]]>
  </style>
 </defs>
 <g id="Vrstva_x0020_1">
  <metadata id="CorelCorpID_0Corel-Layer"/>
  <g id="_1979939516000">
   <path class="fil0" d="M13234 17325c38,729 -134,1118 -568,1410 -429,288 -1112,250 -1744,259 -884,13 -2441,333 -2390,-1531 967,662 1586,-779 962,-1123 226,-108 481,-96 672,39 416,294 945,325 1393,96 297,-151 226,-273 655,-234 -560,398 -333,1381 476,1343 298,-14 381,-132 544,-259zm-3853 -2549c-138,-1117 368,-2194 1214,-2443 1076,-318 1778,768 1907,1671 159,1120 -370,2204 -1195,2460 -1076,335 -1811,-762 -1926,-1688zm-578 3940l93 78c168,97 229,170 453,253 467,139 662,90 1185,83l1628 -67c187,-29 221,-86 364,-113 61,-47 292,-191 343,-214l66 -69c384,-370 510,-938 389,-1458l1579 -1455c141,-135 491,-338 423,-793 -50,-336 25,-161 139,-445 102,-251 48,-2966 48,-3620 0,-163 17,-447 -3,-596 -8,-58 -52,-176 -84,-233 -45,-81 -77,-128 -160,-158 82,-122 287,-179 167,-446 -87,-195 -818,-365 -1046,-440 -177,-59 -377,-113 -569,-181 -55,154 -16,446 4,644 195,17 631,226 879,247 -51,44 -9,14 -84,57 -281,165 -376,319 -409,755l-2 3561c7,136 36,172 36,317 -136,72 -796,684 -981,855l-605 556c-60,130 0,48 -120,130 -370,251 -91,163 -504,133 178,-144 377,-543 463,-818 158,-508 102,-635 117,-1173 -54,-243 -69,-458 -166,-665l-197 -407c-205,-388 -685,-861 -1353,-840l-94 2c-326,57 -573,174 -769,351 -101,91 -175,163 -274,291 -73,95 -130,229 -212,310l-168 459 -114 607c19,237 -28,380 18,638 76,420 350,1135 629,1310 -321,7 -614,179 -760,-152l-870 -785c-156,-157 -762,-732 -891,-767 90,-386 32,-2974 35,-3738 1,-306 -20,-784 -388,-882l0 -70c125,-11 331,-87 471,-129 177,-51 312,-114 482,-153l30 -635c-164,41 -1521,457 -1612,536 -63,55 -109,143 -104,236 7,123 75,166 132,251 -376,251 -318,568 -318,1163l0 2998c-3,805 244,583 223,858 -16,204 -49,132 -17,310 73,413 421,570 669,815 67,67 108,110 176,178l604 560c164,131 235,214 384,357 216,207 264,71 258,483 -9,567 139,813 387,1120z"/>
   <path class="fil1" d="M8788 9085c130,16 806,325 972,400 367,166 195,109 511,20 225,-63 380,98 545,152 169,-106 275,-187 565,-137 351,61 223,105 567,-30 268,-104 792,-329 1047,-381l41 267 -1296 394c-184,72 -60,-11 -136,117 -196,330 -392,144 -665,37 -408,-161 -397,170 -743,105 -236,-119 226,-166 -607,-449 -251,-85 -574,-208 -833,-268l32 -227zm4267 -996l166 64c127,24 263,-27 445,13l56 1397 -575 210 -92 -1684zm-584 585c-320,566 -1603,479 -1259,-135 322,-574 1602,-473 1259,135zm-3163 -105c-101,-638 1233,-477 1335,76 124,665 -1255,432 -1335,-76zm-638 1172c-136,38 -426,-134 -581,-171l60 -1424c310,7 447,84 610,-111 -5,277 -23,596 -49,872 -58,608 -14,385 -40,834zm1200 -3900c68,-133 394,-304 538,-394 126,-79 427,-311 558,-270 87,27 482,284 575,342 106,67 179,121 274,183 26,17 103,68 124,86 76,66 66,64 105,124 734,249 836,1815 940,2166 -345,-24 -1084,-342 -2074,-402 -1098,-67 -1434,244 -2062,386 26,-477 154,-946 303,-1363 98,-274 99,-341 293,-523 113,-106 286,-293 426,-335zm-1878 1776c-75,-425 51,-889 175,-1272 154,-476 335,-586 710,-807 425,-251 1535,-849 1975,-1028l27 532c-214,164 -508,313 -731,460 -705,469 -900,597 -1122,1280 -94,290 -181,623 -236,935 -69,-91 -143,-59 -376,-71 -143,-7 -279,-19 -422,-29zm3719 -2094c-215,-141 -475,-322 -721,-435l-27 -570c630,259 1411,691 1972,1018 373,218 558,334 711,806 77,235 276,977 175,1220 -62,63 -6,28 -107,59l-319 26c-152,7 -306,-15 -374,69 -59,-329 -134,-631 -236,-936 -228,-681 -403,-818 -1074,-1257zm-1636 -750c-438,232 -1251,629 -1631,933 -445,357 -605,1360 -559,1910 -355,-82 -818,9 -1151,262 -155,118 -729,657 -756,761 26,304 126,283 413,328 469,74 761,135 1206,-158 229,-150 334,-282 429,-346l-5 388 -30 635 0 141c402,192 438,50 636,423 -178,47 -163,191 -278,533 -317,941 -273,1173 -286,2219 -2,182 -28,194 -37,351 -57,1058 10,1002 452,1665 83,124 291,395 325,522 75,-27 81,-79 149,-10 148,149 213,427 200,680 146,331 439,159 760,152 -279,-175 -553,-890 -629,-1310 -46,-258 1,-401 -18,-638 -85,-74 -121,-163 -164,-259 -96,100 -126,368 -174,557 -50,202 -79,386 -120,586 -99,-100 -551,-763 -622,-904 -113,-227 -35,-2443 62,-2867 94,-412 226,-784 343,-1165 790,72 765,47 1256,433 433,339 152,287 338,509 114,138 418,205 638,238l-20 854 94 -2 19 -839c491,-198 648,27 804,-474 59,-188 79,-151 207,-252 465,-369 447,-414 1297,-467 338,990 429,1424 442,2568 3,287 60,1280 -36,1470l-625 905 -252 -1170 -140 171c-15,538 41,665 -117,1173 -86,275 -285,674 -463,818 413,30 134,118 504,-133 120,-82 60,0 120,-130 6,-139 143,-540 266,-533l84 39c30,-115 558,-877 664,-1029 169,-242 113,-325 113,-734 0,-1173 39,-1943 -340,-3082 -162,-487 -71,-227 -192,-443 -44,-80 -33,-105 -33,-214 132,-11 488,-158 600,-211l4 -141c-20,-198 -59,-490 -4,-644 -57,-101 -35,-226 -35,-379 226,151 429,433 813,528 395,97 863,-27 1199,-105 5,-196 146,-193 -202,-538 -252,-250 -582,-593 -933,-691 -204,-56 -571,-79 -736,-41 21,-258 49,-246 0,-529 -80,-462 -165,-1003 -502,-1332 -132,-128 -198,-151 -353,-248 -463,-291 -798,-432 -1193,-663 -289,-113 -658,-364 -914,-446 -142,-45 -306,90 -452,162 -146,73 -293,150 -435,213z"/>
   <path class="fil1" d="M13234 17325c-163,127 -246,245 -544,259 -809,38 -1036,-945 -476,-1343 -429,-39 -358,83 -655,234 -448,229 -977,198 -1393,-96 -191,-135 -446,-147 -672,-39 624,344 5,1785 -962,1123 -51,1864 1506,1544 2390,1531 632,-9 1315,29 1744,-259 434,-292 606,-681 568,-1410z"/>
   <path class="fil2" d="M9686 14560c-89,-138 -18,-512 -4,-702 16,-227 159,-409 266,-514 258,-251 573,-472 1081,-446 461,23 798,159 1096,465 192,197 264,754 270,1068l-16 109c-1,-5 -4,18 -9,25 -73,-26 -55,-16 -131,-153 -428,-770 -1356,-811 -2001,-355l-420 391c-77,102 -11,79 -132,112zm-305 216c115,926 850,2023 1926,1688 825,-256 1354,-1340 1195,-2460 -129,-903 -831,-1989 -1907,-1671 -846,249 -1352,1326 -1214,2443z"/>
   <path class="fil3" d="M12044 5912c-714,-19 -1423,-88 -2174,-71 -140,42 -313,229 -426,335 -194,182 -195,249 -293,523 -149,417 -277,886 -303,1363 628,-142 964,-453 2062,-386 990,60 1729,378 2074,402 -104,-351 -206,-1917 -940,-2166z"/>
   <path class="fil4" d="M11134 23839c14,-219 167,-490 346,-610 94,-64 -73,18 113,-49 -44,155 -121,243 -193,357 -130,206 -96,210 -266,302zm513 -773c98,-421 60,-605 240,-1044 124,-302 281,-527 420,-845 199,-454 140,-581 215,-1051 26,-168 82,-369 113,-524l59 -425c57,-136 -44,-17 93,-119 784,733 -134,2404 -561,3149 -119,208 -393,760 -579,859zm879 -4116c-111,240 -353,601 -552,756 -202,158 -105,186 -455,211 -213,16 -421,38 -634,53 -56,273 3,4081 14,4668 121,-40 456,-404 545,-524 157,-209 354,-315 448,-645 318,-1109 1257,-1535 1404,-3007 62,-617 -59,-1464 -427,-1726 -51,23 -282,167 -343,214z"/>
   <path class="fil4" d="M10205 23264l153 118c156,159 232,259 245,500 -69,-81 -131,-175 -209,-290l-189 -328zm-128 -205c-192,-168 -2167,-3321 -1037,-3935 48,405 121,705 183,1086 74,450 19,610 213,1024 136,291 280,537 407,827 177,406 164,549 234,998zm-728 -4012c-224,-83 -285,-156 -453,-253 -331,188 -426,1155 -379,1666 129,1399 1124,2037 1366,2866 148,508 367,623 753,1115l162 154 -23 -4624c-178,-23 -341,-37 -513,-52 -316,-29 -226,-46 -403,-201 -244,-215 -306,-278 -510,-671z"/>
   <path class="fil4" d="M9265 14214l114 -607c-175,-126 -137,-291 -343,-400l-403 898c-339,-1364 -136,-590 -117,-1726 7,-418 -123,-1553 146,-1787 364,78 306,863 365,1354 62,512 128,449 256,623 129,175 143,403 264,579 82,-81 139,-215 212,-310 99,-128 173,-200 274,-291 196,-177 443,-294 769,-351l20 -854c-220,-33 -524,-100 -638,-238 -186,-222 95,-170 -338,-509 -491,-386 -466,-361 -1256,-433 -117,381 -249,753 -343,1165 -97,424 -175,2640 -62,2867 71,141 523,804 622,904 41,-200 70,-384 120,-586 48,-189 78,-457 174,-557 43,96 79,185 164,259z"/>
   <path class="fil4" d="M10896 12194c668,-21 1148,452 1353,840 83,-568 367,-374 447,-1201 37,-392 -17,-1189 371,-1241 230,272 120,1358 128,1787 5,297 75,572 67,881 -9,333 -118,526 -174,826l-38 -48c-5,-7 -27,-39 -32,-49 -10,-17 -45,-98 -55,-124l-303 -661c-106,76 -125,157 -214,237 97,207 112,422 166,665l140 -171 252 1170 625 -905c96,-190 39,-1183 36,-1470 -13,-1144 -104,-1578 -442,-2568 -850,53 -832,98 -1297,467 -128,101 -148,64 -207,252 -156,501 -313,276 -804,474l-19 839z"/>
   <path class="fil1" d="M12869 18736c368,262 489,1109 427,1726 -147,1472 -1086,1898 -1404,3007 -94,330 -291,436 -448,645 -89,120 -424,484 -545,524 -11,-587 -70,-4395 -14,-4668 213,-15 421,-37 634,-53 350,-25 253,-53 455,-211 199,-155 441,-516 552,-756 -143,27 -177,84 -364,113l-1628 67c-523,7 -718,56 -1185,-83 204,393 266,456 510,671 177,155 87,172 403,201 172,15 335,29 513,52l23 4624 -162 -154c-386,-492 -605,-607 -753,-1115 -242,-829 -1237,-1467 -1366,-2866 -47,-511 48,-1478 379,-1666l-93 -78c-157,276 -258,298 -343,795 -196,1135 100,1862 661,2731 37,38 72,76 109,114 130,268 365,515 508,830 74,163 89,342 171,500 88,169 213,275 303,402l105 139c90,61 196,231 280,326 211,241 157,295 325,309 11,-127 16,-116 98,-184l475 -451c40,-108 -3,-68 105,-133 88,-123 206,-225 292,-379 89,-158 102,-331 173,-498 135,-318 359,-583 523,-852 38,-41 67,-77 100,-116 302,-534 619,-862 701,-1694 46,-462 29,-1112 -182,-1536 -84,-167 -166,-229 -272,-352l-66 69z"/>
   <path class="fil5" d="M7992 7617c143,10 279,22 422,29 233,12 307,-20 376,71 55,-312 142,-645 236,-935 222,-683 417,-811 1122,-1280 223,-147 517,-296 731,-460l-27 -532c-440,179 -1550,777 -1975,1028 -375,221 -556,331 -710,807 -124,383 -250,847 -175,1272z"/>
   <path class="fil5" d="M10990 5088c246,113 506,294 721,435 671,439 846,576 1074,1257 102,305 177,607 236,936 68,-84 222,-62 374,-69l319 -26c101,-31 45,4 107,-59 101,-243 -98,-985 -175,-1220 -153,-472 -338,-588 -711,-806 -561,-327 -1342,-759 -1972,-1018l27 570z"/>
   <path class="fil0" d="M10075 4773c142,-63 289,-140 435,-213 146,-72 310,-207 452,-162 256,82 625,333 914,446 0,-543 81,-1179 -408,-1511 -484,-328 -995,-150 -1274,312 -171,282 -119,697 -119,1128z"/>
   <path class="fil3" d="M11600 24094c-33,419 100,754 376,882 392,182 743,-50 847,-331 76,-204 -129,-2132 -235,-2280 -164,269 -388,534 -523,852 -71,167 -84,340 -173,498 -86,154 -204,256 -292,379z"/>
   <path class="fil3" d="M10212 24088c-90,-127 -215,-233 -303,-402 -82,-158 -97,-337 -171,-500 -143,-315 -378,-562 -508,-830 -33,40 -16,8 -41,73l-35 211c-48,437 -265,1759 -171,2007 205,541 1261,673 1229,-559z"/>
   <path class="fil5" d="M9379 13607l168 -459c-121,-176 -135,-404 -264,-579 -128,-174 -194,-111 -256,-623 -59,-491 -1,-1276 -365,-1354 -269,234 -139,1369 -146,1787 -19,1136 -222,362 117,1726l403 -898c206,109 168,274 343,400z"/>
   <path class="fil6" d="M12249 13034l197 407c89,-80 108,-161 214,-237l303 661c10,26 45,107 55,124 5,10 27,42 32,49l38 48c56,-300 165,-493 174,-826 8,-309 -62,-584 -67,-881 -8,-429 102,-1515 -128,-1787 -388,52 -334,849 -371,1241 -80,827 -364,633 -447,1201z"/>
   <path class="fil0" d="M9753 14356c327,-263 525,-583 1207,-671 760,-98 987,263 1312,563 -32,-470 -66,-730 -337,-942 -520,-405 -1313,-465 -1864,55 -304,287 -305,448 -318,995z"/>
   <path class="fil5" d="M11647 23066c186,-99 460,-651 579,-859 427,-745 1345,-2416 561,-3149 -137,102 -36,-17 -93,119l-59 425c-31,155 -87,356 -113,524 -75,470 -16,597 -215,1051 -139,318 -296,543 -420,845 -180,439 -142,623 -240,1044z"/>
   <path class="fil5" d="M10077 23059c-70,-449 -57,-592 -234,-998 -127,-290 -271,-536 -407,-827 -194,-414 -139,-574 -213,-1024 -62,-381 -135,-681 -183,-1086 -1130,614 845,3767 1037,3935z"/>
   <path class="fil0" d="M10271 9505c-316,89 -144,146 -511,-20 -166,-75 -842,-384 -972,-400l-32 227c259,60 582,183 833,268 833,283 371,330 607,449 346,65 335,-266 743,-105 273,107 469,293 665,-37 76,-128 -48,-45 136,-117l1296 -394 -41 -267c-255,52 -779,277 -1047,381 -344,135 -216,91 -567,30 -290,-50 -396,31 -565,137 -165,-54 -320,-215 -545,-152z"/>
   <path class="fil0" d="M12471 8674c343,-608 -937,-709 -1259,-135 -344,614 939,701 1259,135z"/>
   <path class="fil0" d="M9308 8569c80,508 1459,741 1335,76 -102,-553 -1436,-714 -1335,-76z"/>
   <path class="fil5" d="M8670 9741c26,-449 -18,-226 40,-834 26,-276 44,-595 49,-872 -163,195 -300,118 -610,111l-60 1424c155,37 445,209 581,171z"/>
   <path class="fil5" d="M13147 9773l575 -210 -56 -1397c-182,-40 -318,11 -445,-13l-166 -64 92 1684z"/>
   <path class="fil7" d="M9870 5841c751,-17 1460,52 2174,71 -39,-60 -29,-58 -105,-124 -21,-18 -98,-69 -124,-86 -95,-62 -168,-116 -274,-183 -93,-58 -488,-315 -575,-342 -131,-41 -432,191 -558,270 -144,90 -470,261 -538,394z"/>
   <path class="fil1" d="M9753 14356c13,-547 14,-708 318,-995 551,-520 1344,-460 1864,-55 271,212 305,472 337,942 -325,-300 -552,-661 -1312,-563 -682,88 -880,408 -1207,671zm-67 204c121,-33 55,-10 132,-112l420 -391c645,-456 1573,-415 2001,355 76,137 58,127 131,153 5,-7 8,-30 9,-25l16 -109c-6,-314 -78,-871 -270,-1068 -298,-306 -635,-442 -1096,-465 -508,-26 -823,195 -1081,446 -107,105 -250,287 -266,514 -14,190 -85,564 4,702z"/>
   <path class="fil0" d="M10317 24227l-105 -139c32,1232 -1024,1100 -1229,559 -94,-248 123,-1570 171,-2007l35 -211c25,-65 8,-33 41,-73 -37,-38 -72,-76 -109,-114 -49,92 -13,3 -32,119l-134 1101c-46,350 -172,938 -51,1229 238,575 987,579 1271,95 135,-231 68,-374 142,-559z"/>
   <path class="fil0" d="M12588 22365c106,148 311,2076 235,2280 -104,281 -455,513 -847,331 -276,-128 -409,-463 -376,-882 -108,65 -65,25 -105,133 67,187 -3,327 124,538 319,532 1056,483 1286,-74 118,-285 -6,-863 -47,-1198l-143 -1162c-2,-10 -6,-20 -8,-29l-19 -53c-33,39 -62,75 -100,116z"/>
   <path class="fil5" d="M11134 23839c170,-92 136,-96 266,-302 72,-114 149,-202 193,-357 -186,67 -19,-15 -113,49 -179,120 -332,391 -346,610z"/>
   <path class="fil5" d="M10205 23264l189 328c78,115 140,209 209,290 -13,-241 -89,-341 -245,-500l-153 -118z"/>
  </g>
 </g>
</svg>
