<svg width="0" height="0" class="hidden">
  <symbol xmlns="http://www.w3.org/2000/svg" viewBox="0 0 3500 7000" shape-rendering="geometricPrecision" text-rendering="geometricPrecision" image-rendering="optimizeQuality" fill-rule="evenodd" clip-rule="evenodd" id="black_car">
    <path d="M918 7005h1661c332 0 601-267 601-597V1069C3180 482 2701 5 2110 5h-722C797 5 318 482 318 1069v5339c0 330 269 597 600 597z"></path>
    <path d="M713 5180l46-2382-379-1594c0-588 478-1064 1069-1064h600c591 0 1070 476 1070 1064l-379 1594 45 2382c0 560-2072 560-2072 0z" fill="#282829"></path>
    <path d="M372 1987c79-14 54 140 0 174-54 35-373 105-373 105s0-217 373-279zm2754 0c-79-14-54 140 0 174 54 35 373 105 373 105s0-217-373-279z"></path>
    <path d="M422 1832s217 1088 239 1296c21 209 42 2801 0 2894-42 94-108 73-108 73s-131-541-131-1814V1832zm2654 0s-217 1088-238 1296c-21 209-43 2801 0 2894 42 94 106 73 106 73s132-541 132-1814V1832zM759 3021S510 1926 553 1725c44-202 592-354 1196-354s1152 152 1195 354c44 201-204 1296-204 1296s-335-65-991-65-990 65-990 65zm297-2666c-3-51-35-98-76-127l-1-1c-176 71-324 196-426 356 123 38 260 25 373-37 70-40 135-109 130-191zm1386 0c4-51 35-98 77-127l1-1c176 71 324 196 424 356-122 38-259 25-371-37-71-40-136-109-131-191zM779 6801c-90-28-172-75-239-139-18-17-36-35-57-46-16-7-33-9-50-5 95 129 240 219 406 240v-2c-1-27-34-41-60-48zm1941 0c89-28 172-75 239-139 18-17 34-35 57-46 14-7 33-9 49-5-95 129-240 219-406 240v-2c0-27 34-41 61-48zm-72-1190s-376 189-899 189c-522 0-899-189-899-189-73 209-102 490-112 641-5 67 31 130 92 160 158 78 493 213 919 213 425 0 761-135 919-213 61-30 97-93 93-160-11-151-39-432-113-641z"></path>
  </symbol>
</svg>