<svg width="0" height="0" class="hidden"><symbol xmlns="http://www.w3.org/2000/svg" viewBox="0 0 3500 7000" shape-rendering="geometricPrecision" text-rendering="geometricPrecision" image-rendering="optimizeQuality" fill-rule="evenodd" clip-rule="evenodd" id="blue_car"><path d="M915 7003h1659c332 0 601-268 601-598V1067C3175 480 2696 3 2106 3h-723C793 3 314 480 314 1067v5338c0 330 269 598 601 598z"></path><path d="M709 5177l46-2381-380-1594c0-588 479-1064 1069-1064h600c591 0 1070 476 1070 1064l-380 1594 46 2381c0 560-2071 560-2071 0z" fill="#71a3d1"></path><path d="M368 1985c79-14 54 139 0 174S-6 2264-6 2264s0-217 374-279zm2754 0c-80-14-55 139 0 174 53 35 372 105 372 105s0-217-372-279z"></path><path d="M418 1830s218 1087 238 1296c21 209 43 2801 0 2894-42 94-106 73-106 73s-132-541-132-1815V1830zm2653 0s-217 1087-238 1296c-22 209-42 2801 0 2894 42 94 106 73 106 73s132-541 132-1815V1830zM755 3018S506 1923 550 1722c43-201 590-353 1195-353 604 0 1151 152 1194 353 44 201-205 1296-205 1296s-333-65-989-65-990 65-990 65zm296-2665c-3-52-35-98-76-127l-1-1c-176 70-324 196-424 356 122 38 259 25 371-38 71-39 136-109 130-190zm1387 0c3-52 35-98 76-127l1-1c175 70 324 196 424 356-122 38-259 25-372-38-70-39-135-109-129-190zM774 6798c-89-27-172-74-239-138-18-17-34-35-57-46-14-7-33-10-48-5 94 128 239 219 405 240l1-2c-1-27-35-41-62-49zm1941 0c89-27 172-74 239-138 17-17 35-35 56-46 16-7 34-10 49-5-93 128-239 219-405 240v-2c1-27 34-41 61-49zm-71-1190s-377 190-899 190c-523 0-900-190-900-190-73 210-101 491-112 642-4 67 32 130 93 160 157 78 494 213 919 213 424 0 761-135 918-213 61-30 98-93 93-160-11-151-39-432-112-642z"></path></symbol></svg>