<svg width="0" height="0" class="hidden"><symbol xmlns="http://www.w3.org/2000/svg" viewBox="0 0 3500 7000" shape-rendering="geometricPrecision" text-rendering="geometricPrecision" image-rendering="optimizeQuality" fill-rule="evenodd" clip-rule="evenodd" id="green_car"><path d="M371 1977c79-13 53 140 0 175-54 36-373 106-373 106s0-218 373-281z"></path><path d="M917 6997h1661c332 0 601-267 601-598V1061C3179 472 2699-3 2109-3h-722C795-3 317 472 317 1061v5338c0 331 268 598 600 598z"></path><path d="M711 5171l47-2381-381-1595c0-588 480-1064 1070-1064h600c592 0 1070 476 1070 1064l-380 1595 47 2381c0 560-2073 560-2073 0z" fill="#26ac68"></path><path d="M3125 1977c-79-13-54 140 0 175 54 36 373 106 373 106s0-218-373-281z"></path><path d="M421 1823s217 1087 238 1297c21 209 42 2801 0 2894-42 94-107 72-107 72s-131-540-131-1815V1823zm2653 0s-217 1087-238 1297c-21 209-42 2801 0 2894 42 94 107 72 107 72s131-540 131-1815V1823zM758 3011S508 1917 552 1715c44-201 592-352 1196-352s1151 151 1195 352c43 202-206 1296-206 1296s-333-65-989-65-990 65-990 65zm297-2665c-4-51-35-98-77-127v-1c-176 70-325 196-426 356 122 38 260 25 372-38 70-38 136-108 131-190zm1386 0c3-51 35-98 76-127l1-1c175 70 324 196 425 356-123 38-259 25-372-38-70-38-135-108-130-190zM777 6793c-89-28-172-76-240-139-17-18-34-35-56-46-15-7-33-10-49-5 95 128 239 218 406 240v-2c-1-28-34-41-61-48zm1941 0c90-28 172-76 240-139 18-18 34-35 56-46 15-7 34-10 49-5-94 128-239 218-406 240v-2c1-28 35-41 61-48zm-71-1191s-377 189-899 189c-523 0-899-189-899-189-74 210-103 491-112 642-5 67 31 130 91 160 158 78 494 213 920 213 425 0 761-135 919-213 61-30 97-93 92-160-11-151-39-432-112-642z"></path></symbol></svg>