<svg width="0" height="0" class="hidden"><symbol xmlns="http://www.w3.org/2000/svg" viewBox="0 0 3500 7000" shape-rendering="geometricPrecision" text-rendering="geometricPrecision" image-rendering="optimizeQuality" fill-rule="evenodd" clip-rule="evenodd" id="grey_car"><path d="M913 7009h1661c332 0 601-267 601-597V1074c0-588-480-1064-1070-1064h-722C791 10 313 486 313 1074v5338c0 330 268 597 600 597z"></path><path d="M707 5184l47-2382-381-1594c0-587 480-1063 1070-1063h600c592 0 1070 476 1070 1063l-380 1594 47 2382c0 560-2073 560-2073 0z" fill="#d9dada"></path><path d="M367 1991c79-14 53 139 0 174-54 35-373 105-373 105s0-216 373-279zm2754 0c-79-14-54 139 0 174s373 105 373 105 0-216-373-279z"></path><path d="M417 1836s217 1087 239 1296c20 209 42 2801 0 2894-43 94-108 72-108 72s-131-539-131-1814V1836zm2653 0s-216 1087-238 1296c-20 209-42 2801 0 2894 42 94 107 72 107 72s131-539 131-1814V1836zM754 3024S504 1931 548 1729s592-353 1196-353 1152 151 1195 353-206 1295-206 1295-333-65-989-65-990 65-990 65zm297-2664c-4-51-35-98-77-128-177 70-325 195-426 355 122 39 260 26 372-37 70-39 136-108 131-190zm1386 0c3-51 35-98 76-128h1c176 70 324 195 425 355-123 39-259 26-371-37-71-39-136-108-131-190zM773 6804c-89-26-172-75-239-139-18-16-35-34-57-45-15-7-33-9-49-4 95 128 239 217 406 239v-2c-1-28-34-40-61-49zm1941 0c90-26 172-75 240-139 17-16 34-34 56-45 15-7 34-9 49-4-94 128-239 217-406 239v-2c1-28 35-40 61-49zm-71-1190s-377 189-899 189c-523 0-899-189-899-189-74 210-103 491-112 642-5 67 31 131 91 161 159 77 494 212 920 212 425 0 761-135 919-212 61-30 97-94 92-161-11-151-39-432-112-642z"></path><path d="M1068 379c-3-52-35-98-76-129h-1c-176 70-324 196-426 356 123 39 260 26 372-37 70-39 136-109 131-190zm1386 0c4-52 35-98 77-129 177 70 325 196 425 356-122 39-259 26-371-37-71-39-136-109-131-190z"></path></symbol></svg>