<svg width="0" height="0" class="hidden"><symbol xmlns="http://www.w3.org/2000/svg" viewBox="0 0 3500 7000" shape-rendering="geometricPrecision" text-rendering="geometricPrecision" image-rendering="optimizeQuality" fill-rule="evenodd" clip-rule="evenodd" id="orange_car"><path d="M920 7006h1661c332 0 600-268 600-598V1070C3181 482 2703 6 2112 6h-723C799 6 320 482 320 1070v5338c0 330 268 598 600 598z"></path><path d="M714 5180l47-2382-380-1594c0-588 478-1063 1070-1063h600c591 0 1070 475 1070 1063l-381 1594 47 2382c0 560-2073 560-2073 0z" fill="#f3a24a"></path><path d="M373 1987c79-14 54 140 0 175-53 35-372 104-372 104s0-217 372-279zm2755 0c-79-14-54 140 0 175 53 35 373 104 373 104s0-217-373-279z"></path><path d="M424 1833s217 1087 238 1295c21 209 42 2801 0 2894-43 94-107 73-107 73s-131-541-131-1814V1833zm2653 0s-217 1087-238 1295c-21 209-42 2801 0 2894 43 94 107 73 107 73s131-541 131-1814V1833zM761 3021S512 1926 555 1725c44-202 591-354 1196-354 604 0 1151 152 1195 354 44 201-206 1296-206 1296s-334-65-989-65c-656 0-990 65-990 65zm297-2666c-3-51-36-98-77-127v-1c-176 71-326 196-426 356 122 38 260 25 372-38 70-38 135-108 131-190zm1386 0c3-51 35-98 76-127l1-1c175 71 325 196 425 356-122 38-259 25-372-38-70-38-135-108-130-190zM779 6801c-88-27-171-75-239-139-17-17-34-35-55-46-16-6-34-9-50-4 95 128 239 218 406 239v-2c-1-27-34-40-62-48zm1943 0c89-27 172-75 239-139 17-17 34-35 56-46 15-6 34-9 49-4-94 128-239 218-406 239v-2c1-27 34-40 62-48zm-73-1190s-376 189-898 189c-523 0-899-189-899-189-74 209-103 490-113 641-4 67 32 130 92 161 158 77 494 212 920 212 425 0 761-135 919-212 61-31 97-94 92-161-10-151-38-432-113-641z"></path></symbol></svg>