<svg width="0" height="0" class="hidden"><symbol xmlns="http://www.w3.org/2000/svg" viewBox="0 0 3500 7000" shape-rendering="geometricPrecision" text-rendering="geometricPrecision" image-rendering="optimizeQuality" fill-rule="evenodd" clip-rule="evenodd" id="pink_car"><path d="M914 7006h1659c332 0 601-267 601-597V1070C3174 483 2695 6 2105 6h-723C792 6 313 483 313 1070v5339c0 330 269 597 601 597z"></path><path d="M708 5181l46-2381-380-1595c0-587 479-1064 1069-1064h601c590 0 1069 477 1069 1064l-380 1595 46 2381c0 560-2071 560-2071 0z" fill="#e4609e"></path><path d="M366 1988c80-14 55 139 0 174-53 35-372 106-372 106s0-217 372-280zm2754 0c-79-14-54 139 0 174s374 106 374 106 0-217-374-280z"></path><path d="M417 1833s217 1087 238 1296c22 210 42 2802 0 2895s-106 72-106 72-132-540-132-1815V1833zm2653 0s-218 1087-238 1296c-21 210-43 2802 0 2895 42 93 106 72 106 72s132-540 132-1815V1833zM754 3021S505 1927 549 1725c43-201 590-352 1194-352 605 0 1152 151 1195 352 44 202-205 1296-205 1296s-334-65-990-65-989 65-989 65zm296-2664c-3-52-35-98-76-127l-1-1c-175 69-324 196-424 356 122 38 259 25 371-38 71-39 136-109 130-190zm1387 0c3-52 35-98 76-127l1-1c176 69 324 196 424 356-122 38-259 25-371-38-71-39-136-109-130-190zM773 6801c-89-26-172-74-239-137-17-18-35-35-56-46-16-7-34-10-49-5 93 128 239 218 405 240v-2c-1-28-34-41-61-50zm1941 0c89-26 172-74 239-137 18-18 34-35 57-46 14-7 33-10 48-5-94 128-239 218-405 240v-2c0-28 34-41 61-50zm-71-1190s-377 190-900 190c-522 0-899-190-899-190-73 210-101 491-112 643-5 67 32 130 93 160 157 78 494 213 918 213 425 0 762-135 919-213 61-30 97-93 93-160-11-152-39-433-112-643z"></path></symbol></svg>