<svg width="0" height="0" class="hidden"><symbol xmlns="http://www.w3.org/2000/svg" viewBox="0 0 3500 7000" shape-rendering="geometricPrecision" text-rendering="geometricPrecision" image-rendering="optimizeQuality" fill-rule="evenodd" clip-rule="evenodd" id="red_car"><path d="M917 7010h1661c332 0 601-267 601-597V1074c0-589-479-1064-1070-1064h-722C796 10 317 485 317 1074v5339c0 330 269 597 600 597z"></path><path d="M712 5184l46-2381-380-1595c0-588 479-1064 1070-1064h600c591 0 1070 476 1070 1064l-380 1595 46 2381c0 561-2072 561-2072 0z" fill="#e63a40"></path><path d="M371 1990c79-13 54 140 0 175-54 36-373 106-373 106s0-218 373-281zm2754 0c-79-13-54 140 0 175 54 36 373 106 373 106s0-218-373-281z"></path><path d="M421 1836s217 1087 239 1297c21 209 42 2801 0 2894-42 94-108 72-108 72s-131-540-131-1815V1836zm2654 0s-217 1087-238 1297c-21 209-43 2801 0 2894 42 94 106 72 106 72s132-540 132-1815V1836zM758 3024S509 1930 552 1728c44-201 592-352 1196-352s1152 151 1195 352c44 202-205 1296-205 1296s-334-65-990-65-990 65-990 65zm297-2665c-3-51-35-98-76-127l-1-1c-176 70-324 196-426 356 123 38 260 26 372-38 71-38 136-108 131-190zm1386 0c4-51 35-98 77-127v-1c177 70 325 196 425 356-122 38-259 26-371-38-71-38-136-108-131-190zM778 6806c-90-27-172-76-239-139-18-18-36-35-57-46-16-7-33-9-50-5 95 129 240 218 406 240v-2c-1-28-34-41-60-48zm1941 0c89-27 172-76 239-139 18-18 34-35 57-46 14-7 33-9 48-5-94 129-239 218-405 240l-1-2c1-28 35-41 62-48zm-72-1191s-376 189-899 189c-522 0-899-189-899-189-73 210-102 491-112 642-5 67 31 130 91 160 159 78 494 213 920 213 425 0 761-135 919-213 61-30 97-93 93-160-11-151-39-432-113-642z"></path></symbol></svg>