<svg width="0" height="0" class="hidden"><symbol xmlns="http://www.w3.org/2000/svg" viewBox="0 0 3500 7000" shape-rendering="geometricPrecision" text-rendering="geometricPrecision" image-rendering="optimizeQuality" fill-rule="evenodd" clip-rule="evenodd" id="yellow_car"><path d="M374 1979c79-14 54 140 0 175-55 35-374 104-374 104s0-216 374-279z"></path><path d="M920 6998h1660c332 0 601-267 601-597V1062C3181 474 2702-2 2112-2h-723C798-2 319 474 319 1062v5339c0 330 270 597 601 597z"></path><path d="M714 5172l46-2382-379-1594c0-588 479-1063 1069-1063h600c591 0 1070 475 1070 1063l-380 1594 46 2382c0 561-2072 561-2072 0z" fill="#fdee4e"></path><path d="M3127 1979c-80-14-54 140 0 175s373 104 373 104 0-216-373-279z"></path><path d="M424 1825s217 1087 238 1295c21 209 42 2801 0 2895-42 93-107 72-107 72s-131-540-131-1814V1825zm2653 0s-218 1087-238 1295c-22 209-42 2801 0 2895 42 93 106 72 106 72s132-540 132-1814V1825zM760 3013S512 1918 555 1717c43-202 591-354 1195-354 605 0 1152 152 1195 354 44 201-205 1296-205 1296s-334-65-990-65-990 65-990 65zm297-2666c-3-51-35-97-76-127h-1c-176 70-324 195-425 355 122 38 260 25 372-37 70-39 136-108 130-191zm1387 0c2-51 35-97 76-127h1c175 70 324 195 424 355-122 38-260 25-372-37-70-39-135-108-129-191zM780 6793c-89-27-172-75-239-139-18-17-35-35-57-45-14-7-33-9-49-5 94 129 239 218 405 239v-1c-1-28-34-41-60-49zm1941 0c88-27 171-75 239-139 17-17 35-35 56-45 16-7 33-9 49-5-94 129-239 218-405 239v-1c1-28 34-41 61-49zm-72-1190s-376 189-899 189c-522 0-899-189-899-189-73 209-101 490-112 641-5 67 32 131 93 161 157 77 493 213 918 213s762-136 919-213c60-30 97-94 93-161-11-151-39-432-113-641z"></path></symbol></svg>